0, 0, Header, 1, 10, 960
1, 0, Start_track
1, 0, Control_c, 0, 101, 0
1, 0, Control_c, 0, 100, 0
1, 0, Control_c, 0, 6, 12
1, 0, Control_c, 0, 38, 0
1, 0, Control_c, 1, 101, 0
1, 0, Control_c, 1, 100, 0
1, 0, Control_c, 1, 6, 12
1, 0, Control_c, 1, 38, 0
1, 0, Control_c, 2, 101, 0
1, 0, Control_c, 2, 100, 0
1, 0, Control_c, 2, 6, 12
1, 0, Control_c, 2, 38, 0
1, 0, Control_c, 3, 101, 0
1, 0, Control_c, 3, 100, 0
1, 0, Control_c, 3, 6, 12
1, 0, Control_c, 3, 38, 0
1, 0, Control_c, 4, 101, 0
1, 0, Control_c, 4, 100, 0
1, 0, Control_c, 4, 6, 12
1, 0, Control_c, 4, 38, 0
1, 0, Control_c, 5, 101, 0
1, 0, Control_c, 5, 100, 0
1, 0, Control_c, 5, 6, 12
1, 0, Control_c, 5, 38, 0
1, 0, Control_c, 6, 101, 0
1, 0, Control_c, 6, 100, 0
1, 0, Control_c, 6, 6, 12
1, 0, Control_c, 6, 38, 0
1, 0, Control_c, 7, 101, 0
1, 0, Control_c, 7, 100, 0
1, 0, Control_c, 7, 6, 12
1, 0, Control_c, 7, 38, 0
1, 0, Control_c, 8, 101, 0
1, 0, Control_c, 8, 100, 0
1, 0, Control_c, 8, 6, 12
1, 0, Control_c, 8, 38, 0
1, 0, Control_c, 9, 101, 0
1, 0, Control_c, 9, 100, 0
1, 0, Control_c, 9, 6, 12
1, 0, Control_c, 9, 38, 0
1, 0, Control_c, 10, 101, 0
1, 0, Control_c, 10, 100, 0
1, 0, Control_c, 10, 6, 12
1, 0, Control_c, 10, 38, 0
1, 0, Control_c, 11, 101, 0
1, 0, Control_c, 11, 100, 0
1, 0, Control_c, 11, 6, 12
1, 0, Control_c, 11, 38, 0
1, 0, Control_c, 12, 101, 0
1, 0, Control_c, 12, 100, 0
1, 0, Control_c, 12, 6, 12
1, 0, Control_c, 12, 38, 0
1, 0, Control_c, 13, 101, 0
1, 0, Control_c, 13, 100, 0
1, 0, Control_c, 13, 6, 12
1, 0, Control_c, 13, 38, 0
1, 0, Control_c, 14, 101, 0
1, 0, Control_c, 14, 100, 0
1, 0, Control_c, 14, 6, 12
1, 0, Control_c, 14, 38, 0
1, 0, Control_c, 15, 101, 0
1, 0, Control_c, 15, 100, 0
1, 0, Control_c, 15, 6, 12
1, 0, Control_c, 15, 38, 0
1, 0, Time_signature, 3, 2, 24, 8
1, 0, Tempo, 375000
1, 43200, Tempo, 800000
1, 54720, Tempo, 705882
1, 74880, Tempo, 869565
1, 77760, Tempo, 705882
1, 118080, Tempo, 600000
1, 120960, Tempo, 375000
1, 144000, Tempo, 750000
1, 161280, Tempo, 705882
1, 270720, Tempo, 674157
1, 270720, End_track
2, 0, Start_track
2, 0, Pitch_bend_c, 0, 8192
2, 0, Control_c, 0, 7, 111
2, 0, Control_c, 0, 10, 63
2, 0, Control_c, 0, 93, 0
2, 0, Control_c, 0, 91, 31
2, 0, Control_c, 0, 95, 0
2, 0, Control_c, 0, 92, 0
2, 0, Control_c, 0, 11, 127
2, 0, Program_c, 0, 25
2, 0, Note_on_c, 0, 64, 95
2, 0, Note_on_c, 0, 45, 95
2, 960, Note_off_c, 0, 64, 95
2, 960, Note_off_c, 0, 45, 95
2, 960, Note_on_c, 0, 62, 95
2, 1440, Note_off_c, 0, 62, 95
2, 1440, Note_on_c, 0, 60, 95
2, 1920, Note_off_c, 0, 60, 95
2, 1920, Note_on_c, 0, 59, 95
2, 2880, Note_off_c, 0, 59, 95
2, 2880, Note_on_c, 0, 59, 95
2, 2880, Note_on_c, 0, 43, 95
2, 3840, Note_off_c, 0, 59, 95
2, 3840, Note_off_c, 0, 43, 95
2, 3840, Note_on_c, 0, 60, 95
2, 4320, Note_off_c, 0, 60, 95
2, 4320, Note_on_c, 0, 59, 95
2, 4800, Note_off_c, 0, 59, 95
2, 4800, Note_on_c, 0, 55, 95
2, 5760, Note_off_c, 0, 55, 95
2, 5760, Note_on_c, 0, 59, 95
2, 5760, Note_on_c, 0, 40, 95
2, 6720, Note_off_c, 0, 59, 95
2, 6720, Note_off_c, 0, 40, 95
2, 6720, Note_on_c, 0, 57, 95
2, 7680, Note_off_c, 0, 57, 95
2, 7680, Note_on_c, 0, 55, 95
2, 8640, Note_off_c, 0, 55, 95
2, 8640, Note_on_c, 0, 60, 95
2, 8640, Note_on_c, 0, 45, 95
2, 9600, Note_off_c, 0, 60, 95
2, 9600, Note_off_c, 0, 45, 95
2, 9600, Note_on_c, 0, 62, 95
2, 10080, Note_off_c, 0, 62, 95
2, 10080, Note_on_c, 0, 60, 95
2, 10560, Note_off_c, 0, 60, 95
2, 10560, Note_on_c, 0, 59, 95
2, 11040, Note_off_c, 0, 59, 95
2, 11040, Note_on_c, 0, 60, 95
2, 11520, Note_off_c, 0, 60, 95
2, 11520, Note_on_c, 0, 64, 95
2, 11520, Note_on_c, 0, 45, 95
2, 12480, Note_off_c, 0, 64, 95
2, 12480, Note_off_c, 0, 45, 95
2, 12480, Note_on_c, 0, 62, 95
2, 12960, Note_off_c, 0, 62, 95
2, 12960, Note_on_c, 0, 60, 95
2, 13440, Note_off_c, 0, 60, 95
2, 13440, Note_on_c, 0, 59, 95
2, 14400, Note_off_c, 0, 59, 95
2, 14400, Note_on_c, 0, 59, 95
2, 14400, Note_on_c, 0, 43, 95
2, 15360, Note_off_c, 0, 59, 95
2, 15360, Note_off_c, 0, 43, 95
2, 15360, Note_on_c, 0, 60, 95
2, 15840, Note_off_c, 0, 60, 95
2, 15840, Note_on_c, 0, 59, 95
2, 16320, Note_off_c, 0, 59, 95
2, 16320, Note_on_c, 0, 55, 95
2, 17280, Note_off_c, 0, 55, 95
2, 17280, Note_on_c, 0, 59, 95
2, 17280, Note_on_c, 0, 40, 95
2, 18240, Note_off_c, 0, 59, 95
2, 18240, Note_off_c, 0, 40, 95
2, 18240, Note_on_c, 0, 57, 95
2, 19200, Note_off_c, 0, 57, 95
2, 19200, Note_on_c, 0, 55, 95
2, 20160, Note_off_c, 0, 55, 95
2, 20160, Note_on_c, 0, 57, 95
2, 20160, Note_on_c, 0, 45, 95
2, 23040, Note_off_c, 0, 57, 95
2, 23040, Note_off_c, 0, 45, 95
2, 23040, Note_on_c, 0, 64, 95
2, 23040, Note_on_c, 0, 45, 95
2, 24000, Note_off_c, 0, 64, 95
2, 24000, Note_off_c, 0, 45, 95
2, 24000, Note_on_c, 0, 62, 95
2, 24480, Note_off_c, 0, 62, 95
2, 24480, Note_on_c, 0, 60, 95
2, 24960, Note_off_c, 0, 60, 95
2, 24960, Note_on_c, 0, 59, 95
2, 25920, Note_off_c, 0, 59, 95
2, 25920, Note_on_c, 0, 59, 95
2, 25920, Note_on_c, 0, 43, 95
2, 26880, Note_off_c, 0, 59, 95
2, 26880, Note_off_c, 0, 43, 95
2, 26880, Note_on_c, 0, 60, 95
2, 27360, Note_off_c, 0, 60, 95
2, 27360, Note_on_c, 0, 59, 95
2, 27840, Note_off_c, 0, 59, 95
2, 27840, Note_on_c, 0, 55, 95
2, 28800, Note_off_c, 0, 55, 95
2, 28800, Note_on_c, 0, 59, 95
2, 28800, Note_on_c, 0, 40, 95
2, 29760, Note_off_c, 0, 59, 95
2, 29760, Note_off_c, 0, 40, 95
2, 29760, Note_on_c, 0, 57, 95
2, 30720, Note_off_c, 0, 57, 95
2, 30720, Note_on_c, 0, 55, 95
2, 31680, Note_off_c, 0, 55, 95
2, 31680, Note_on_c, 0, 60, 95
2, 31680, Note_on_c, 0, 45, 95
2, 32640, Note_off_c, 0, 60, 95
2, 32640, Note_off_c, 0, 45, 95
2, 32640, Note_on_c, 0, 62, 95
2, 33120, Note_off_c, 0, 62, 95
2, 33120, Note_on_c, 0, 60, 95
2, 33600, Note_off_c, 0, 60, 95
2, 33600, Note_on_c, 0, 59, 95
2, 34080, Note_off_c, 0, 59, 95
2, 34080, Note_on_c, 0, 60, 95
2, 34560, Note_off_c, 0, 60, 95
2, 34560, Note_on_c, 0, 64, 95
2, 34560, Note_on_c, 0, 45, 95
2, 35520, Note_off_c, 0, 64, 95
2, 35520, Note_off_c, 0, 45, 95
2, 35520, Note_on_c, 0, 62, 95
2, 36000, Note_off_c, 0, 62, 95
2, 36000, Note_on_c, 0, 60, 95
2, 36480, Note_off_c, 0, 60, 95
2, 36480, Note_on_c, 0, 59, 95
2, 37440, Note_off_c, 0, 59, 95
2, 37440, Note_on_c, 0, 59, 95
2, 37440, Note_on_c, 0, 43, 95
2, 38400, Note_off_c, 0, 59, 95
2, 38400, Note_off_c, 0, 43, 95
2, 38400, Note_on_c, 0, 60, 95
2, 38880, Note_off_c, 0, 60, 95
2, 38880, Note_on_c, 0, 59, 95
2, 39360, Note_off_c, 0, 59, 95
2, 39360, Note_on_c, 0, 55, 95
2, 40320, Note_off_c, 0, 55, 95
2, 40320, Note_on_c, 0, 59, 95
2, 40320, Note_on_c, 0, 40, 95
2, 41280, Note_off_c, 0, 59, 95
2, 41280, Note_off_c, 0, 40, 95
2, 41280, Note_on_c, 0, 57, 95
2, 42240, Note_off_c, 0, 57, 95
2, 42240, Note_on_c, 0, 55, 95
2, 43200, Note_off_c, 0, 55, 95
2, 43200, Note_on_c, 0, 64, 95
2, 43200, Note_on_c, 0, 45, 95
2, 44160, Note_off_c, 0, 64, 95
2, 44160, Note_off_c, 0, 45, 95
2, 44160, Note_on_c, 0, 62, 95
2, 45120, Note_off_c, 0, 62, 95
2, 45120, Note_on_c, 0, 60, 95
2, 46080, Note_off_c, 0, 60, 95
2, 46080, Note_on_c, 0, 62, 95
2, 46080, Note_on_c, 0, 43, 95
2, 48480, Note_off_c, 0, 62, 95
2, 48480, Note_off_c, 0, 43, 95
2, 48960, Note_on_c, 0, 59, 95
2, 48960, Note_on_c, 0, 40, 95
2, 49920, Note_off_c, 0, 59, 95
2, 49920, Note_off_c, 0, 40, 95
2, 49920, Note_on_c, 0, 60, 95
2, 50880, Note_off_c, 0, 60, 95
2, 50880, Note_on_c, 0, 59, 95
2, 51840, Note_off_c, 0, 59, 95
2, 51840, Note_on_c, 0, 57, 95
2, 51840, Note_on_c, 0, 45, 95
2, 54240, Note_off_c, 0, 57, 95
2, 54240, Note_off_c, 0, 45, 95
2, 54720, Note_on_c, 0, 64, 95
2, 54720, Note_on_c, 0, 45, 95
2, 54960, Note_off_c, 0, 64, 95
2, 54960, Note_off_c, 0, 45, 95
2, 54960, Note_on_c, 0, 60, 95
2, 55200, Note_off_c, 0, 60, 95
2, 55200, Note_on_c, 0, 57, 95
2, 55440, Note_off_c, 0, 57, 95
2, 55440, Note_on_c, 0, 62, 95
2, 55680, Note_off_c, 0, 62, 95
2, 55680, Note_on_c, 0, 57, 95
2, 55920, Note_off_c, 0, 57, 95
2, 55920, Note_on_c, 0, 52, 95
2, 56160, Note_off_c, 0, 52, 95
2, 56160, Note_on_c, 0, 60, 95
2, 56400, Note_off_c, 0, 60, 95
2, 56400, Note_on_c, 0, 57, 95
2, 56640, Note_off_c, 0, 57, 95
2, 56640, Note_on_c, 0, 62, 95
2, 56640, Note_on_c, 0, 43, 95
2, 56880, Note_off_c, 0, 62, 95
2, 56880, Note_off_c, 0, 43, 95
2, 56880, Note_on_c, 0, 55, 95
2, 57120, Note_off_c, 0, 55, 95
2, 57120, Note_on_c, 0, 50, 95
2, 57360, Note_off_c, 0, 50, 95
2, 57360, Note_on_c, 0, 60, 95
2, 57600, Note_off_c, 0, 60, 95
2, 57600, Note_on_c, 0, 55, 95
2, 57840, Note_off_c, 0, 55, 95
2, 57840, Note_on_c, 0, 50, 95
2, 58080, Note_off_c, 0, 50, 95
2, 58080, Note_on_c, 0, 59, 95
2, 58320, Note_off_c, 0, 59, 95
2, 58320, Note_on_c, 0, 55, 95
2, 58560, Note_off_c, 0, 55, 95
2, 58560, Note_on_c, 0, 59, 95
2, 58560, Note_on_c, 0, 40, 95
2, 58800, Note_off_c, 0, 59, 95
2, 58800, Note_off_c, 0, 40, 95
2, 58800, Note_on_c, 0, 55, 95
2, 59040, Note_off_c, 0, 55, 95
2, 59040, Note_on_c, 0, 52, 95
2, 59280, Note_off_c, 0, 52, 95
2, 59280, Note_on_c, 0, 57, 95
2, 59520, Note_off_c, 0, 57, 95
2, 59520, Note_on_c, 0, 55, 95
2, 59760, Note_off_c, 0, 55, 95
2, 59760, Note_on_c, 0, 52, 95
2, 60000, Note_off_c, 0, 52, 95
2, 60000, Note_on_c, 0, 55, 95
2, 60240, Note_off_c, 0, 55, 95
2, 60240, Note_on_c, 0, 52, 95
2, 60480, Note_off_c, 0, 52, 95
2, 60480, Note_on_c, 0, 60, 95
2, 60480, Note_on_c, 0, 45, 95
2, 60720, Note_off_c, 0, 60, 95
2, 60720, Note_off_c, 0, 45, 95
2, 60720, Note_on_c, 0, 57, 95
2, 60960, Note_off_c, 0, 57, 95
2, 60960, Note_on_c, 0, 52, 95
2, 61200, Note_off_c, 0, 52, 95
2, 61200, Note_on_c, 0, 59, 95
2, 61440, Note_off_c, 0, 59, 95
2, 61440, Note_on_c, 0, 57, 95
2, 61680, Note_off_c, 0, 57, 95
2, 61680, Note_on_c, 0, 52, 95
2, 61920, Note_off_c, 0, 52, 95
2, 61920, Note_on_c, 0, 60, 95
2, 62160, Note_off_c, 0, 60, 95
2, 62160, Note_on_c, 0, 57, 95
2, 62400, Note_off_c, 0, 57, 95
2, 62400, Note_on_c, 0, 64, 95
2, 62400, Note_on_c, 0, 45, 95
2, 62640, Note_off_c, 0, 64, 95
2, 62640, Note_off_c, 0, 45, 95
2, 62640, Note_on_c, 0, 60, 95
2, 62880, Note_off_c, 0, 60, 95
2, 62880, Note_on_c, 0, 57, 95
2, 63120, Note_off_c, 0, 57, 95
2, 63120, Note_on_c, 0, 62, 95
2, 63360, Note_off_c, 0, 62, 95
2, 63360, Note_on_c, 0, 57, 95
2, 63600, Note_off_c, 0, 57, 95
2, 63600, Note_on_c, 0, 52, 95
2, 63840, Note_off_c, 0, 52, 95
2, 63840, Note_on_c, 0, 60, 95
2, 64080, Note_off_c, 0, 60, 95
2, 64080, Note_on_c, 0, 57, 95
2, 64320, Note_off_c, 0, 57, 95
2, 64320, Note_on_c, 0, 62, 95
2, 64320, Note_on_c, 0, 43, 95
2, 64560, Note_off_c, 0, 62, 95
2, 64560, Note_off_c, 0, 43, 95
2, 64560, Note_on_c, 0, 55, 95
2, 64800, Note_off_c, 0, 55, 95
2, 64800, Note_on_c, 0, 50, 95
2, 65040, Note_off_c, 0, 50, 95
2, 65040, Note_on_c, 0, 60, 95
2, 65280, Note_off_c, 0, 60, 95
2, 65280, Note_on_c, 0, 55, 95
2, 65520, Note_off_c, 0, 55, 95
2, 65520, Note_on_c, 0, 50, 95
2, 65760, Note_off_c, 0, 50, 95
2, 65760, Note_on_c, 0, 59, 95
2, 66000, Note_off_c, 0, 59, 95
2, 66000, Note_on_c, 0, 55, 95
2, 66240, Note_off_c, 0, 55, 95
2, 66240, Note_on_c, 0, 59, 95
2, 66240, Note_on_c, 0, 40, 95
2, 66480, Note_off_c, 0, 59, 95
2, 66480, Note_off_c, 0, 40, 95
2, 66480, Note_on_c, 0, 55, 95
2, 66720, Note_off_c, 0, 55, 95
2, 66720, Note_on_c, 0, 52, 95
2, 66960, Note_off_c, 0, 52, 95
2, 66960, Note_on_c, 0, 57, 95
2, 67200, Note_off_c, 0, 57, 95
2, 67200, Note_on_c, 0, 55, 95
2, 67440, Note_off_c, 0, 55, 95
2, 67440, Note_on_c, 0, 52, 95
2, 67680, Note_off_c, 0, 52, 95
2, 67680, Note_on_c, 0, 55, 95
2, 67920, Note_off_c, 0, 55, 95
2, 67920, Note_on_c, 0, 52, 95
2, 68160, Note_off_c, 0, 52, 95
2, 68160, Note_on_c, 0, 60, 95
2, 68160, Note_on_c, 0, 45, 95
2, 68400, Note_off_c, 0, 60, 95
2, 68400, Note_off_c, 0, 45, 95
2, 68400, Note_on_c, 0, 57, 95
2, 68640, Note_off_c, 0, 57, 95
2, 68640, Note_on_c, 0, 52, 95
2, 68880, Note_off_c, 0, 52, 95
2, 68880, Note_on_c, 0, 59, 95
2, 69120, Note_off_c, 0, 59, 95
2, 69120, Note_on_c, 0, 57, 95
2, 69360, Note_off_c, 0, 57, 95
2, 69360, Note_on_c, 0, 52, 95
2, 69600, Note_off_c, 0, 52, 95
2, 69600, Note_on_c, 0, 60, 95
2, 69840, Note_off_c, 0, 60, 95
2, 69840, Note_on_c, 0, 57, 95
2, 70080, Note_off_c, 0, 57, 95
2, 70080, Note_on_c, 0, 64, 95
2, 70080, Note_on_c, 0, 45, 95
2, 70320, Note_off_c, 0, 64, 95
2, 70320, Note_off_c, 0, 45, 95
2, 70320, Note_on_c, 0, 60, 95
2, 70560, Note_off_c, 0, 60, 95
2, 70560, Note_on_c, 0, 57, 95
2, 70800, Note_off_c, 0, 57, 95
2, 70800, Note_on_c, 0, 62, 95
2, 71040, Note_off_c, 0, 62, 95
2, 71040, Note_on_c, 0, 57, 95
2, 71280, Note_off_c, 0, 57, 95
2, 71280, Note_on_c, 0, 52, 95
2, 71520, Note_off_c, 0, 52, 95
2, 71520, Note_on_c, 0, 60, 95
2, 71760, Note_off_c, 0, 60, 95
2, 71760, Note_on_c, 0, 57, 95
2, 72000, Note_off_c, 0, 57, 95
2, 72000, Note_on_c, 0, 62, 95
2, 72000, Note_on_c, 0, 43, 95
2, 72240, Note_off_c, 0, 62, 95
2, 72240, Note_off_c, 0, 43, 95
2, 72240, Note_on_c, 0, 55, 95
2, 72480, Note_off_c, 0, 55, 95
2, 72480, Note_on_c, 0, 50, 95
2, 72720, Note_off_c, 0, 50, 95
2, 72720, Note_on_c, 0, 60, 95
2, 72960, Note_off_c, 0, 60, 95
2, 72960, Note_on_c, 0, 55, 95
2, 73200, Note_off_c, 0, 55, 95
2, 73200, Note_on_c, 0, 50, 95
2, 73440, Note_off_c, 0, 50, 95
2, 73440, Note_on_c, 0, 59, 95
2, 73680, Note_off_c, 0, 59, 95
2, 73680, Note_on_c, 0, 55, 95
2, 73920, Note_off_c, 0, 55, 95
2, 73920, Note_on_c, 0, 59, 95
2, 73920, Note_on_c, 0, 40, 95
2, 74160, Note_off_c, 0, 59, 95
2, 74160, Note_off_c, 0, 40, 95
2, 74160, Note_on_c, 0, 55, 95
2, 74400, Note_off_c, 0, 55, 95
2, 74400, Note_on_c, 0, 52, 95
2, 74640, Note_off_c, 0, 52, 95
2, 74640, Note_on_c, 0, 60, 95
2, 74880, Note_off_c, 0, 60, 95
2, 74880, Note_on_c, 0, 55, 95
2, 75120, Note_off_c, 0, 55, 95
2, 75120, Note_on_c, 0, 52, 95
2, 75360, Note_off_c, 0, 52, 95
2, 75360, Note_on_c, 0, 62, 95
2, 75600, Note_off_c, 0, 62, 95
2, 75600, Note_on_c, 0, 52, 95
2, 75840, Note_off_c, 0, 52, 95
2, 75840, Note_on_c, 0, 65, 95
2, 75840, Note_on_c, 0, 50, 95
2, 76080, Note_off_c, 0, 65, 95
2, 76080, Note_off_c, 0, 50, 95
2, 76080, Note_on_c, 0, 62, 95
2, 76320, Note_off_c, 0, 62, 95
2, 76320, Note_on_c, 0, 57, 95
2, 77520, Note_off_c, 0, 57, 95
2, 77520, Note_on_c, 0, 64, 95
2, 77760, Note_off_c, 0, 64, 95
2, 77760, Note_on_c, 0, 64, 95
2, 77760, Note_on_c, 0, 45, 95
2, 78240, Note_off_c, 0, 64, 95
2, 78240, Note_off_c, 0, 45, 95
2, 78240, Note_on_c, 0, 60, 95
2, 78720, Note_off_c, 0, 60, 95
2, 78720, Note_on_c, 0, 62, 95
2, 78720, Note_on_c, 0, 43, 95
2, 79200, Note_off_c, 0, 62, 95
2, 79200, Note_off_c, 0, 43, 95
2, 79200, Note_on_c, 0, 55, 95
2, 79680, Note_off_c, 0, 55, 95
2, 79680, Note_on_c, 0, 60, 95
2, 79680, Note_on_c, 0, 45, 95
2, 80160, Note_off_c, 0, 60, 95
2, 80160, Note_off_c, 0, 45, 95
2, 80160, Note_on_c, 0, 57, 95
2, 80640, Note_off_c, 0, 57, 95
2, 80640, Note_on_c, 0, 59, 95
2, 80640, Note_on_c, 0, 43, 95
2, 81120, Note_off_c, 0, 59, 95
2, 81120, Note_off_c, 0, 43, 95
2, 81120, Note_on_c, 0, 55, 95
2, 81600, Note_off_c, 0, 55, 95
2, 81600, Note_on_c, 0, 64, 95
2, 81600, Note_on_c, 0, 45, 95
2, 81840, Note_off_c, 0, 64, 95
2, 81840, Note_off_c, 0, 45, 95
2, 81840, Note_on_c, 0, 60, 95
2, 82080, Note_off_c, 0, 60, 95
2, 82080, Note_on_c, 0, 57, 95
2, 82320, Note_off_c, 0, 57, 95
2, 82320, Note_on_c, 0, 64, 95
2, 82560, Note_off_c, 0, 64, 95
2, 82560, Note_on_c, 0, 67, 95
2, 82560, Note_on_c, 0, 43, 95
2, 82800, Note_off_c, 0, 67, 95
2, 82800, Note_off_c, 0, 43, 95
2, 82800, Note_on_c, 0, 62, 95
2, 83040, Note_off_c, 0, 62, 95
2, 83040, Note_on_c, 0, 55, 95
2, 83280, Note_off_c, 0, 55, 95
2, 83280, Note_on_c, 0, 67, 95
2, 83520, Note_off_c, 0, 67, 95
2, 83520, Note_on_c, 0, 64, 95
2, 83520, Note_on_c, 0, 45, 95
2, 83760, Note_off_c, 0, 64, 95
2, 83760, Note_off_c, 0, 45, 95
2, 83760, Note_on_c, 0, 60, 95
2, 84000, Note_off_c, 0, 60, 95
2, 84000, Note_on_c, 0, 57, 95
2, 84240, Note_off_c, 0, 57, 95
2, 84240, Note_on_c, 0, 64, 95
2, 84480, Note_off_c, 0, 64, 95
2, 84480, Note_on_c, 0, 67, 95
2, 84480, Note_on_c, 0, 43, 95
2, 84720, Note_off_c, 0, 67, 95
2, 84720, Note_off_c, 0, 43, 95
2, 84720, Note_on_c, 0, 62, 95
2, 84960, Note_off_c, 0, 62, 95
2, 84960, Note_on_c, 0, 55, 95
2, 86400, Note_off_c, 0, 55, 95
2, 86400, Note_on_c, 0, 62, 95
2, 86880, Note_off_c, 0, 62, 95
2, 86880, Note_on_c, 0, 67, 95
2, 86880, Note_on_c, 0, 43, 95
2, 87360, Note_off_c, 0, 67, 95
2, 87360, Note_off_c, 0, 43, 95
2, 87360, Note_on_c, 0, 62, 95
2, 87840, Note_off_c, 0, 62, 95
2, 87840, Note_on_c, 0, 55, 95
2, 88320, Note_off_c, 0, 55, 95
2, 88320, Note_on_c, 0, 64, 95
2, 88320, Note_on_c, 0, 45, 95
2, 88800, Note_off_c, 0, 64, 95
2, 88800, Note_off_c, 0, 45, 95
2, 88800, Note_on_c, 0, 60, 95
2, 89280, Note_off_c, 0, 60, 95
2, 89280, Note_on_c, 0, 57, 95
2, 89760, Note_off_c, 0, 57, 95
2, 89760, Note_on_c, 0, 65, 95
2, 89760, Note_on_c, 0, 50, 95
2, 90480, Note_off_c, 0, 65, 95
2, 90480, Note_off_c, 0, 50, 95
2, 90480, Note_on_c, 0, 62, 95
2, 90720, Note_off_c, 0, 62, 95
2, 90720, Note_on_c, 0, 57, 95
2, 91200, Note_off_c, 0, 57, 95
2, 91200, Note_on_c, 0, 64, 95
2, 91200, Note_on_c, 0, 45, 95
2, 91680, Note_off_c, 0, 64, 95
2, 91680, Note_off_c, 0, 45, 95
2, 91680, Note_on_c, 0, 60, 95
2, 92160, Note_off_c, 0, 60, 95
2, 92160, Note_on_c, 0, 57, 95
2, 92640, Note_off_c, 0, 57, 95
2, 92640, Note_on_c, 0, 65, 95
2, 92640, Note_on_c, 0, 50, 95
2, 93360, Note_off_c, 0, 65, 95
2, 93360, Note_off_c, 0, 50, 95
2, 93360, Note_on_c, 0, 62, 95
2, 93600, Note_off_c, 0, 62, 95
2, 93600, Note_on_c, 0, 57, 95
2, 94080, Note_off_c, 0, 57, 95
2, 94080, Note_on_c, 0, 64, 95
2, 94080, Note_on_c, 0, 45, 95
2, 94560, Note_off_c, 0, 64, 95
2, 94560, Note_off_c, 0, 45, 95
2, 94560, Note_on_c, 0, 60, 95
2, 95040, Note_off_c, 0, 60, 95
2, 95040, Note_on_c, 0, 57, 95
2, 95520, Note_off_c, 0, 57, 95
2, 95520, Note_on_c, 0, 65, 95
2, 95520, Note_on_c, 0, 50, 95
2, 96240, Note_off_c, 0, 65, 95
2, 96240, Note_off_c, 0, 50, 95
2, 96240, Note_on_c, 0, 62, 95
2, 96480, Note_off_c, 0, 62, 95
2, 96480, Note_on_c, 0, 57, 95
2, 96960, Note_off_c, 0, 57, 95
2, 96960, Note_on_c, 0, 60, 95
2, 96960, Note_on_c, 0, 41, 95
2, 97920, Note_off_c, 0, 60, 95
2, 97920, Note_off_c, 0, 41, 95
2, 97920, Note_on_c, 0, 60, 95
2, 98400, Note_off_c, 0, 60, 95
2, 98400, Note_on_c, 0, 62, 95
2, 98400, Note_on_c, 0, 43, 95
2, 99360, Note_off_c, 0, 62, 95
2, 99360, Note_off_c, 0, 43, 95
2, 99360, Note_on_c, 0, 62, 95
2, 99840, Note_off_c, 0, 62, 95
2, 99840, Note_on_c, 0, 65, 95
2, 99840, Note_on_c, 0, 50, 95
2, 100560, Note_off_c, 0, 65, 95
2, 100560, Note_off_c, 0, 50, 95
2, 100560, Note_on_c, 0, 65, 95
2, 100800, Note_off_c, 0, 65, 95
2, 100800, Note_on_c, 0, 62, 95
2, 101040, Note_off_c, 0, 62, 95
2, 101040, Note_on_c, 0, 65, 95
2, 101280, Note_off_c, 0, 65, 95
2, 101280, Note_on_c, 0, 57, 95
2, 102240, Note_off_c, 0, 57, 95
2, 102240, Note_on_c, 0, 65, 95
2, 102480, Note_off_c, 0, 65, 95
2, 102480, Note_on_c, 0, 62, 95
2, 102720, Note_off_c, 0, 62, 95
2, 102720, Note_on_c, 0, 60, 95
2, 102720, Note_on_c, 0, 41, 95
2, 103680, Note_off_c, 0, 60, 95
2, 103680, Note_off_c, 0, 41, 95
2, 103680, Note_on_c, 0, 60, 95
2, 104160, Note_off_c, 0, 60, 95
2, 104160, Note_on_c, 0, 62, 95
2, 104160, Note_on_c, 0, 43, 95
2, 105120, Note_off_c, 0, 62, 95
2, 105120, Note_off_c, 0, 43, 95
2, 105120, Note_on_c, 0, 62, 95
2, 105600, Note_off_c, 0, 62, 95
2, 105600, Note_on_c, 0, 67, 95
2, 105600, Note_on_c, 0, 43, 95
2, 106080, Note_off_c, 0, 67, 95
2, 106080, Note_off_c, 0, 43, 95
2, 106080, Note_on_c, 0, 62, 95
2, 106560, Note_off_c, 0, 62, 95
2, 106560, Note_on_c, 0, 55, 95
2, 107040, Note_off_c, 0, 55, 95
2, 107040, Note_on_c, 0, 64, 95
2, 107040, Note_on_c, 0, 45, 95
2, 107520, Note_off_c, 0, 64, 95
2, 107520, Note_off_c, 0, 45, 95
2, 107520, Note_on_c, 0, 60, 95
2, 108000, Note_off_c, 0, 60, 95
2, 108000, Note_on_c, 0, 57, 95
2, 108480, Note_off_c, 0, 57, 95
2, 108480, Note_on_c, 0, 65, 95
2, 108480, Note_on_c, 0, 50, 95
2, 109200, Note_off_c, 0, 65, 95
2, 109200, Note_off_c, 0, 50, 95
2, 109200, Note_on_c, 0, 62, 95
2, 109440, Note_off_c, 0, 62, 95
2, 109440, Note_on_c, 0, 57, 95
2, 109920, Note_off_c, 0, 57, 95
2, 109920, Note_on_c, 0, 64, 95
2, 109920, Note_on_c, 0, 45, 95
2, 110400, Note_off_c, 0, 64, 95
2, 110400, Note_off_c, 0, 45, 95
2, 110400, Note_on_c, 0, 60, 95
2, 110880, Note_off_c, 0, 60, 95
2, 110880, Note_on_c, 0, 57, 95
2, 111360, Note_off_c, 0, 57, 95
2, 111360, Note_on_c, 0, 65, 95
2, 111360, Note_on_c, 0, 50, 95
2, 112080, Note_off_c, 0, 65, 95
2, 112080, Note_off_c, 0, 50, 95
2, 112080, Note_on_c, 0, 62, 95
2, 112320, Note_off_c, 0, 62, 95
2, 112320, Note_on_c, 0, 57, 95
2, 112800, Note_off_c, 0, 57, 95
2, 112800, Note_on_c, 0, 64, 95
2, 112800, Note_on_c, 0, 45, 95
2, 113280, Note_off_c, 0, 64, 95
2, 113280, Note_off_c, 0, 45, 95
2, 113280, Note_on_c, 0, 60, 95
2, 113760, Note_off_c, 0, 60, 95
2, 113760, Note_on_c, 0, 57, 95
2, 114240, Note_off_c, 0, 57, 95
2, 114240, Note_on_c, 0, 65, 95
2, 114240, Note_on_c, 0, 50, 95
2, 114960, Note_off_c, 0, 65, 95
2, 114960, Note_off_c, 0, 50, 95
2, 114960, Note_on_c, 0, 62, 95
2, 115200, Note_off_c, 0, 62, 95
2, 115200, Note_on_c, 0, 57, 95
2, 115680, Note_off_c, 0, 57, 95
2, 115680, Note_on_c, 0, 60, 95
2, 115680, Note_on_c, 0, 41, 95
2, 116160, Note_off_c, 0, 60, 95
2, 116160, Note_off_c, 0, 41, 95
2, 116160, Note_on_c, 0, 57, 95
2, 116640, Note_off_c, 0, 57, 95
2, 116640, Note_on_c, 0, 53, 95
2, 117120, Note_off_c, 0, 53, 95
2, 117120, Note_on_c, 0, 65, 95
2, 117600, Note_off_c, 0, 65, 95
2, 117600, Note_on_c, 0, 60, 95
2, 118080, Note_off_c, 0, 60, 95
2, 118080, Note_on_c, 0, 64, 95
2, 118560, Note_off_c, 0, 64, 95
2, 118560, Note_on_c, 0, 64, 95
2, 118560, Note_on_c, 0, 45, 95
2, 119040, Note_off_c, 0, 64, 95
2, 119040, Note_off_c, 0, 45, 95
2, 119040, Note_on_c, 0, 62, 95
2, 119520, Note_off_c, 0, 62, 95
2, 119520, Note_on_c, 0, 60, 95
2, 120000, Note_off_c, 0, 60, 95
2, 120000, Note_on_c, 0, 62, 95
2, 120480, Note_off_c, 0, 62, 95
2, 120480, Note_on_c, 0, 59, 95
2, 120480, Note_on_c, 0, 40, 95
2, 122400, Note_off_c, 0, 40, 95
2, 122640, Note_off_c, 0, 59, 95
2, 122640, Note_on_c, 0, 69, 95
2, 122640, Note_on_c, 0, 57, 95
2, 123120, Note_off_c, 0, 69, 95
2, 123120, Note_off_c, 0, 57, 95
2, 123120, Note_on_c, 0, 64, 95
2, 123600, Note_off_c, 0, 64, 95
2, 123600, Note_on_c, 0, 60, 95
2, 124080, Note_off_c, 0, 60, 95
2, 124080, Note_on_c, 0, 69, 95
2, 124560, Note_off_c, 0, 69, 95
2, 124560, Note_on_c, 0, 64, 95
2, 124560, Note_on_c, 0, 57, 95
2, 125040, Note_off_c, 0, 64, 95
2, 125040, Note_off_c, 0, 57, 95
2, 125040, Note_on_c, 0, 60, 95
2, 125520, Note_off_c, 0, 60, 95
2, 125520, Note_on_c, 0, 69, 95
2, 126000, Note_off_c, 0, 69, 95
2, 126000, Note_on_c, 0, 64, 95
2, 126480, Note_off_c, 0, 64, 95
2, 126480, Note_on_c, 0, 65, 95
2, 126480, Note_on_c, 0, 53, 95
2, 126960, Note_off_c, 0, 65, 95
2, 126960, Note_off_c, 0, 53, 95
2, 126960, Note_on_c, 0, 60, 95
2, 127440, Note_off_c, 0, 60, 95
2, 127440, Note_on_c, 0, 57, 95
2, 127920, Note_off_c, 0, 57, 95
2, 127920, Note_on_c, 0, 65, 95
2, 128400, Note_off_c, 0, 65, 95
2, 128400, Note_on_c, 0, 60, 95
2, 128400, Note_on_c, 0, 45, 95
2, 128880, Note_off_c, 0, 60, 95
2, 128880, Note_off_c, 0, 45, 95
2, 128880, Note_on_c, 0, 69, 95
2, 128880, Note_on_c, 0, 57, 95
2, 129360, Note_off_c, 0, 69, 95
2, 129360, Note_off_c, 0, 57, 95
2, 129360, Note_on_c, 0, 64, 95
2, 129840, Note_off_c, 0, 64, 95
2, 129840, Note_on_c, 0, 60, 95
2, 130320, Note_off_c, 0, 60, 95
2, 130320, Note_on_c, 0, 65, 95
2, 130320, Note_on_c, 0, 53, 95
2, 130800, Note_off_c, 0, 65, 95
2, 130800, Note_off_c, 0, 53, 95
2, 130800, Note_on_c, 0, 60, 95
2, 131280, Note_off_c, 0, 60, 95
2, 131280, Note_on_c, 0, 57, 95
2, 131760, Note_off_c, 0, 57, 95
2, 131760, Note_on_c, 0, 65, 95
2, 132240, Note_off_c, 0, 65, 95
2, 132240, Note_on_c, 0, 67, 95
2, 132240, Note_on_c, 0, 60, 95
2, 132240, Note_on_c, 0, 55, 95
2, 132720, Note_off_c, 0, 67, 95
2, 132720, Note_off_c, 0, 60, 95
2, 132720, Note_off_c, 0, 55, 95
2, 132720, Note_on_c, 0, 62, 95
2, 133200, Note_off_c, 0, 62, 95
2, 133200, Note_on_c, 0, 60, 95
2, 133680, Note_off_c, 0, 60, 95
2, 133680, Note_on_c, 0, 65, 95
2, 134160, Note_off_c, 0, 65, 95
2, 134160, Note_on_c, 0, 69, 95
2, 134160, Note_on_c, 0, 57, 95
2, 134640, Note_off_c, 0, 69, 95
2, 134640, Note_off_c, 0, 57, 95
2, 134640, Note_on_c, 0, 64, 95
2, 135120, Note_off_c, 0, 64, 95
2, 135120, Note_on_c, 0, 60, 95
2, 135600, Note_off_c, 0, 60, 95
2, 135600, Note_on_c, 0, 69, 95
2, 136080, Note_off_c, 0, 69, 95
2, 136080, Note_on_c, 0, 64, 95
2, 136080, Note_on_c, 0, 57, 95
2, 136560, Note_off_c, 0, 64, 95
2, 136560, Note_off_c, 0, 57, 95
2, 136560, Note_on_c, 0, 60, 95
2, 137040, Note_off_c, 0, 60, 95
2, 137040, Note_on_c, 0, 69, 95
2, 137520, Note_off_c, 0, 69, 95
2, 137520, Note_on_c, 0, 64, 95
2, 138000, Note_off_c, 0, 64, 95
2, 138000, Note_on_c, 0, 65, 95
2, 138000, Note_on_c, 0, 53, 95
2, 138480, Note_off_c, 0, 65, 95
2, 138480, Note_off_c, 0, 53, 95
2, 138480, Note_on_c, 0, 60, 95
2, 138960, Note_off_c, 0, 60, 95
2, 138960, Note_on_c, 0, 57, 95
2, 139440, Note_off_c, 0, 57, 95
2, 139440, Note_on_c, 0, 65, 95
2, 139920, Note_off_c, 0, 65, 95
2, 139920, Note_on_c, 0, 60, 95
2, 139920, Note_on_c, 0, 45, 95
2, 140400, Note_off_c, 0, 60, 95
2, 140400, Note_off_c, 0, 45, 95
2, 140400, Note_on_c, 0, 69, 95
2, 140400, Note_on_c, 0, 57, 95
2, 140880, Note_off_c, 0, 69, 95
2, 140880, Note_off_c, 0, 57, 95
2, 140880, Note_on_c, 0, 64, 95
2, 141360, Note_off_c, 0, 64, 95
2, 141360, Note_on_c, 0, 60, 95
2, 141360, Note_on_c, 0, 60, 95
2, 141840, Note_off_c, 0, 60, 95
2, 141840, Note_off_c, 0, 60, 95
2, 141840, Note_on_c, 0, 65, 95
2, 141840, Note_on_c, 0, 53, 95
2, 141840, Note_on_c, 0, 53, 95
2, 142320, Note_off_c, 0, 65, 95
2, 142320, Note_off_c, 0, 53, 95
2, 142320, Note_off_c, 0, 53, 95
2, 142320, Note_on_c, 0, 65, 95
2, 142320, Note_on_c, 0, 60, 95
2, 142800, Note_off_c, 0, 65, 95
2, 142800, Note_off_c, 0, 60, 95
2, 142800, Note_on_c, 0, 60, 95
2, 142800, Note_on_c, 0, 57, 95
2, 143280, Note_off_c, 0, 60, 95
2, 143280, Note_off_c, 0, 57, 95
2, 143280, Note_on_c, 0, 65, 95
2, 143280, Note_on_c, 0, 57, 95
2, 143760, Note_off_c, 0, 65, 95
2, 143760, Note_off_c, 0, 57, 95
2, 143760, Note_on_c, 0, 67, 95
2, 143760, Note_on_c, 0, 55, 95
2, 143760, Note_on_c, 0, 60, 95
2, 143760, Note_on_c, 0, 55, 95
2, 144240, Note_off_c, 0, 67, 95
2, 144240, Note_off_c, 0, 55, 95
2, 144240, Note_off_c, 0, 60, 95
2, 144240, Note_off_c, 0, 55, 95
2, 144240, Note_on_c, 0, 67, 95
2, 144240, Note_on_c, 0, 62, 95
2, 144720, Note_off_c, 0, 67, 95
2, 144720, Note_off_c, 0, 62, 95
2, 144720, Note_on_c, 0, 59, 95
2, 144720, Note_on_c, 0, 62, 95
2, 145200, Note_off_c, 0, 59, 95
2, 145200, Note_off_c, 0, 62, 95
2, 145200, Note_on_c, 0, 59, 95
2, 145680, Note_off_c, 0, 59, 95
2, 145680, Note_on_c, 0, 76, 95
2, 145680, Note_on_c, 0, 57, 95
2, 145920, Note_off_c, 0, 76, 95
2, 145920, Note_off_c, 0, 57, 95
2, 145920, Note_on_c, 0, 60, 95
2, 146160, Note_off_c, 0, 60, 95
2, 146160, Note_on_c, 0, 57, 95
2, 146400, Note_off_c, 0, 57, 95
2, 146400, Note_on_c, 0, 64, 95
2, 146640, Note_off_c, 0, 64, 95
2, 146640, Note_on_c, 0, 60, 95
2, 146880, Note_off_c, 0, 60, 95
2, 146880, Note_on_c, 0, 57, 95
2, 147120, Note_off_c, 0, 57, 95
2, 147120, Note_on_c, 0, 64, 95
2, 147360, Note_off_c, 0, 64, 95
2, 147360, Note_on_c, 0, 60, 95
2, 147600, Note_off_c, 0, 60, 95
2, 147600, Note_on_c, 0, 67, 95
2, 147600, Note_on_c, 0, 43, 95
2, 147840, Note_off_c, 0, 67, 95
2, 147840, Note_off_c, 0, 43, 95
2, 147840, Note_on_c, 0, 62, 95
2, 148080, Note_off_c, 0, 62, 95
2, 148080, Note_on_c, 0, 55, 95
2, 148320, Note_off_c, 0, 55, 95
2, 148320, Note_on_c, 0, 67, 95
2, 148560, Note_off_c, 0, 67, 95
2, 148560, Note_on_c, 0, 62, 95
2, 148800, Note_off_c, 0, 62, 95
2, 148800, Note_on_c, 0, 55, 95
2, 149040, Note_off_c, 0, 55, 95
2, 149040, Note_on_c, 0, 67, 95
2, 149280, Note_off_c, 0, 67, 95
2, 149280, Note_on_c, 0, 62, 95
2, 149520, Note_off_c, 0, 62, 95
2, 149520, Note_on_c, 0, 65, 95
2, 149520, Note_on_c, 0, 50, 95
2, 149760, Note_off_c, 0, 65, 95
2, 149760, Note_off_c, 0, 50, 95
2, 149760, Note_on_c, 0, 62, 95
2, 150000, Note_off_c, 0, 62, 95
2, 150000, Note_on_c, 0, 57, 95
2, 150240, Note_off_c, 0, 57, 95
2, 150240, Note_on_c, 0, 65, 95
2, 150480, Note_off_c, 0, 65, 95
2, 150480, Note_on_c, 0, 62, 95
2, 150720, Note_off_c, 0, 62, 95
2, 150720, Note_on_c, 0, 57, 95
2, 150960, Note_off_c, 0, 57, 95
2, 150960, Note_on_c, 0, 65, 95
2, 151200, Note_off_c, 0, 65, 95
2, 151200, Note_on_c, 0, 62, 95
2, 151440, Note_off_c, 0, 62, 95
2, 151440, Note_on_c, 0, 67, 95
2, 151440, Note_on_c, 0, 43, 95
2, 151680, Note_off_c, 0, 67, 95
2, 151680, Note_off_c, 0, 43, 95
2, 151680, Note_on_c, 0, 62, 95
2, 151920, Note_off_c, 0, 62, 95
2, 151920, Note_on_c, 0, 55, 95
2, 152160, Note_off_c, 0, 55, 95
2, 152160, Note_on_c, 0, 67, 95
2, 152400, Note_off_c, 0, 67, 95
2, 152400, Note_on_c, 0, 62, 95
2, 152640, Note_off_c, 0, 62, 95
2, 152640, Note_on_c, 0, 55, 95
2, 152880, Note_off_c, 0, 55, 95
2, 152880, Note_on_c, 0, 67, 95
2, 153120, Note_off_c, 0, 67, 95
2, 153120, Note_on_c, 0, 62, 95
2, 153360, Note_off_c, 0, 62, 95
2, 153360, Note_on_c, 0, 64, 95
2, 153360, Note_on_c, 0, 45, 95
2, 153600, Note_off_c, 0, 64, 95
2, 153600, Note_off_c, 0, 45, 95
2, 153600, Note_on_c, 0, 60, 95
2, 153840, Note_off_c, 0, 60, 95
2, 153840, Note_on_c, 0, 57, 95
2, 154080, Note_off_c, 0, 57, 95
2, 154080, Note_on_c, 0, 64, 95
2, 154320, Note_off_c, 0, 64, 95
2, 154320, Note_on_c, 0, 60, 95
2, 154560, Note_off_c, 0, 60, 95
2, 154560, Note_on_c, 0, 57, 95
2, 154800, Note_off_c, 0, 57, 95
2, 154800, Note_on_c, 0, 64, 95
2, 155040, Note_off_c, 0, 64, 95
2, 155040, Note_on_c, 0, 60, 95
2, 155280, Note_off_c, 0, 60, 95
2, 155280, Note_on_c, 0, 67, 95
2, 155280, Note_on_c, 0, 43, 95
2, 155520, Note_off_c, 0, 67, 95
2, 155520, Note_off_c, 0, 43, 95
2, 155520, Note_on_c, 0, 62, 95
2, 155760, Note_off_c, 0, 62, 95
2, 155760, Note_on_c, 0, 55, 95
2, 156000, Note_off_c, 0, 55, 95
2, 156000, Note_on_c, 0, 67, 95
2, 156240, Note_off_c, 0, 67, 95
2, 156240, Note_on_c, 0, 62, 95
2, 156480, Note_off_c, 0, 62, 95
2, 156480, Note_on_c, 0, 55, 95
2, 156720, Note_off_c, 0, 55, 95
2, 156720, Note_on_c, 0, 67, 95
2, 156960, Note_off_c, 0, 67, 95
2, 156960, Note_on_c, 0, 62, 95
2, 157200, Note_off_c, 0, 62, 95
2, 157200, Note_on_c, 0, 65, 95
2, 157200, Note_on_c, 0, 50, 95
2, 157440, Note_off_c, 0, 65, 95
2, 157440, Note_off_c, 0, 50, 95
2, 157440, Note_on_c, 0, 62, 95
2, 157680, Note_off_c, 0, 62, 95
2, 157680, Note_on_c, 0, 57, 95
2, 157920, Note_off_c, 0, 57, 95
2, 157920, Note_on_c, 0, 65, 95
2, 158160, Note_off_c, 0, 65, 95
2, 158160, Note_on_c, 0, 62, 95
2, 158400, Note_off_c, 0, 62, 95
2, 158400, Note_on_c, 0, 57, 95
2, 158640, Note_off_c, 0, 57, 95
2, 158640, Note_on_c, 0, 65, 95
2, 158880, Note_off_c, 0, 65, 95
2, 158880, Note_on_c, 0, 62, 95
2, 159120, Note_off_c, 0, 62, 95
2, 159120, Note_on_c, 0, 67, 95
2, 159120, Note_on_c, 0, 43, 95
2, 161040, Note_off_c, 0, 43, 95
2, 161280, Note_off_c, 0, 67, 95
2, 161280, Note_on_c, 0, 64, 95
2, 161280, Note_on_c, 0, 45, 95
2, 161520, Note_off_c, 0, 64, 95
2, 161520, Note_off_c, 0, 45, 95
2, 161520, Note_on_c, 0, 60, 95
2, 161760, Note_off_c, 0, 60, 95
2, 161760, Note_on_c, 0, 57, 95
2, 162000, Note_off_c, 0, 57, 95
2, 162000, Note_on_c, 0, 62, 95
2, 162240, Note_off_c, 0, 62, 95
2, 162240, Note_on_c, 0, 57, 95
2, 162480, Note_off_c, 0, 57, 95
2, 162480, Note_on_c, 0, 52, 95
2, 162720, Note_off_c, 0, 52, 95
2, 162720, Note_on_c, 0, 60, 95
2, 162960, Note_off_c, 0, 60, 95
2, 162960, Note_on_c, 0, 57, 95
2, 163200, Note_off_c, 0, 57, 95
2, 163200, Note_on_c, 0, 62, 95
2, 163200, Note_on_c, 0, 43, 95
2, 163440, Note_off_c, 0, 62, 95
2, 163440, Note_off_c, 0, 43, 95
2, 163440, Note_on_c, 0, 55, 95
2, 163680, Note_off_c, 0, 55, 95
2, 163680, Note_on_c, 0, 50, 95
2, 163920, Note_off_c, 0, 50, 95
2, 163920, Note_on_c, 0, 60, 95
2, 164160, Note_off_c, 0, 60, 95
2, 164160, Note_on_c, 0, 55, 95
2, 164400, Note_off_c, 0, 55, 95
2, 164400, Note_on_c, 0, 50, 95
2, 164640, Note_off_c, 0, 50, 95
2, 164640, Note_on_c, 0, 59, 95
2, 164880, Note_off_c, 0, 59, 95
2, 164880, Note_on_c, 0, 55, 95
2, 165120, Note_off_c, 0, 55, 95
2, 165120, Note_on_c, 0, 59, 95
2, 165120, Note_on_c, 0, 40, 95
2, 165360, Note_off_c, 0, 59, 95
2, 165360, Note_off_c, 0, 40, 95
2, 165360, Note_on_c, 0, 55, 95
2, 165600, Note_off_c, 0, 55, 95
2, 165600, Note_on_c, 0, 52, 95
2, 165840, Note_off_c, 0, 52, 95
2, 165840, Note_on_c, 0, 57, 95
2, 166080, Note_off_c, 0, 57, 95
2, 166080, Note_on_c, 0, 55, 95
2, 166320, Note_off_c, 0, 55, 95
2, 166320, Note_on_c, 0, 52, 95
2, 166560, Note_off_c, 0, 52, 95
2, 166560, Note_on_c, 0, 55, 95
2, 166800, Note_off_c, 0, 55, 95
2, 166800, Note_on_c, 0, 52, 95
2, 167040, Note_off_c, 0, 52, 95
2, 167040, Note_on_c, 0, 60, 95
2, 167040, Note_on_c, 0, 45, 95
2, 167280, Note_off_c, 0, 60, 95
2, 167280, Note_off_c, 0, 45, 95
2, 167280, Note_on_c, 0, 57, 95
2, 167520, Note_off_c, 0, 57, 95
2, 167520, Note_on_c, 0, 52, 95
2, 167760, Note_off_c, 0, 52, 95
2, 167760, Note_on_c, 0, 59, 95
2, 168000, Note_off_c, 0, 59, 95
2, 168000, Note_on_c, 0, 57, 95
2, 168240, Note_off_c, 0, 57, 95
2, 168240, Note_on_c, 0, 52, 95
2, 168480, Note_off_c, 0, 52, 95
2, 168480, Note_on_c, 0, 60, 95
2, 168720, Note_off_c, 0, 60, 95
2, 168720, Note_on_c, 0, 57, 95
2, 168960, Note_off_c, 0, 57, 95
2, 168960, Note_on_c, 0, 64, 95
2, 168960, Note_on_c, 0, 45, 95
2, 169200, Note_off_c, 0, 64, 95
2, 169200, Note_off_c, 0, 45, 95
2, 169200, Note_on_c, 0, 60, 95
2, 169440, Note_off_c, 0, 60, 95
2, 169440, Note_on_c, 0, 57, 95
2, 169680, Note_off_c, 0, 57, 95
2, 169680, Note_on_c, 0, 62, 95
2, 169920, Note_off_c, 0, 62, 95
2, 169920, Note_on_c, 0, 57, 95
2, 170160, Note_off_c, 0, 57, 95
2, 170160, Note_on_c, 0, 52, 95
2, 170400, Note_off_c, 0, 52, 95
2, 170400, Note_on_c, 0, 60, 95
2, 170640, Note_off_c, 0, 60, 95
2, 170640, Note_on_c, 0, 57, 95
2, 170880, Note_off_c, 0, 57, 95
2, 170880, Note_on_c, 0, 62, 95
2, 170880, Note_on_c, 0, 43, 95
2, 171120, Note_off_c, 0, 62, 95
2, 171120, Note_off_c, 0, 43, 95
2, 171120, Note_on_c, 0, 55, 95
2, 171360, Note_off_c, 0, 55, 95
2, 171360, Note_on_c, 0, 50, 95
2, 171600, Note_off_c, 0, 50, 95
2, 171600, Note_on_c, 0, 60, 95
2, 171840, Note_off_c, 0, 60, 95
2, 171840, Note_on_c, 0, 55, 95
2, 172080, Note_off_c, 0, 55, 95
2, 172080, Note_on_c, 0, 50, 95
2, 172320, Note_off_c, 0, 50, 95
2, 172320, Note_on_c, 0, 59, 95
2, 172560, Note_off_c, 0, 59, 95
2, 172560, Note_on_c, 0, 55, 95
2, 172800, Note_off_c, 0, 55, 95
2, 172800, Note_on_c, 0, 59, 95
2, 172800, Note_on_c, 0, 40, 95
2, 173040, Note_off_c, 0, 59, 95
2, 173040, Note_off_c, 0, 40, 95
2, 173040, Note_on_c, 0, 55, 95
2, 173280, Note_off_c, 0, 55, 95
2, 173280, Note_on_c, 0, 52, 95
2, 173520, Note_off_c, 0, 52, 95
2, 173520, Note_on_c, 0, 57, 95
2, 173760, Note_off_c, 0, 57, 95
2, 173760, Note_on_c, 0, 55, 95
2, 174000, Note_off_c, 0, 55, 95
2, 174000, Note_on_c, 0, 52, 95
2, 174240, Note_off_c, 0, 52, 95
2, 174240, Note_on_c, 0, 55, 95
2, 174480, Note_off_c, 0, 55, 95
2, 174480, Note_on_c, 0, 52, 95
2, 174720, Note_off_c, 0, 52, 95
2, 174720, Note_on_c, 0, 60, 95
2, 174720, Note_on_c, 0, 45, 95
2, 174960, Note_off_c, 0, 60, 95
2, 174960, Note_off_c, 0, 45, 95
2, 174960, Note_on_c, 0, 57, 95
2, 175200, Note_off_c, 0, 57, 95
2, 175200, Note_on_c, 0, 52, 95
2, 175440, Note_off_c, 0, 52, 95
2, 175440, Note_on_c, 0, 59, 95
2, 175680, Note_off_c, 0, 59, 95
2, 175680, Note_on_c, 0, 57, 95
2, 175920, Note_off_c, 0, 57, 95
2, 175920, Note_on_c, 0, 52, 95
2, 176160, Note_off_c, 0, 52, 95
2, 176160, Note_on_c, 0, 60, 95
2, 176400, Note_off_c, 0, 60, 95
2, 176400, Note_on_c, 0, 57, 95
2, 176640, Note_off_c, 0, 57, 95
2, 176640, Note_on_c, 0, 64, 95
2, 176640, Note_on_c, 0, 45, 95
2, 176880, Note_off_c, 0, 64, 95
2, 176880, Note_off_c, 0, 45, 95
2, 176880, Note_on_c, 0, 60, 95
2, 177120, Note_off_c, 0, 60, 95
2, 177120, Note_on_c, 0, 57, 95
2, 177360, Note_off_c, 0, 57, 95
2, 177360, Note_on_c, 0, 62, 95
2, 177600, Note_off_c, 0, 62, 95
2, 177600, Note_on_c, 0, 57, 95
2, 177840, Note_off_c, 0, 57, 95
2, 177840, Note_on_c, 0, 52, 95
2, 178080, Note_off_c, 0, 52, 95
2, 178080, Note_on_c, 0, 60, 95
2, 178320, Note_off_c, 0, 60, 95
2, 178320, Note_on_c, 0, 57, 95
2, 178560, Note_off_c, 0, 57, 95
2, 178560, Note_on_c, 0, 62, 95
2, 178560, Note_on_c, 0, 43, 95
2, 178800, Note_off_c, 0, 62, 95
2, 178800, Note_off_c, 0, 43, 95
2, 178800, Note_on_c, 0, 55, 95
2, 179040, Note_off_c, 0, 55, 95
2, 179040, Note_on_c, 0, 50, 95
2, 179280, Note_off_c, 0, 50, 95
2, 179280, Note_on_c, 0, 60, 95
2, 179520, Note_off_c, 0, 60, 95
2, 179520, Note_on_c, 0, 55, 95
2, 179760, Note_off_c, 0, 55, 95
2, 179760, Note_on_c, 0, 50, 95
2, 180000, Note_off_c, 0, 50, 95
2, 180000, Note_on_c, 0, 59, 95
2, 180240, Note_off_c, 0, 59, 95
2, 180240, Note_on_c, 0, 55, 95
2, 180480, Note_off_c, 0, 55, 95
2, 180480, Note_on_c, 0, 59, 95
2, 180480, Note_on_c, 0, 40, 95
2, 180720, Note_off_c, 0, 59, 95
2, 180720, Note_off_c, 0, 40, 95
2, 180720, Note_on_c, 0, 55, 95
2, 180960, Note_off_c, 0, 55, 95
2, 180960, Note_on_c, 0, 52, 95
2, 181200, Note_off_c, 0, 52, 95
2, 181200, Note_on_c, 0, 57, 95
2, 181440, Note_off_c, 0, 57, 95
2, 181440, Note_on_c, 0, 55, 95
2, 181680, Note_off_c, 0, 55, 95
2, 181680, Note_on_c, 0, 52, 95
2, 181920, Note_off_c, 0, 52, 95
2, 181920, Note_on_c, 0, 55, 95
2, 182160, Note_off_c, 0, 55, 95
2, 182160, Note_on_c, 0, 52, 95
2, 182400, Note_off_c, 0, 52, 95
2, 182400, Note_on_c, 0, 60, 95
2, 182400, Note_on_c, 0, 45, 95
2, 182640, Note_off_c, 0, 60, 95
2, 182640, Note_off_c, 0, 45, 95
2, 182640, Note_on_c, 0, 57, 95
2, 182880, Note_off_c, 0, 57, 95
2, 182880, Note_on_c, 0, 52, 95
2, 183120, Note_off_c, 0, 52, 95
2, 183120, Note_on_c, 0, 59, 95
2, 183360, Note_off_c, 0, 59, 95
2, 183360, Note_on_c, 0, 57, 95
2, 183600, Note_off_c, 0, 57, 95
2, 183600, Note_on_c, 0, 52, 95
2, 183840, Note_off_c, 0, 52, 95
2, 183840, Note_on_c, 0, 60, 95
2, 184080, Note_off_c, 0, 60, 95
2, 184080, Note_on_c, 0, 57, 95
2, 184320, Note_off_c, 0, 57, 95
2, 184320, Note_on_c, 0, 64, 95
2, 184320, Note_on_c, 0, 45, 95
2, 184560, Note_off_c, 0, 64, 95
2, 184560, Note_off_c, 0, 45, 95
2, 184560, Note_on_c, 0, 60, 95
2, 184800, Note_off_c, 0, 60, 95
2, 184800, Note_on_c, 0, 57, 95
2, 185040, Note_off_c, 0, 57, 95
2, 185040, Note_on_c, 0, 62, 95
2, 185280, Note_off_c, 0, 62, 95
2, 185280, Note_on_c, 0, 57, 95
2, 185520, Note_off_c, 0, 57, 95
2, 185520, Note_on_c, 0, 52, 95
2, 185760, Note_off_c, 0, 52, 95
2, 185760, Note_on_c, 0, 60, 95
2, 186000, Note_off_c, 0, 60, 95
2, 186000, Note_on_c, 0, 57, 95
2, 186240, Note_off_c, 0, 57, 95
2, 186240, Note_on_c, 0, 62, 95
2, 186240, Note_on_c, 0, 43, 95
2, 186480, Note_off_c, 0, 62, 95
2, 186480, Note_off_c, 0, 43, 95
2, 186480, Note_on_c, 0, 55, 95
2, 186720, Note_off_c, 0, 55, 95
2, 186720, Note_on_c, 0, 50, 95
2, 186960, Note_off_c, 0, 50, 95
2, 186960, Note_on_c, 0, 60, 95
2, 187200, Note_off_c, 0, 60, 95
2, 187200, Note_on_c, 0, 55, 95
2, 187440, Note_off_c, 0, 55, 95
2, 187440, Note_on_c, 0, 50, 95
2, 187680, Note_off_c, 0, 50, 95
2, 187680, Note_on_c, 0, 59, 95
2, 187920, Note_off_c, 0, 59, 95
2, 187920, Note_on_c, 0, 55, 95
2, 188160, Note_off_c, 0, 55, 95
2, 188160, Note_on_c, 0, 59, 95
2, 188160, Note_on_c, 0, 40, 95
2, 188400, Note_off_c, 0, 59, 95
2, 188400, Note_off_c, 0, 40, 95
2, 188400, Note_on_c, 0, 55, 95
2, 188640, Note_off_c, 0, 55, 95
2, 188640, Note_on_c, 0, 52, 95
2, 188880, Note_off_c, 0, 52, 95
2, 188880, Note_on_c, 0, 57, 95
2, 189120, Note_off_c, 0, 57, 95
2, 189120, Note_on_c, 0, 55, 95
2, 189360, Note_off_c, 0, 55, 95
2, 189360, Note_on_c, 0, 52, 95
2, 189600, Note_off_c, 0, 52, 95
2, 189600, Note_on_c, 0, 55, 95
2, 189840, Note_off_c, 0, 55, 95
2, 189840, Note_on_c, 0, 52, 95
2, 190080, Note_off_c, 0, 52, 95
2, 190080, Note_on_c, 0, 65, 95
2, 190080, Note_on_c, 0, 50, 95
2, 190320, Note_off_c, 0, 65, 95
2, 190320, Note_off_c, 0, 50, 95
2, 190320, Note_on_c, 0, 62, 95
2, 190560, Note_off_c, 0, 62, 95
2, 190560, Note_on_c, 0, 57, 95
2, 191760, Note_off_c, 0, 57, 95
2, 191760, Note_on_c, 0, 64, 95
2, 192000, Note_off_c, 0, 64, 95
2, 192000, Note_on_c, 0, 64, 95
2, 192000, Note_on_c, 0, 45, 95
2, 192480, Note_off_c, 0, 64, 95
2, 192480, Note_off_c, 0, 45, 95
2, 192480, Note_on_c, 0, 60, 95
2, 192960, Note_off_c, 0, 60, 95
2, 192960, Note_on_c, 0, 62, 95
2, 192960, Note_on_c, 0, 43, 95
2, 193440, Note_off_c, 0, 62, 95
2, 193440, Note_off_c, 0, 43, 95
2, 193440, Note_on_c, 0, 59, 95
2, 193920, Note_off_c, 0, 59, 95
2, 193920, Note_on_c, 0, 60, 95
2, 193920, Note_on_c, 0, 45, 95
2, 194400, Note_off_c, 0, 60, 95
2, 194400, Note_off_c, 0, 45, 95
2, 194400, Note_on_c, 0, 57, 95
2, 194880, Note_off_c, 0, 57, 95
2, 194880, Note_on_c, 0, 59, 95
2, 194880, Note_on_c, 0, 43, 95
2, 195600, Note_off_c, 0, 59, 95
2, 195600, Note_off_c, 0, 43, 95
2, 195840, Note_on_c, 0, 62, 95
2, 196320, Note_off_c, 0, 62, 95
2, 196320, Note_on_c, 0, 67, 95
2, 196320, Note_on_c, 0, 43, 95
2, 196800, Note_off_c, 0, 67, 95
2, 196800, Note_off_c, 0, 43, 95
2, 196800, Note_on_c, 0, 62, 95
2, 197280, Note_off_c, 0, 62, 95
2, 197280, Note_on_c, 0, 55, 95
2, 197760, Note_off_c, 0, 55, 95
2, 197760, Note_on_c, 0, 64, 95
2, 197760, Note_on_c, 0, 45, 95
2, 198240, Note_off_c, 0, 64, 95
2, 198240, Note_off_c, 0, 45, 95
2, 198240, Note_on_c, 0, 60, 95
2, 198720, Note_off_c, 0, 60, 95
2, 198720, Note_on_c, 0, 57, 95
2, 199200, Note_off_c, 0, 57, 95
2, 199200, Note_on_c, 0, 65, 95
2, 199200, Note_on_c, 0, 50, 95
2, 199920, Note_off_c, 0, 65, 95
2, 199920, Note_off_c, 0, 50, 95
2, 199920, Note_on_c, 0, 62, 95
2, 200160, Note_off_c, 0, 62, 95
2, 200160, Note_on_c, 0, 57, 95
2, 200640, Note_off_c, 0, 57, 95
2, 200640, Note_on_c, 0, 64, 95
2, 200640, Note_on_c, 0, 45, 95
2, 201120, Note_off_c, 0, 64, 95
2, 201120, Note_off_c, 0, 45, 95
2, 201120, Note_on_c, 0, 60, 95
2, 201600, Note_off_c, 0, 60, 95
2, 201600, Note_on_c, 0, 57, 95
2, 202080, Note_off_c, 0, 57, 95
2, 202080, Note_on_c, 0, 65, 95
2, 202080, Note_on_c, 0, 50, 95
2, 202800, Note_off_c, 0, 65, 95
2, 202800, Note_off_c, 0, 50, 95
2, 202800, Note_on_c, 0, 62, 95
2, 203040, Note_off_c, 0, 62, 95
2, 203040, Note_on_c, 0, 57, 95
2, 203520, Note_off_c, 0, 57, 95
2, 203520, Note_on_c, 0, 64, 95
2, 203520, Note_on_c, 0, 45, 95
2, 204000, Note_off_c, 0, 64, 95
2, 204000, Note_off_c, 0, 45, 95
2, 204000, Note_on_c, 0, 60, 95
2, 204480, Note_off_c, 0, 60, 95
2, 204480, Note_on_c, 0, 57, 95
2, 204960, Note_off_c, 0, 57, 95
2, 204960, Note_on_c, 0, 65, 95
2, 204960, Note_on_c, 0, 50, 95
2, 205680, Note_off_c, 0, 65, 95
2, 205680, Note_off_c, 0, 50, 95
2, 205680, Note_on_c, 0, 62, 95
2, 205920, Note_off_c, 0, 62, 95
2, 205920, Note_on_c, 0, 57, 95
2, 206400, Note_off_c, 0, 57, 95
2, 206400, Note_on_c, 0, 60, 95
2, 206400, Note_on_c, 0, 41, 95
2, 207360, Note_off_c, 0, 60, 95
2, 207360, Note_off_c, 0, 41, 95
2, 207360, Note_on_c, 0, 60, 95
2, 207840, Note_off_c, 0, 60, 95
2, 207840, Note_on_c, 0, 62, 95
2, 207840, Note_on_c, 0, 43, 95
2, 208800, Note_off_c, 0, 62, 95
2, 208800, Note_off_c, 0, 43, 95
2, 208800, Note_on_c, 0, 62, 95
2, 209280, Note_off_c, 0, 62, 95
2, 209280, Note_on_c, 0, 65, 95
2, 209280, Note_on_c, 0, 50, 95
2, 210000, Note_off_c, 0, 65, 95
2, 210000, Note_off_c, 0, 50, 95
2, 210000, Note_on_c, 0, 65, 95
2, 210240, Note_off_c, 0, 65, 95
2, 210240, Note_on_c, 0, 62, 95
2, 210480, Note_off_c, 0, 62, 95
2, 210480, Note_on_c, 0, 65, 95
2, 210720, Note_off_c, 0, 65, 95
2, 210720, Note_on_c, 0, 57, 95
2, 211680, Note_off_c, 0, 57, 95
2, 211680, Note_on_c, 0, 65, 95
2, 211920, Note_off_c, 0, 65, 95
2, 211920, Note_on_c, 0, 62, 95
2, 212160, Note_off_c, 0, 62, 95
2, 212160, Note_on_c, 0, 60, 95
2, 212160, Note_on_c, 0, 41, 95
2, 213120, Note_off_c, 0, 60, 95
2, 213120, Note_off_c, 0, 41, 95
2, 213120, Note_on_c, 0, 60, 95
2, 213600, Note_off_c, 0, 60, 95
2, 213600, Note_on_c, 0, 62, 95
2, 213600, Note_on_c, 0, 43, 95
2, 214560, Note_off_c, 0, 62, 95
2, 214560, Note_off_c, 0, 43, 95
2, 214560, Note_on_c, 0, 62, 95
2, 215040, Note_off_c, 0, 62, 95
2, 215040, Note_on_c, 0, 67, 95
2, 215040, Note_on_c, 0, 43, 95
2, 215520, Note_off_c, 0, 67, 95
2, 215520, Note_off_c, 0, 43, 95
2, 215520, Note_on_c, 0, 62, 95
2, 216000, Note_off_c, 0, 62, 95
2, 216000, Note_on_c, 0, 55, 95
2, 216480, Note_off_c, 0, 55, 95
2, 216480, Note_on_c, 0, 64, 95
2, 216480, Note_on_c, 0, 45, 95
2, 216960, Note_off_c, 0, 64, 95
2, 216960, Note_off_c, 0, 45, 95
2, 216960, Note_on_c, 0, 60, 95
2, 217440, Note_off_c, 0, 60, 95
2, 217440, Note_on_c, 0, 57, 95
2, 217920, Note_off_c, 0, 57, 95
2, 217920, Note_on_c, 0, 65, 95
2, 217920, Note_on_c, 0, 50, 95
2, 218640, Note_off_c, 0, 65, 95
2, 218640, Note_off_c, 0, 50, 95
2, 218640, Note_on_c, 0, 62, 95
2, 218880, Note_off_c, 0, 62, 95
2, 218880, Note_on_c, 0, 57, 95
2, 219360, Note_off_c, 0, 57, 95
2, 219360, Note_on_c, 0, 64, 95
2, 219360, Note_on_c, 0, 45, 95
2, 219840, Note_off_c, 0, 64, 95
2, 219840, Note_off_c, 0, 45, 95
2, 219840, Note_on_c, 0, 60, 95
2, 220320, Note_off_c, 0, 60, 95
2, 220320, Note_on_c, 0, 57, 95
2, 220800, Note_off_c, 0, 57, 95
2, 220800, Note_on_c, 0, 65, 95
2, 220800, Note_on_c, 0, 50, 95
2, 221520, Note_off_c, 0, 65, 95
2, 221520, Note_off_c, 0, 50, 95
2, 221520, Note_on_c, 0, 62, 95
2, 221760, Note_off_c, 0, 62, 95
2, 221760, Note_on_c, 0, 57, 95
2, 222240, Note_off_c, 0, 57, 95
2, 222240, Note_on_c, 0, 64, 95
2, 222240, Note_on_c, 0, 45, 95
2, 222720, Note_off_c, 0, 64, 95
2, 222720, Note_off_c, 0, 45, 95
2, 222720, Note_on_c, 0, 60, 95
2, 223200, Note_off_c, 0, 60, 95
2, 223200, Note_on_c, 0, 57, 95
2, 223680, Note_off_c, 0, 57, 95
2, 223680, Note_on_c, 0, 65, 95
2, 223680, Note_on_c, 0, 50, 95
2, 224400, Note_off_c, 0, 65, 95
2, 224400, Note_off_c, 0, 50, 95
2, 224400, Note_on_c, 0, 62, 95
2, 224640, Note_off_c, 0, 62, 95
2, 224640, Note_on_c, 0, 57, 95
2, 225120, Note_off_c, 0, 57, 95
2, 225120, Note_on_c, 0, 60, 95
2, 225120, Note_on_c, 0, 41, 95
2, 226080, Note_off_c, 0, 60, 95
2, 226080, Note_off_c, 0, 41, 95
2, 226080, Note_on_c, 0, 60, 95
2, 226560, Note_off_c, 0, 60, 95
2, 226560, Note_on_c, 0, 62, 95
2, 226560, Note_on_c, 0, 43, 95
2, 227520, Note_off_c, 0, 62, 95
2, 227520, Note_off_c, 0, 43, 95
2, 227520, Note_on_c, 0, 62, 95
2, 228000, Note_off_c, 0, 62, 95
2, 228000, Note_on_c, 0, 65, 95
2, 228000, Note_on_c, 0, 50, 95
2, 228720, Note_off_c, 0, 65, 95
2, 228720, Note_off_c, 0, 50, 95
2, 228720, Note_on_c, 0, 65, 95
2, 228960, Note_off_c, 0, 65, 95
2, 228960, Note_on_c, 0, 62, 95
2, 229200, Note_off_c, 0, 62, 95
2, 229200, Note_on_c, 0, 65, 95
2, 229440, Note_off_c, 0, 65, 95
2, 229440, Note_on_c, 0, 57, 95
2, 230400, Note_off_c, 0, 57, 95
2, 230400, Note_on_c, 0, 65, 95
2, 230640, Note_off_c, 0, 65, 95
2, 230640, Note_on_c, 0, 62, 95
2, 230880, Note_off_c, 0, 62, 95
2, 230880, Note_on_c, 0, 60, 95
2, 230880, Note_on_c, 0, 41, 95
2, 231840, Note_off_c, 0, 60, 95
2, 231840, Note_off_c, 0, 41, 95
2, 231840, Note_on_c, 0, 60, 95
2, 232320, Note_off_c, 0, 60, 95
2, 232320, Note_on_c, 0, 62, 95
2, 232320, Note_on_c, 0, 43, 95
2, 233280, Note_off_c, 0, 62, 95
2, 233280, Note_off_c, 0, 43, 95
2, 233280, Note_on_c, 0, 62, 95
2, 233760, Note_off_c, 0, 62, 95
2, 233760, Note_on_c, 0, 64, 95
2, 233760, Note_on_c, 0, 48, 95
2, 234240, Note_off_c, 0, 64, 95
2, 234240, Note_off_c, 0, 48, 95
2, 234240, Note_on_c, 0, 60, 95
2, 234720, Note_off_c, 0, 60, 95
2, 234720, Note_on_c, 0, 55, 95
2, 235200, Note_off_c, 0, 55, 95
2, 235200, Note_on_c, 0, 67, 95
2, 235200, Note_on_c, 0, 43, 95
2, 235680, Note_off_c, 0, 67, 95
2, 235680, Note_off_c, 0, 43, 95
2, 235680, Note_on_c, 0, 62, 95
2, 236160, Note_off_c, 0, 62, 95
2, 236160, Note_on_c, 0, 55, 95
2, 236640, Note_off_c, 0, 55, 95
2, 236640, Note_on_c, 0, 64, 95
2, 236640, Note_on_c, 0, 45, 95
2, 237120, Note_off_c, 0, 64, 95
2, 237120, Note_off_c, 0, 45, 95
2, 237120, Note_on_c, 0, 57, 95
2, 237600, Note_off_c, 0, 57, 95
2, 237600, Note_on_c, 0, 60, 95
2, 238080, Note_off_c, 0, 60, 95
2, 238080, Note_on_c, 0, 59, 95
2, 238320, Note_off_c, 0, 59, 95
2, 238320, Note_on_c, 0, 60, 95
2, 238560, Note_off_c, 0, 60, 95
2, 238560, Note_on_c, 0, 57, 95
2, 239040, Note_off_c, 0, 57, 95
2, 239040, Note_on_c, 0, 45, 95
2, 239520, Note_off_c, 0, 45, 95
2, 239520, Note_on_c, 0, 64, 95
2, 239520, Note_on_c, 0, 48, 95
2, 240000, Note_off_c, 0, 64, 95
2, 240000, Note_off_c, 0, 48, 95
2, 240000, Note_on_c, 0, 60, 95
2, 240480, Note_off_c, 0, 60, 95
2, 240480, Note_on_c, 0, 55, 95
2, 240960, Note_off_c, 0, 55, 95
2, 240960, Note_on_c, 0, 67, 95
2, 240960, Note_on_c, 0, 43, 95
2, 241440, Note_off_c, 0, 67, 95
2, 241440, Note_off_c, 0, 43, 95
2, 241440, Note_on_c, 0, 62, 95
2, 241920, Note_off_c, 0, 62, 95
2, 241920, Note_on_c, 0, 55, 95
2, 242400, Note_off_c, 0, 55, 95
2, 242400, Note_on_c, 0, 64, 95
2, 242400, Note_on_c, 0, 45, 95
2, 242880, Note_off_c, 0, 64, 95
2, 242880, Note_off_c, 0, 45, 95
2, 242880, Note_on_c, 0, 60, 95
2, 243360, Note_off_c, 0, 60, 95
2, 243360, Note_on_c, 0, 57, 95
2, 243840, Note_off_c, 0, 57, 95
2, 243840, Note_on_c, 0, 52, 95
2, 244320, Note_off_c, 0, 52, 95
2, 244320, Note_on_c, 0, 57, 95
2, 244800, Note_off_c, 0, 57, 95
2, 244800, Note_on_c, 0, 60, 95
2, 244800, Note_on_c, 0, 45, 95
2, 245280, Note_off_c, 0, 60, 95
2, 245280, Note_off_c, 0, 45, 95
2, 245280, Note_on_c, 0, 64, 95
2, 245280, Note_on_c, 0, 48, 95
2, 245760, Note_off_c, 0, 64, 95
2, 245760, Note_off_c, 0, 48, 95
2, 245760, Note_on_c, 0, 60, 95
2, 246240, Note_off_c, 0, 60, 95
2, 246240, Note_on_c, 0, 55, 95
2, 246720, Note_off_c, 0, 55, 95
2, 246720, Note_on_c, 0, 67, 95
2, 246720, Note_on_c, 0, 43, 95
2, 247200, Note_off_c, 0, 67, 95
2, 247200, Note_off_c, 0, 43, 95
2, 247200, Note_on_c, 0, 62, 95
2, 247680, Note_off_c, 0, 62, 95
2, 247680, Note_on_c, 0, 55, 95
2, 248160, Note_off_c, 0, 55, 95
2, 248160, Note_on_c, 0, 64, 95
2, 248160, Note_on_c, 0, 45, 95
2, 248640, Note_off_c, 0, 64, 95
2, 248640, Note_off_c, 0, 45, 95
2, 248640, Note_on_c, 0, 60, 95
2, 249120, Note_off_c, 0, 60, 95
2, 249120, Note_on_c, 0, 57, 95
2, 249600, Note_off_c, 0, 57, 95
2, 249600, Note_on_c, 0, 52, 95
2, 250080, Note_off_c, 0, 52, 95
2, 250080, Note_on_c, 0, 57, 95
2, 250560, Note_off_c, 0, 57, 95
2, 250560, Note_on_c, 0, 60, 95
2, 251040, Note_off_c, 0, 60, 95
2, 251040, Note_on_c, 0, 64, 95
2, 251040, Note_on_c, 0, 48, 95
2, 251520, Note_off_c, 0, 64, 95
2, 251520, Note_off_c, 0, 48, 95
2, 251520, Note_on_c, 0, 60, 95
2, 252000, Note_off_c, 0, 60, 95
2, 252000, Note_on_c, 0, 55, 95
2, 252480, Note_off_c, 0, 55, 95
2, 252480, Note_on_c, 0, 67, 95
2, 252480, Note_on_c, 0, 43, 95
2, 252960, Note_off_c, 0, 67, 95
2, 252960, Note_off_c, 0, 43, 95
2, 252960, Note_on_c, 0, 62, 95
2, 253440, Note_off_c, 0, 62, 95
2, 253440, Note_on_c, 0, 55, 95
2, 253920, Note_off_c, 0, 55, 95
2, 253920, Note_on_c, 0, 64, 95
2, 253920, Note_on_c, 0, 45, 95
2, 254400, Note_off_c, 0, 64, 95
2, 254400, Note_off_c, 0, 45, 95
2, 254400, Note_on_c, 0, 57, 95
2, 254880, Note_off_c, 0, 57, 95
2, 254880, Note_on_c, 0, 60, 95
2, 255360, Note_off_c, 0, 60, 95
2, 255360, Note_on_c, 0, 59, 95
2, 255600, Note_off_c, 0, 59, 95
2, 255600, Note_on_c, 0, 60, 95
2, 255840, Note_off_c, 0, 60, 95
2, 255840, Note_on_c, 0, 57, 95
2, 256320, Note_off_c, 0, 57, 95
2, 256320, Note_on_c, 0, 60, 95
2, 256320, Note_on_c, 0, 45, 95
2, 256800, Note_off_c, 0, 60, 95
2, 256800, Note_off_c, 0, 45, 95
2, 256800, Note_on_c, 0, 64, 95
2, 256800, Note_on_c, 0, 48, 95
2, 257280, Note_off_c, 0, 64, 95
2, 257280, Note_off_c, 0, 48, 95
2, 257280, Note_on_c, 0, 60, 95
2, 257760, Note_off_c, 0, 60, 95
2, 257760, Note_on_c, 0, 55, 95
2, 258240, Note_off_c, 0, 55, 95
2, 258240, Note_on_c, 0, 67, 95
2, 258240, Note_on_c, 0, 43, 95
2, 258720, Note_off_c, 0, 67, 95
2, 258720, Note_off_c, 0, 43, 95
2, 258720, Note_on_c, 0, 62, 95
2, 259200, Note_off_c, 0, 62, 95
2, 259200, Note_on_c, 0, 55, 95
2, 259680, Note_off_c, 0, 55, 95
2, 259680, Note_on_c, 0, 64, 95
2, 259680, Note_on_c, 0, 45, 95
2, 260160, Note_off_c, 0, 64, 95
2, 260160, Note_off_c, 0, 45, 95
2, 260160, Note_on_c, 0, 60, 95
2, 260640, Note_off_c, 0, 60, 95
2, 260640, Note_on_c, 0, 57, 95
2, 261120, Note_off_c, 0, 57, 95
2, 261120, Note_on_c, 0, 52, 95
2, 261600, Note_off_c, 0, 52, 95
2, 261600, Note_on_c, 0, 57, 95
2, 262080, Note_off_c, 0, 57, 95
2, 262080, Note_on_c, 0, 60, 95
2, 262560, Note_off_c, 0, 60, 95
2, 262560, Note_on_c, 0, 64, 95
2, 262560, Note_on_c, 0, 48, 95
2, 263040, Note_off_c, 0, 64, 95
2, 263040, Note_off_c, 0, 48, 95
2, 263040, Note_on_c, 0, 60, 95
2, 263520, Note_off_c, 0, 60, 95
2, 263520, Note_on_c, 0, 55, 95
2, 264000, Note_off_c, 0, 55, 95
2, 264000, Note_on_c, 0, 67, 95
2, 264000, Note_on_c, 0, 43, 95
2, 264480, Note_off_c, 0, 67, 95
2, 264480, Note_off_c, 0, 43, 95
2, 264480, Note_on_c, 0, 62, 95
2, 264960, Note_off_c, 0, 62, 95
2, 264960, Note_on_c, 0, 55, 95
2, 265440, Note_off_c, 0, 55, 95
2, 265440, Note_on_c, 0, 64, 95
2, 265440, Note_on_c, 0, 45, 95
2, 265920, Note_off_c, 0, 64, 95
2, 265920, Note_off_c, 0, 45, 95
2, 265920, Note_on_c, 0, 57, 95
2, 266400, Note_off_c, 0, 57, 95
2, 266400, Note_on_c, 0, 60, 95
2, 266880, Note_off_c, 0, 60, 95
2, 266880, Note_on_c, 0, 59, 95
2, 267120, Note_off_c, 0, 59, 95
2, 267120, Note_on_c, 0, 60, 95
2, 267360, Note_off_c, 0, 60, 95
2, 267360, Note_on_c, 0, 57, 95
2, 267840, Note_off_c, 0, 57, 95
2, 267840, Note_on_c, 0, 45, 95
2, 268320, Note_off_c, 0, 45, 95
2, 268320, Note_on_c, 0, 64, 95
2, 268320, Note_on_c, 0, 48, 95
2, 268800, Note_off_c, 0, 64, 95
2, 268800, Note_off_c, 0, 48, 95
2, 268800, Note_on_c, 0, 60, 95
2, 269280, Note_off_c, 0, 60, 95
2, 269280, Note_on_c, 0, 55, 95
2, 269760, Note_off_c, 0, 55, 95
2, 269760, Note_on_c, 0, 67, 95
2, 269760, Note_on_c, 0, 43, 95
2, 270240, Note_off_c, 0, 67, 95
2, 270240, Note_off_c, 0, 43, 95
2, 270240, Note_on_c, 0, 62, 95
2, 270720, Note_off_c, 0, 62, 95
2, 270720, Note_on_c, 0, 55, 95
2, 271200, Note_off_c, 0, 55, 95
2, 271320, Note_on_c, 0, 40, 95
2, 271680, Note_off_c, 0, 40, 95
2, 271680, Note_on_c, 0, 47, 95
2, 272040, Note_off_c, 0, 47, 95
2, 272040, Note_on_c, 0, 52, 95
2, 272280, Note_off_c, 0, 52, 95
2, 272280, Note_on_c, 0, 55, 95
2, 272760, Note_off_c, 0, 55, 95
2, 272760, Note_on_c, 0, 59, 95
2, 273120, Note_off_c, 0, 59, 95
2, 273120, Note_on_c, 0, 64, 95
2, 276480, Note_off_c, 0, 64, 95
2, 276480, End_track
3, 0, Start_track
3, 0, Pitch_bend_c, 1, 8192
3, 0, Control_c, 1, 7, 79
3, 0, Control_c, 1, 10, 63
3, 0, Control_c, 1, 93, 15
3, 0, Control_c, 1, 91, 79
3, 0, Control_c, 1, 95, 0
3, 0, Control_c, 1, 92, 0
3, 0, Control_c, 1, 11, 127
3, 0, Program_c, 1, 25
3, 23040, Note_on_c, 1, 72, 127
3, 24000, Note_off_c, 1, 72, 127
3, 24000, Note_on_c, 1, 74, 127
3, 24480, Note_off_c, 1, 74, 127
3, 24480, Note_on_c, 1, 72, 127
3, 24960, Note_off_c, 1, 72, 127
3, 24960, Note_on_c, 1, 71, 127
3, 25920, Note_off_c, 1, 71, 127
3, 25920, Note_on_c, 1, 71, 127
3, 26880, Note_off_c, 1, 71, 127
3, 26880, Note_on_c, 1, 69, 127
3, 27840, Note_off_c, 1, 69, 127
3, 27840, Note_on_c, 1, 67, 127
3, 28800, Note_off_c, 1, 67, 127
3, 28800, Note_on_c, 1, 67, 127
3, 29760, Note_off_c, 1, 67, 127
3, 29760, Note_on_c, 1, 69, 127
3, 30240, Note_off_c, 1, 69, 127
3, 30240, Note_on_c, 1, 71, 127
3, 30720, Note_off_c, 1, 71, 127
3, 30720, Note_on_c, 1, 72, 127
3, 31680, Note_off_c, 1, 72, 127
3, 31680, Note_on_c, 1, 71, 127
3, 32640, Note_off_c, 1, 71, 127
3, 32640, Note_on_c, 1, 72, 127
3, 33600, Note_off_c, 1, 72, 127
3, 33600, Note_on_c, 1, 74, 127
3, 34560, Note_off_c, 1, 74, 127
3, 34560, Note_on_c, 1, 72, 127
3, 35520, Note_off_c, 1, 72, 127
3, 35520, Note_on_c, 1, 74, 127
3, 36000, Note_off_c, 1, 74, 127
3, 36000, Note_on_c, 1, 72, 127
3, 36480, Note_off_c, 1, 72, 127
3, 36480, Note_on_c, 1, 71, 127
3, 37440, Note_off_c, 1, 71, 127
3, 37440, Note_on_c, 1, 71, 127
3, 38400, Note_off_c, 1, 71, 127
3, 38400, Note_on_c, 1, 69, 127
3, 39360, Note_off_c, 1, 69, 127
3, 39360, Note_on_c, 1, 67, 127
3, 40320, Note_off_c, 1, 67, 127
3, 40320, Note_on_c, 1, 67, 127
3, 41280, Note_off_c, 1, 67, 127
3, 41280, Note_on_c, 1, 69, 127
3, 41760, Note_off_c, 1, 69, 127
3, 41760, Note_on_c, 1, 71, 127
3, 42240, Note_off_c, 1, 71, 127
3, 42240, Note_on_c, 1, 72, 127
3, 43200, Note_off_c, 1, 72, 127
3, 54720, Note_on_c, 1, 64, 127
3, 55440, Note_off_c, 1, 64, 127
3, 55440, Note_on_c, 1, 62, 127
3, 56160, Note_off_c, 1, 62, 127
3, 56160, Note_on_c, 1, 60, 127
3, 56640, Note_off_c, 1, 60, 127
3, 56640, Note_on_c, 1, 62, 127
3, 57360, Note_off_c, 1, 62, 127
3, 57360, Note_on_c, 1, 60, 127
3, 58080, Note_off_c, 1, 60, 127
3, 58080, Note_on_c, 1, 59, 127
3, 58560, Note_off_c, 1, 59, 127
3, 58560, Note_on_c, 1, 59, 127
3, 59280, Note_off_c, 1, 59, 127
3, 59280, Note_on_c, 1, 57, 127
3, 60000, Note_off_c, 1, 57, 127
3, 60000, Note_on_c, 1, 55, 127
3, 60480, Note_off_c, 1, 55, 127
3, 60480, Note_on_c, 1, 57, 127
3, 61200, Note_off_c, 1, 57, 127
3, 61200, Note_on_c, 1, 59, 127
3, 61920, Note_off_c, 1, 59, 127
3, 61920, Note_on_c, 1, 60, 127
3, 62400, Note_off_c, 1, 60, 127
3, 62400, Note_on_c, 1, 76, 127
3, 63120, Note_off_c, 1, 76, 127
3, 63120, Note_on_c, 1, 77, 127
3, 63840, Note_off_c, 1, 77, 127
3, 63840, Note_on_c, 1, 79, 127
3, 64320, Note_off_c, 1, 79, 127
3, 64320, Note_on_c, 1, 72, 127
3, 64440, Note_off_c, 1, 72, 127
3, 64440, Note_on_c, 1, 74, 127
3, 65040, Note_off_c, 1, 74, 127
3, 65040, Note_on_c, 1, 72, 127
3, 65760, Note_off_c, 1, 72, 127
3, 65760, Note_on_c, 1, 71, 127
3, 66240, Note_off_c, 1, 71, 127
3, 66240, Note_on_c, 1, 74, 127
3, 66960, Note_off_c, 1, 74, 127
3, 66960, Note_on_c, 1, 76, 127
3, 67440, Note_off_c, 1, 76, 127
3, 67440, Note_on_c, 1, 71, 127
3, 67680, Note_off_c, 1, 71, 127
3, 67680, Note_on_c, 1, 72, 127
3, 67920, Note_off_c, 1, 72, 127
3, 67920, Note_on_c, 1, 74, 127
3, 68160, Note_off_c, 1, 74, 127
3, 68160, Note_on_c, 1, 76, 127
3, 68400, Note_off_c, 1, 76, 127
3, 68400, Note_on_c, 1, 76, 127
3, 68520, Note_off_c, 1, 76, 127
3, 68520, Note_on_c, 1, 77, 127
3, 68640, Note_off_c, 1, 77, 127
3, 68640, Note_on_c, 1, 76, 127
3, 68760, Note_off_c, 1, 76, 127
3, 68880, Note_on_c, 1, 74, 127
3, 69120, Note_off_c, 1, 74, 127
3, 69120, Note_on_c, 1, 76, 127
3, 70080, Note_off_c, 1, 76, 127
3, 70080, Note_on_c, 1, 76, 127
3, 70800, Note_off_c, 1, 76, 127
3, 70800, Note_on_c, 1, 74, 127
3, 71520, Note_off_c, 1, 74, 127
3, 71520, Note_on_c, 1, 72, 127
3, 72000, Note_off_c, 1, 72, 127
3, 72000, Note_on_c, 1, 72, 127
3, 72120, Note_off_c, 1, 72, 127
3, 72120, Note_on_c, 1, 74, 127
3, 72720, Note_off_c, 1, 74, 127
3, 72720, Note_on_c, 1, 72, 127
3, 73440, Note_off_c, 1, 72, 127
3, 73440, Note_on_c, 1, 71, 127
3, 73920, Note_off_c, 1, 71, 127
3, 73920, Note_on_c, 1, 71, 127
3, 74640, Note_off_c, 1, 71, 127
3, 74640, Note_on_c, 1, 72, 127
3, 75360, Note_off_c, 1, 72, 127
3, 75360, Note_on_c, 1, 74, 127
3, 75840, Note_off_c, 1, 74, 127
3, 75840, Note_on_c, 1, 77, 127
3, 76080, Note_off_c, 1, 77, 127
3, 76080, Note_on_c, 1, 74, 127
3, 76320, Note_off_c, 1, 74, 127
3, 76320, Note_on_c, 1, 69, 127
3, 76800, Note_off_c, 1, 69, 127
3, 81600, Note_on_c, 1, 69, 127
3, 82320, Note_off_c, 1, 69, 127
3, 82320, Note_on_c, 1, 69, 127
3, 82560, Note_off_c, 1, 69, 127
3, 82560, Note_on_c, 1, 67, 127
3, 83280, Note_off_c, 1, 67, 127
3, 83280, Note_on_c, 1, 67, 127
3, 83520, Note_off_c, 1, 67, 127
3, 83520, Note_on_c, 1, 64, 127
3, 84000, Note_off_c, 1, 64, 127
3, 84000, Note_on_c, 1, 60, 127
3, 84480, Note_off_c, 1, 60, 127
3, 84480, Note_on_c, 1, 67, 127
3, 84480, Note_on_c, 1, 62, 127
3, 86400, Note_off_c, 1, 67, 127
3, 86400, Note_off_c, 1, 62, 127
3, 86880, Note_on_c, 1, 74, 127
3, 87360, Note_off_c, 1, 74, 127
3, 87600, Note_on_c, 1, 76, 127
3, 87840, Note_off_c, 1, 76, 127
3, 87840, Note_on_c, 1, 74, 127
3, 88320, Note_off_c, 1, 74, 127
3, 88320, Note_on_c, 1, 76, 95
3, 89160, Note_off_c, 1, 76, 95
3, 89280, Note_on_c, 1, 74, 127
3, 89760, Note_off_c, 1, 74, 127
3, 89760, Note_on_c, 1, 77, 127
3, 90240, Note_off_c, 1, 77, 127
3, 90480, Note_on_c, 1, 76, 127
3, 90720, Note_off_c, 1, 76, 127
3, 90720, Note_on_c, 1, 74, 127
3, 91200, Note_off_c, 1, 74, 127
3, 91200, Note_on_c, 1, 76, 127
3, 92040, Note_off_c, 1, 76, 127
3, 92160, Note_on_c, 1, 74, 127
3, 92640, Note_off_c, 1, 74, 127
3, 92640, Note_on_c, 1, 77, 127
3, 93120, Note_off_c, 1, 77, 127
3, 93360, Note_on_c, 1, 76, 127
3, 93600, Note_off_c, 1, 76, 127
3, 93600, Note_on_c, 1, 74, 127
3, 94080, Note_off_c, 1, 74, 127
3, 94080, Note_on_c, 1, 76, 127
3, 94920, Note_off_c, 1, 76, 127
3, 95040, Note_on_c, 1, 74, 127
3, 95520, Note_off_c, 1, 74, 127
3, 95520, Note_on_c, 1, 77, 127
3, 96480, Note_off_c, 1, 77, 127
3, 96960, Note_on_c, 1, 81, 127
3, 97920, Note_off_c, 1, 81, 127
3, 97920, Note_on_c, 1, 81, 127
3, 98400, Note_off_c, 1, 81, 127
3, 98400, Note_on_c, 1, 79, 127
3, 99360, Note_off_c, 1, 79, 127
3, 99360, Note_on_c, 1, 79, 127
3, 99840, Note_off_c, 1, 79, 127
3, 99840, Note_on_c, 1, 74, 127
3, 100200, Note_off_c, 1, 74, 127
3, 100320, Note_on_c, 1, 72, 127
3, 100560, Note_off_c, 1, 72, 127
3, 100560, Note_on_c, 1, 74, 127
3, 100800, Note_off_c, 1, 74, 127
3, 100800, Note_on_c, 1, 76, 127
3, 101040, Note_off_c, 1, 76, 127
3, 101040, Note_on_c, 1, 77, 127
3, 101280, Note_off_c, 1, 77, 127
3, 101280, Note_on_c, 1, 79, 127
3, 101520, Note_off_c, 1, 79, 127
3, 101520, Note_on_c, 1, 81, 127
3, 101760, Note_off_c, 1, 81, 127
3, 101760, Note_on_c, 1, 79, 127
3, 102000, Note_off_c, 1, 79, 127
3, 102000, Note_on_c, 1, 77, 127
3, 102240, Note_off_c, 1, 77, 127
3, 102240, Note_on_c, 1, 76, 127
3, 102480, Note_off_c, 1, 76, 127
3, 102480, Note_on_c, 1, 74, 127
3, 102720, Note_off_c, 1, 74, 127
3, 102720, Note_on_c, 1, 72, 127
3, 103680, Note_off_c, 1, 72, 127
3, 103680, Note_on_c, 1, 72, 127
3, 104160, Note_off_c, 1, 72, 127
3, 104160, Note_on_c, 1, 74, 127
3, 105120, Note_off_c, 1, 74, 127
3, 105120, Note_on_c, 1, 74, 127
3, 105600, Note_off_c, 1, 74, 127
3, 105600, Note_on_c, 1, 74, 127
3, 106080, Note_off_c, 1, 74, 127
3, 106320, Note_on_c, 1, 76, 127
3, 106560, Note_off_c, 1, 76, 127
3, 106560, Note_on_c, 1, 74, 127
3, 107040, Note_off_c, 1, 74, 127
3, 107040, Note_on_c, 1, 76, 127
3, 107880, Note_off_c, 1, 76, 127
3, 108000, Note_on_c, 1, 74, 127
3, 108480, Note_off_c, 1, 74, 127
3, 108480, Note_on_c, 1, 77, 127
3, 108960, Note_off_c, 1, 77, 127
3, 109200, Note_on_c, 1, 76, 127
3, 109440, Note_off_c, 1, 76, 127
3, 109440, Note_on_c, 1, 74, 127
3, 109920, Note_off_c, 1, 74, 127
3, 109920, Note_on_c, 1, 76, 127
3, 110760, Note_off_c, 1, 76, 127
3, 110880, Note_on_c, 1, 74, 127
3, 111360, Note_off_c, 1, 74, 127
3, 111360, Note_on_c, 1, 77, 127
3, 111840, Note_off_c, 1, 77, 127
3, 112080, Note_on_c, 1, 76, 127
3, 112320, Note_off_c, 1, 76, 127
3, 112320, Note_on_c, 1, 74, 127
3, 112800, Note_off_c, 1, 74, 127
3, 112800, Note_on_c, 1, 76, 127
3, 113640, Note_off_c, 1, 76, 127
3, 113760, Note_on_c, 1, 74, 127
3, 114240, Note_off_c, 1, 74, 127
3, 114240, Note_on_c, 1, 77, 127
3, 115200, Note_off_c, 1, 77, 127
3, 115680, Note_on_c, 1, 79, 127
3, 115800, Note_off_c, 1, 79, 127
3, 115800, Note_on_c, 1, 81, 127
3, 116760, Note_off_c, 1, 81, 127
3, 122640, Note_on_c, 1, 60, 95
3, 122640, Note_on_c, 1, 57, 95
3, 122640, Note_on_c, 1, 45, 95
3, 122880, Note_off_c, 1, 60, 95
3, 122880, Note_off_c, 1, 57, 95
3, 122880, Note_off_c, 1, 45, 95
3, 122880, Note_on_c, 1, 59, 95
3, 123120, Note_off_c, 1, 59, 95
3, 123120, Note_on_c, 1, 57, 95
3, 124080, Note_off_c, 1, 57, 95
3, 124080, Note_on_c, 1, 55, 95
3, 124560, Note_off_c, 1, 55, 95
3, 124560, Note_on_c, 1, 57, 95
3, 125520, Note_off_c, 1, 57, 95
3, 125520, Note_on_c, 1, 52, 95
3, 126480, Note_off_c, 1, 52, 95
3, 126480, Note_on_c, 1, 53, 95
3, 127440, Note_off_c, 1, 53, 95
3, 127440, Note_on_c, 1, 50, 95
3, 128400, Note_off_c, 1, 50, 95
3, 128400, Note_on_c, 1, 52, 95
3, 128640, Note_off_c, 1, 52, 95
3, 128640, Note_on_c, 1, 50, 95
3, 128880, Note_off_c, 1, 50, 95
3, 128880, Note_on_c, 1, 48, 95
3, 129120, Note_off_c, 1, 48, 95
3, 129120, Note_on_c, 1, 47, 95
3, 129360, Note_off_c, 1, 47, 95
3, 129360, Note_on_c, 1, 45, 95
3, 130320, Note_off_c, 1, 45, 95
3, 130320, Note_on_c, 1, 57, 95
3, 130320, Note_on_c, 1, 53, 95
3, 131760, Note_off_c, 1, 57, 95
3, 131760, Note_off_c, 1, 53, 95
3, 131760, Note_on_c, 1, 57, 95
3, 131760, Note_on_c, 1, 53, 95
3, 132120, Note_off_c, 1, 57, 95
3, 132120, Note_off_c, 1, 53, 95
3, 132120, Note_on_c, 1, 53, 95
3, 132120, Note_on_c, 1, 49, 95
3, 132240, Note_off_c, 1, 53, 95
3, 132240, Note_off_c, 1, 49, 95
3, 132240, Note_on_c, 1, 59, 95
3, 132240, Note_on_c, 1, 55, 95
3, 133200, Note_off_c, 1, 59, 95
3, 133200, Note_off_c, 1, 55, 95
3, 133200, Note_on_c, 1, 52, 95
3, 134160, Note_off_c, 1, 52, 95
3, 134160, Note_on_c, 1, 72, 95
3, 134160, Note_on_c, 1, 69, 95
3, 134160, Note_on_c, 1, 45, 95
3, 134400, Note_off_c, 1, 72, 95
3, 134400, Note_off_c, 1, 69, 95
3, 134400, Note_off_c, 1, 45, 95
3, 134400, Note_on_c, 1, 71, 95
3, 134640, Note_off_c, 1, 71, 95
3, 134640, Note_on_c, 1, 69, 95
3, 135600, Note_off_c, 1, 69, 95
3, 135600, Note_on_c, 1, 67, 95
3, 136080, Note_off_c, 1, 67, 95
3, 136080, Note_on_c, 1, 69, 95
3, 137040, Note_off_c, 1, 69, 95
3, 137040, Note_on_c, 1, 64, 95
3, 138000, Note_off_c, 1, 64, 95
3, 138000, Note_on_c, 1, 65, 95
3, 138960, Note_off_c, 1, 65, 95
3, 138960, Note_on_c, 1, 62, 95
3, 139920, Note_off_c, 1, 62, 95
3, 139920, Note_on_c, 1, 64, 95
3, 140160, Note_off_c, 1, 64, 95
3, 140160, Note_on_c, 1, 62, 95
3, 140400, Note_off_c, 1, 62, 95
3, 140400, Note_on_c, 1, 60, 95
3, 140640, Note_off_c, 1, 60, 95
3, 140640, Note_on_c, 1, 59, 95
3, 140880, Note_off_c, 1, 59, 95
3, 140880, Note_on_c, 1, 57, 95
3, 141840, Note_off_c, 1, 57, 95
3, 141840, Note_on_c, 1, 69, 95
3, 141840, Note_on_c, 1, 65, 95
3, 143280, Note_off_c, 1, 69, 95
3, 143280, Note_off_c, 1, 65, 95
3, 143280, Note_on_c, 1, 69, 95
3, 143280, Note_on_c, 1, 65, 95
3, 143640, Note_off_c, 1, 69, 95
3, 143640, Note_off_c, 1, 65, 95
3, 143640, Note_on_c, 1, 65, 95
3, 143640, Note_on_c, 1, 61, 95
3, 143760, Note_off_c, 1, 65, 95
3, 143760, Note_off_c, 1, 61, 95
3, 143760, Note_on_c, 1, 71, 95
3, 143760, Note_on_c, 1, 67, 95
3, 145680, Note_off_c, 1, 71, 95
3, 145680, Note_off_c, 1, 67, 95
3, 145680, Note_on_c, 1, 69, 127
3, 146400, Note_off_c, 1, 69, 127
3, 146400, Note_on_c, 1, 71, 127
3, 147120, Note_off_c, 1, 71, 127
3, 147120, Note_on_c, 1, 72, 127
3, 147600, Note_off_c, 1, 72, 127
3, 147600, Note_on_c, 1, 76, 127
3, 148320, Note_off_c, 1, 76, 127
3, 148320, Note_on_c, 1, 71, 127
3, 149040, Note_off_c, 1, 71, 127
3, 149040, Note_on_c, 1, 67, 127
3, 149520, Note_off_c, 1, 67, 127
3, 149520, Note_on_c, 1, 65, 127
3, 150240, Note_off_c, 1, 65, 127
3, 150240, Note_on_c, 1, 67, 127
3, 150960, Note_off_c, 1, 67, 127
3, 150960, Note_on_c, 1, 69, 127
3, 151440, Note_off_c, 1, 69, 127
3, 151440, Note_on_c, 1, 67, 127
3, 151560, Note_off_c, 1, 67, 127
3, 151560, Note_on_c, 1, 69, 127
3, 151680, Note_off_c, 1, 69, 127
3, 151680, Note_on_c, 1, 67, 127
3, 152160, Note_off_c, 1, 67, 127
3, 152160, Note_on_c, 1, 76, 127
3, 152640, Note_off_c, 1, 76, 127
3, 152640, Note_on_c, 1, 74, 127
3, 152880, Note_off_c, 1, 74, 127
3, 152880, Note_on_c, 1, 72, 127
3, 153120, Note_off_c, 1, 72, 127
3, 153120, Note_on_c, 1, 71, 127
3, 153360, Note_off_c, 1, 71, 127
3, 153360, Note_on_c, 1, 72, 127
3, 154080, Note_off_c, 1, 72, 127
3, 154080, Note_on_c, 1, 74, 127
3, 154800, Note_off_c, 1, 74, 127
3, 154800, Note_on_c, 1, 76, 127
3, 155280, Note_off_c, 1, 76, 127
3, 155280, Note_on_c, 1, 74, 127
3, 156000, Note_off_c, 1, 74, 127
3, 156000, Note_on_c, 1, 79, 127
3, 156480, Note_off_c, 1, 79, 127
3, 156480, Note_on_c, 1, 77, 127
3, 156720, Note_off_c, 1, 77, 127
3, 156720, Note_on_c, 1, 76, 127
3, 156840, Note_off_c, 1, 76, 127
3, 156840, Note_on_c, 1, 77, 127
3, 156960, Note_off_c, 1, 77, 127
3, 156960, Note_on_c, 1, 74, 127
3, 157200, Note_off_c, 1, 74, 127
3, 157200, Note_on_c, 1, 74, 127
3, 157920, Note_off_c, 1, 74, 127
3, 157920, Note_on_c, 1, 77, 127
3, 158640, Note_off_c, 1, 77, 127
3, 158640, Note_on_c, 1, 81, 127
3, 159120, Note_off_c, 1, 81, 127
3, 159120, Note_on_c, 1, 79, 127
3, 161280, Note_off_c, 1, 79, 127
3, 161280, Note_on_c, 1, 64, 127
3, 162000, Note_off_c, 1, 64, 127
3, 162000, Note_on_c, 1, 62, 127
3, 162720, Note_off_c, 1, 62, 127
3, 162720, Note_on_c, 1, 60, 127
3, 163200, Note_off_c, 1, 60, 127
3, 163200, Note_on_c, 1, 62, 127
3, 163920, Note_off_c, 1, 62, 127
3, 163920, Note_on_c, 1, 60, 127
3, 164640, Note_off_c, 1, 60, 127
3, 164640, Note_on_c, 1, 59, 127
3, 165120, Note_off_c, 1, 59, 127
3, 165120, Note_on_c, 1, 59, 127
3, 165840, Note_off_c, 1, 59, 127
3, 165840, Note_on_c, 1, 57, 127
3, 166560, Note_off_c, 1, 57, 127
3, 166560, Note_on_c, 1, 55, 127
3, 167040, Note_off_c, 1, 55, 127
3, 167040, Note_on_c, 1, 57, 127
3, 167760, Note_off_c, 1, 57, 127
3, 167760, Note_on_c, 1, 59, 127
3, 168480, Note_off_c, 1, 59, 127
3, 168480, Note_on_c, 1, 60, 127
3, 168960, Note_off_c, 1, 60, 127
3, 168960, Note_on_c, 1, 64, 127
3, 169680, Note_off_c, 1, 64, 127
3, 169680, Note_on_c, 1, 62, 127
3, 170400, Note_off_c, 1, 62, 127
3, 170400, Note_on_c, 1, 60, 127
3, 170880, Note_off_c, 1, 60, 127
3, 170880, Note_on_c, 1, 62, 127
3, 171600, Note_off_c, 1, 62, 127
3, 171600, Note_on_c, 1, 60, 127
3, 172320, Note_off_c, 1, 60, 127
3, 172320, Note_on_c, 1, 59, 127
3, 172800, Note_off_c, 1, 59, 127
3, 172800, Note_on_c, 1, 59, 127
3, 173520, Note_off_c, 1, 59, 127
3, 173520, Note_on_c, 1, 57, 127
3, 174240, Note_off_c, 1, 57, 127
3, 174240, Note_on_c, 1, 55, 127
3, 174720, Note_off_c, 1, 55, 127
3, 174720, Note_on_c, 1, 57, 127
3, 175440, Note_off_c, 1, 57, 127
3, 175440, Note_on_c, 1, 59, 127
3, 176160, Note_off_c, 1, 59, 127
3, 176160, Note_on_c, 1, 60, 127
3, 176640, Note_off_c, 1, 60, 127
3, 176640, Note_on_c, 1, 76, 127
3, 177360, Note_off_c, 1, 76, 127
3, 177360, Note_on_c, 1, 77, 127
3, 178080, Note_off_c, 1, 77, 127
3, 178080, Note_on_c, 1, 79, 127
3, 178440, Note_off_c, 1, 79, 127
3, 178440, Note_on_c, 1, 72, 127
3, 178560, Note_off_c, 1, 72, 127
3, 178560, Note_on_c, 1, 74, 127
3, 179280, Note_off_c, 1, 74, 127
3, 179280, Note_on_c, 1, 72, 127
3, 180000, Note_off_c, 1, 72, 127
3, 180000, Note_on_c, 1, 71, 127
3, 180480, Note_off_c, 1, 71, 127
3, 180480, Note_on_c, 1, 74, 127
3, 181200, Note_off_c, 1, 74, 127
3, 181200, Note_on_c, 1, 76, 127
3, 181680, Note_off_c, 1, 76, 127
3, 181680, Note_on_c, 1, 71, 127
3, 181920, Note_off_c, 1, 71, 127
3, 181920, Note_on_c, 1, 72, 127
3, 182160, Note_off_c, 1, 72, 127
3, 182160, Note_on_c, 1, 74, 127
3, 182400, Note_off_c, 1, 74, 127
3, 182400, Note_on_c, 1, 76, 127
3, 182640, Note_off_c, 1, 76, 127
3, 182640, Note_on_c, 1, 76, 127
3, 182760, Note_off_c, 1, 76, 127
3, 182760, Note_on_c, 1, 77, 127
3, 182880, Note_off_c, 1, 77, 127
3, 182880, Note_on_c, 1, 76, 127
3, 183000, Note_off_c, 1, 76, 127
3, 183120, Note_on_c, 1, 74, 127
3, 183360, Note_off_c, 1, 74, 127
3, 183360, Note_on_c, 1, 76, 127
3, 184320, Note_off_c, 1, 76, 127
3, 184320, Note_on_c, 1, 76, 127
3, 185040, Note_off_c, 1, 76, 127
3, 185040, Note_on_c, 1, 74, 127
3, 185760, Note_off_c, 1, 74, 127
3, 185760, Note_on_c, 1, 72, 127
3, 186240, Note_off_c, 1, 72, 127
3, 186240, Note_on_c, 1, 74, 127
3, 186960, Note_off_c, 1, 74, 127
3, 186960, Note_on_c, 1, 72, 127
3, 187680, Note_off_c, 1, 72, 127
3, 187680, Note_on_c, 1, 71, 127
3, 188160, Note_off_c, 1, 71, 127
3, 188160, Note_on_c, 1, 71, 127
3, 188880, Note_off_c, 1, 71, 127
3, 188880, Note_on_c, 1, 72, 127
3, 189600, Note_off_c, 1, 72, 127
3, 189600, Note_on_c, 1, 74, 127
3, 189960, Note_off_c, 1, 74, 127
3, 190080, Note_on_c, 1, 77, 127
3, 190320, Note_off_c, 1, 77, 127
3, 190320, Note_on_c, 1, 74, 127
3, 190560, Note_off_c, 1, 74, 127
3, 190560, Note_on_c, 1, 69, 127
3, 191040, Note_off_c, 1, 69, 127
3, 196320, Note_on_c, 1, 74, 127
3, 196800, Note_off_c, 1, 74, 127
3, 197040, Note_on_c, 1, 76, 127
3, 197280, Note_off_c, 1, 76, 127
3, 197280, Note_on_c, 1, 74, 127
3, 197760, Note_off_c, 1, 74, 127
3, 197760, Note_on_c, 1, 76, 95
3, 198600, Note_off_c, 1, 76, 95
3, 198720, Note_on_c, 1, 74, 127
3, 199200, Note_off_c, 1, 74, 127
3, 199200, Note_on_c, 1, 77, 127
3, 199680, Note_off_c, 1, 77, 127
3, 199920, Note_on_c, 1, 76, 127
3, 200160, Note_off_c, 1, 76, 127
3, 200160, Note_on_c, 1, 74, 127
3, 200640, Note_off_c, 1, 74, 127
3, 200640, Note_on_c, 1, 76, 127
3, 201480, Note_off_c, 1, 76, 127
3, 201600, Note_on_c, 1, 74, 127
3, 202080, Note_off_c, 1, 74, 127
3, 202080, Note_on_c, 1, 77, 127
3, 202560, Note_off_c, 1, 77, 127
3, 202800, Note_on_c, 1, 76, 127
3, 203040, Note_off_c, 1, 76, 127
3, 203040, Note_on_c, 1, 74, 127
3, 203520, Note_off_c, 1, 74, 127
3, 203520, Note_on_c, 1, 76, 127
3, 204360, Note_off_c, 1, 76, 127
3, 204480, Note_on_c, 1, 74, 127
3, 204960, Note_off_c, 1, 74, 127
3, 204960, Note_on_c, 1, 77, 127
3, 205920, Note_off_c, 1, 77, 127
3, 206400, Note_on_c, 1, 81, 127
3, 207360, Note_off_c, 1, 81, 127
3, 207360, Note_on_c, 1, 81, 127
3, 207840, Note_off_c, 1, 81, 127
3, 207840, Note_on_c, 1, 79, 127
3, 208800, Note_off_c, 1, 79, 127
3, 208800, Note_on_c, 1, 79, 127
3, 209280, Note_off_c, 1, 79, 127
3, 209280, Note_on_c, 1, 74, 127
3, 209760, Note_off_c, 1, 74, 127
3, 209760, Note_on_c, 1, 72, 95
3, 210000, Note_off_c, 1, 72, 95
3, 210000, Note_on_c, 1, 74, 95
3, 210240, Note_off_c, 1, 74, 95
3, 210240, Note_on_c, 1, 76, 95
3, 210480, Note_off_c, 1, 76, 95
3, 210480, Note_on_c, 1, 77, 95
3, 210720, Note_off_c, 1, 77, 95
3, 210720, Note_on_c, 1, 79, 95
3, 210960, Note_off_c, 1, 79, 95
3, 210960, Note_on_c, 1, 81, 95
3, 211200, Note_off_c, 1, 81, 95
3, 211200, Note_on_c, 1, 79, 95
3, 211440, Note_off_c, 1, 79, 95
3, 211440, Note_on_c, 1, 77, 95
3, 211680, Note_off_c, 1, 77, 95
3, 211680, Note_on_c, 1, 76, 95
3, 211920, Note_off_c, 1, 76, 95
3, 211920, Note_on_c, 1, 74, 95
3, 212160, Note_off_c, 1, 74, 95
3, 212160, Note_on_c, 1, 72, 127
3, 213120, Note_off_c, 1, 72, 127
3, 213120, Note_on_c, 1, 72, 127
3, 213600, Note_off_c, 1, 72, 127
3, 213600, Note_on_c, 1, 74, 127
3, 214560, Note_off_c, 1, 74, 127
3, 214560, Note_on_c, 1, 74, 127
3, 215040, Note_off_c, 1, 74, 127
3, 215040, Note_on_c, 1, 74, 127
3, 215520, Note_off_c, 1, 74, 127
3, 215760, Note_on_c, 1, 76, 127
3, 216000, Note_off_c, 1, 76, 127
3, 216000, Note_on_c, 1, 74, 127
3, 216480, Note_off_c, 1, 74, 127
3, 216480, Note_on_c, 1, 76, 127
3, 217320, Note_off_c, 1, 76, 127
3, 217440, Note_on_c, 1, 74, 127
3, 217920, Note_off_c, 1, 74, 127
3, 217920, Note_on_c, 1, 77, 127
3, 218400, Note_off_c, 1, 77, 127
3, 218640, Note_on_c, 1, 76, 127
3, 218880, Note_off_c, 1, 76, 127
3, 218880, Note_on_c, 1, 74, 127
3, 219360, Note_off_c, 1, 74, 127
3, 219360, Note_on_c, 1, 76, 127
3, 220200, Note_off_c, 1, 76, 127
3, 220320, Note_on_c, 1, 74, 127
3, 220800, Note_off_c, 1, 74, 127
3, 220800, Note_on_c, 1, 77, 127
3, 221280, Note_off_c, 1, 77, 127
3, 221520, Note_on_c, 1, 76, 127
3, 221760, Note_off_c, 1, 76, 127
3, 221760, Note_on_c, 1, 74, 127
3, 222240, Note_off_c, 1, 74, 127
3, 222240, Note_on_c, 1, 76, 127
3, 223080, Note_off_c, 1, 76, 127
3, 223200, Note_on_c, 1, 74, 127
3, 223680, Note_off_c, 1, 74, 127
3, 223680, Note_on_c, 1, 77, 127
3, 224640, Note_off_c, 1, 77, 127
3, 225120, Note_on_c, 1, 81, 127
3, 226080, Note_off_c, 1, 81, 127
3, 226080, Note_on_c, 1, 81, 127
3, 226560, Note_off_c, 1, 81, 127
3, 226560, Note_on_c, 1, 79, 127
3, 227520, Note_off_c, 1, 79, 127
3, 227520, Note_on_c, 1, 79, 127
3, 228000, Note_off_c, 1, 79, 127
3, 228000, Note_on_c, 1, 74, 127
3, 228480, Note_off_c, 1, 74, 127
3, 228480, Note_on_c, 1, 72, 127
3, 228720, Note_off_c, 1, 72, 127
3, 228720, Note_on_c, 1, 74, 127
3, 228960, Note_off_c, 1, 74, 127
3, 228960, Note_on_c, 1, 76, 127
3, 229200, Note_off_c, 1, 76, 127
3, 229200, Note_on_c, 1, 77, 127
3, 229440, Note_off_c, 1, 77, 127
3, 229440, Note_on_c, 1, 79, 127
3, 229680, Note_off_c, 1, 79, 127
3, 229680, Note_on_c, 1, 81, 127
3, 229920, Note_off_c, 1, 81, 127
3, 229920, Note_on_c, 1, 79, 127
3, 230160, Note_off_c, 1, 79, 127
3, 230160, Note_on_c, 1, 77, 127
3, 230400, Note_off_c, 1, 77, 127
3, 230400, Note_on_c, 1, 76, 127
3, 230640, Note_off_c, 1, 76, 127
3, 230640, Note_on_c, 1, 74, 127
3, 230880, Note_off_c, 1, 74, 127
3, 230880, Note_on_c, 1, 72, 127
3, 231840, Note_off_c, 1, 72, 127
3, 231840, Note_on_c, 1, 72, 127
3, 232320, Note_off_c, 1, 72, 127
3, 232320, Note_on_c, 1, 74, 127
3, 233280, Note_off_c, 1, 74, 127
3, 233280, End_track
4, 0, Start_track
4, 0, Pitch_bend_c, 3, 8192
4, 0, Control_c, 3, 7, 63
4, 0, Control_c, 3, 10, 63
4, 0, Control_c, 3, 93, 0
4, 0, Control_c, 3, 91, 31
4, 0, Control_c, 3, 95, 0
4, 0, Control_c, 3, 92, 0
4, 0, Control_c, 3, 11, 127
4, 0, Program_c, 3, 27
4, 0, Note_on_c, 3, 64, 95
4, 0, Note_on_c, 3, 45, 95
4, 960, Note_off_c, 3, 64, 95
4, 960, Note_off_c, 3, 45, 95
4, 960, Note_on_c, 3, 62, 95
4, 1440, Note_off_c, 3, 62, 95
4, 1440, Note_on_c, 3, 60, 95
4, 1920, Note_off_c, 3, 60, 95
4, 1920, Note_on_c, 3, 59, 95
4, 2880, Note_off_c, 3, 59, 95
4, 2880, Note_on_c, 3, 59, 95
4, 2880, Note_on_c, 3, 43, 95
4, 3840, Note_off_c, 3, 59, 95
4, 3840, Note_off_c, 3, 43, 95
4, 3840, Note_on_c, 3, 60, 95
4, 4320, Note_off_c, 3, 60, 95
4, 4320, Note_on_c, 3, 59, 95
4, 4800, Note_off_c, 3, 59, 95
4, 4800, Note_on_c, 3, 55, 95
4, 5760, Note_off_c, 3, 55, 95
4, 5760, Note_on_c, 3, 59, 95
4, 5760, Note_on_c, 3, 40, 95
4, 6720, Note_off_c, 3, 59, 95
4, 6720, Note_off_c, 3, 40, 95
4, 6720, Note_on_c, 3, 57, 95
4, 7680, Note_off_c, 3, 57, 95
4, 7680, Note_on_c, 3, 55, 95
4, 8640, Note_off_c, 3, 55, 95
4, 8640, Note_on_c, 3, 60, 95
4, 8640, Note_on_c, 3, 45, 95
4, 9600, Note_off_c, 3, 60, 95
4, 9600, Note_off_c, 3, 45, 95
4, 9600, Note_on_c, 3, 62, 95
4, 10080, Note_off_c, 3, 62, 95
4, 10080, Note_on_c, 3, 60, 95
4, 10560, Note_off_c, 3, 60, 95
4, 10560, Note_on_c, 3, 59, 95
4, 11040, Note_off_c, 3, 59, 95
4, 11040, Note_on_c, 3, 60, 95
4, 11520, Note_off_c, 3, 60, 95
4, 11520, Note_on_c, 3, 64, 95
4, 11520, Note_on_c, 3, 45, 95
4, 12480, Note_off_c, 3, 64, 95
4, 12480, Note_off_c, 3, 45, 95
4, 12480, Note_on_c, 3, 62, 95
4, 12960, Note_off_c, 3, 62, 95
4, 12960, Note_on_c, 3, 60, 95
4, 13440, Note_off_c, 3, 60, 95
4, 13440, Note_on_c, 3, 59, 95
4, 14400, Note_off_c, 3, 59, 95
4, 14400, Note_on_c, 3, 59, 95
4, 14400, Note_on_c, 3, 43, 95
4, 15360, Note_off_c, 3, 59, 95
4, 15360, Note_off_c, 3, 43, 95
4, 15360, Note_on_c, 3, 60, 95
4, 15840, Note_off_c, 3, 60, 95
4, 15840, Note_on_c, 3, 59, 95
4, 16320, Note_off_c, 3, 59, 95
4, 16320, Note_on_c, 3, 55, 95
4, 17280, Note_off_c, 3, 55, 95
4, 17280, Note_on_c, 3, 59, 95
4, 17280, Note_on_c, 3, 40, 95
4, 18240, Note_off_c, 3, 59, 95
4, 18240, Note_off_c, 3, 40, 95
4, 18240, Note_on_c, 3, 57, 95
4, 19200, Note_off_c, 3, 57, 95
4, 19200, Note_on_c, 3, 55, 95
4, 20160, Note_off_c, 3, 55, 95
4, 20160, Note_on_c, 3, 57, 95
4, 20160, Note_on_c, 3, 45, 95
4, 23040, Note_off_c, 3, 57, 95
4, 23040, Note_off_c, 3, 45, 95
4, 23040, Note_on_c, 3, 64, 95
4, 23040, Note_on_c, 3, 45, 95
4, 24000, Note_off_c, 3, 64, 95
4, 24000, Note_off_c, 3, 45, 95
4, 24000, Note_on_c, 3, 62, 95
4, 24480, Note_off_c, 3, 62, 95
4, 24480, Note_on_c, 3, 60, 95
4, 24960, Note_off_c, 3, 60, 95
4, 24960, Note_on_c, 3, 59, 95
4, 25920, Note_off_c, 3, 59, 95
4, 25920, Note_on_c, 3, 59, 95
4, 25920, Note_on_c, 3, 43, 95
4, 26880, Note_off_c, 3, 59, 95
4, 26880, Note_off_c, 3, 43, 95
4, 26880, Note_on_c, 3, 60, 95
4, 27360, Note_off_c, 3, 60, 95
4, 27360, Note_on_c, 3, 59, 95
4, 27840, Note_off_c, 3, 59, 95
4, 27840, Note_on_c, 3, 55, 95
4, 28800, Note_off_c, 3, 55, 95
4, 28800, Note_on_c, 3, 59, 95
4, 28800, Note_on_c, 3, 40, 95
4, 29760, Note_off_c, 3, 59, 95
4, 29760, Note_off_c, 3, 40, 95
4, 29760, Note_on_c, 3, 57, 95
4, 30720, Note_off_c, 3, 57, 95
4, 30720, Note_on_c, 3, 55, 95
4, 31680, Note_off_c, 3, 55, 95
4, 31680, Note_on_c, 3, 60, 95
4, 31680, Note_on_c, 3, 45, 95
4, 32640, Note_off_c, 3, 60, 95
4, 32640, Note_off_c, 3, 45, 95
4, 32640, Note_on_c, 3, 62, 95
4, 33120, Note_off_c, 3, 62, 95
4, 33120, Note_on_c, 3, 60, 95
4, 33600, Note_off_c, 3, 60, 95
4, 33600, Note_on_c, 3, 59, 95
4, 34080, Note_off_c, 3, 59, 95
4, 34080, Note_on_c, 3, 60, 95
4, 34560, Note_off_c, 3, 60, 95
4, 34560, Note_on_c, 3, 64, 95
4, 34560, Note_on_c, 3, 45, 95
4, 35520, Note_off_c, 3, 64, 95
4, 35520, Note_off_c, 3, 45, 95
4, 35520, Note_on_c, 3, 62, 95
4, 36000, Note_off_c, 3, 62, 95
4, 36000, Note_on_c, 3, 60, 95
4, 36480, Note_off_c, 3, 60, 95
4, 36480, Note_on_c, 3, 59, 95
4, 37440, Note_off_c, 3, 59, 95
4, 37440, Note_on_c, 3, 59, 95
4, 37440, Note_on_c, 3, 43, 95
4, 38400, Note_off_c, 3, 59, 95
4, 38400, Note_off_c, 3, 43, 95
4, 38400, Note_on_c, 3, 60, 95
4, 38880, Note_off_c, 3, 60, 95
4, 38880, Note_on_c, 3, 59, 95
4, 39360, Note_off_c, 3, 59, 95
4, 39360, Note_on_c, 3, 55, 95
4, 40320, Note_off_c, 3, 55, 95
4, 40320, Note_on_c, 3, 59, 95
4, 40320, Note_on_c, 3, 40, 95
4, 41280, Note_off_c, 3, 59, 95
4, 41280, Note_off_c, 3, 40, 95
4, 41280, Note_on_c, 3, 57, 95
4, 42240, Note_off_c, 3, 57, 95
4, 42240, Note_on_c, 3, 55, 95
4, 43200, Note_off_c, 3, 55, 95
4, 43200, Note_on_c, 3, 64, 95
4, 43200, Note_on_c, 3, 45, 95
4, 44160, Note_off_c, 3, 64, 95
4, 44160, Note_off_c, 3, 45, 95
4, 44160, Note_on_c, 3, 62, 95
4, 45120, Note_off_c, 3, 62, 95
4, 45120, Note_on_c, 3, 60, 95
4, 46080, Note_off_c, 3, 60, 95
4, 46080, Note_on_c, 3, 62, 95
4, 46080, Note_on_c, 3, 43, 95
4, 48480, Note_off_c, 3, 62, 95
4, 48480, Note_off_c, 3, 43, 95
4, 48960, Note_on_c, 3, 59, 95
4, 48960, Note_on_c, 3, 40, 95
4, 49920, Note_off_c, 3, 59, 95
4, 49920, Note_off_c, 3, 40, 95
4, 49920, Note_on_c, 3, 60, 95
4, 50880, Note_off_c, 3, 60, 95
4, 50880, Note_on_c, 3, 59, 95
4, 51840, Note_off_c, 3, 59, 95
4, 51840, Note_on_c, 3, 57, 95
4, 51840, Note_on_c, 3, 45, 95
4, 54240, Note_off_c, 3, 57, 95
4, 54240, Note_off_c, 3, 45, 95
4, 54720, Note_on_c, 3, 64, 95
4, 54720, Note_on_c, 3, 45, 95
4, 54960, Note_off_c, 3, 64, 95
4, 54960, Note_off_c, 3, 45, 95
4, 54960, Note_on_c, 3, 60, 95
4, 55200, Note_off_c, 3, 60, 95
4, 55200, Note_on_c, 3, 57, 95
4, 55440, Note_off_c, 3, 57, 95
4, 55440, Note_on_c, 3, 62, 95
4, 55680, Note_off_c, 3, 62, 95
4, 55680, Note_on_c, 3, 57, 95
4, 55920, Note_off_c, 3, 57, 95
4, 55920, Note_on_c, 3, 52, 95
4, 56160, Note_off_c, 3, 52, 95
4, 56160, Note_on_c, 3, 60, 95
4, 56400, Note_off_c, 3, 60, 95
4, 56400, Note_on_c, 3, 57, 95
4, 56640, Note_off_c, 3, 57, 95
4, 56640, Note_on_c, 3, 62, 95
4, 56640, Note_on_c, 3, 43, 95
4, 56880, Note_off_c, 3, 62, 95
4, 56880, Note_off_c, 3, 43, 95
4, 56880, Note_on_c, 3, 55, 95
4, 57120, Note_off_c, 3, 55, 95
4, 57120, Note_on_c, 3, 50, 95
4, 57360, Note_off_c, 3, 50, 95
4, 57360, Note_on_c, 3, 60, 95
4, 57600, Note_off_c, 3, 60, 95
4, 57600, Note_on_c, 3, 55, 95
4, 57840, Note_off_c, 3, 55, 95
4, 57840, Note_on_c, 3, 50, 95
4, 58080, Note_off_c, 3, 50, 95
4, 58080, Note_on_c, 3, 59, 95
4, 58320, Note_off_c, 3, 59, 95
4, 58320, Note_on_c, 3, 55, 95
4, 58560, Note_off_c, 3, 55, 95
4, 58560, Note_on_c, 3, 59, 95
4, 58560, Note_on_c, 3, 40, 95
4, 58800, Note_off_c, 3, 59, 95
4, 58800, Note_off_c, 3, 40, 95
4, 58800, Note_on_c, 3, 55, 95
4, 59040, Note_off_c, 3, 55, 95
4, 59040, Note_on_c, 3, 52, 95
4, 59280, Note_off_c, 3, 52, 95
4, 59280, Note_on_c, 3, 57, 95
4, 59520, Note_off_c, 3, 57, 95
4, 59520, Note_on_c, 3, 55, 95
4, 59760, Note_off_c, 3, 55, 95
4, 59760, Note_on_c, 3, 52, 95
4, 60000, Note_off_c, 3, 52, 95
4, 60000, Note_on_c, 3, 55, 95
4, 60240, Note_off_c, 3, 55, 95
4, 60240, Note_on_c, 3, 52, 95
4, 60480, Note_off_c, 3, 52, 95
4, 60480, Note_on_c, 3, 60, 95
4, 60480, Note_on_c, 3, 45, 95
4, 60720, Note_off_c, 3, 60, 95
4, 60720, Note_off_c, 3, 45, 95
4, 60720, Note_on_c, 3, 57, 95
4, 60960, Note_off_c, 3, 57, 95
4, 60960, Note_on_c, 3, 52, 95
4, 61200, Note_off_c, 3, 52, 95
4, 61200, Note_on_c, 3, 59, 95
4, 61440, Note_off_c, 3, 59, 95
4, 61440, Note_on_c, 3, 57, 95
4, 61680, Note_off_c, 3, 57, 95
4, 61680, Note_on_c, 3, 52, 95
4, 61920, Note_off_c, 3, 52, 95
4, 61920, Note_on_c, 3, 60, 95
4, 62160, Note_off_c, 3, 60, 95
4, 62160, Note_on_c, 3, 57, 95
4, 62400, Note_off_c, 3, 57, 95
4, 62400, Note_on_c, 3, 64, 95
4, 62400, Note_on_c, 3, 45, 95
4, 62640, Note_off_c, 3, 64, 95
4, 62640, Note_off_c, 3, 45, 95
4, 62640, Note_on_c, 3, 60, 95
4, 62880, Note_off_c, 3, 60, 95
4, 62880, Note_on_c, 3, 57, 95
4, 63120, Note_off_c, 3, 57, 95
4, 63120, Note_on_c, 3, 62, 95
4, 63360, Note_off_c, 3, 62, 95
4, 63360, Note_on_c, 3, 57, 95
4, 63600, Note_off_c, 3, 57, 95
4, 63600, Note_on_c, 3, 52, 95
4, 63840, Note_off_c, 3, 52, 95
4, 63840, Note_on_c, 3, 60, 95
4, 64080, Note_off_c, 3, 60, 95
4, 64080, Note_on_c, 3, 57, 95
4, 64320, Note_off_c, 3, 57, 95
4, 64320, Note_on_c, 3, 62, 95
4, 64320, Note_on_c, 3, 43, 95
4, 64560, Note_off_c, 3, 62, 95
4, 64560, Note_off_c, 3, 43, 95
4, 64560, Note_on_c, 3, 55, 95
4, 64800, Note_off_c, 3, 55, 95
4, 64800, Note_on_c, 3, 50, 95
4, 65040, Note_off_c, 3, 50, 95
4, 65040, Note_on_c, 3, 60, 95
4, 65280, Note_off_c, 3, 60, 95
4, 65280, Note_on_c, 3, 55, 95
4, 65520, Note_off_c, 3, 55, 95
4, 65520, Note_on_c, 3, 50, 95
4, 65760, Note_off_c, 3, 50, 95
4, 65760, Note_on_c, 3, 59, 95
4, 66000, Note_off_c, 3, 59, 95
4, 66000, Note_on_c, 3, 55, 95
4, 66240, Note_off_c, 3, 55, 95
4, 66240, Note_on_c, 3, 59, 95
4, 66240, Note_on_c, 3, 40, 95
4, 66480, Note_off_c, 3, 59, 95
4, 66480, Note_off_c, 3, 40, 95
4, 66480, Note_on_c, 3, 55, 95
4, 66720, Note_off_c, 3, 55, 95
4, 66720, Note_on_c, 3, 52, 95
4, 66960, Note_off_c, 3, 52, 95
4, 66960, Note_on_c, 3, 57, 95
4, 67200, Note_off_c, 3, 57, 95
4, 67200, Note_on_c, 3, 55, 95
4, 67440, Note_off_c, 3, 55, 95
4, 67440, Note_on_c, 3, 52, 95
4, 67680, Note_off_c, 3, 52, 95
4, 67680, Note_on_c, 3, 55, 95
4, 67920, Note_off_c, 3, 55, 95
4, 67920, Note_on_c, 3, 52, 95
4, 68160, Note_off_c, 3, 52, 95
4, 68160, Note_on_c, 3, 60, 95
4, 68160, Note_on_c, 3, 45, 95
4, 68400, Note_off_c, 3, 60, 95
4, 68400, Note_off_c, 3, 45, 95
4, 68400, Note_on_c, 3, 57, 95
4, 68640, Note_off_c, 3, 57, 95
4, 68640, Note_on_c, 3, 52, 95
4, 68880, Note_off_c, 3, 52, 95
4, 68880, Note_on_c, 3, 59, 95
4, 69120, Note_off_c, 3, 59, 95
4, 69120, Note_on_c, 3, 57, 95
4, 69360, Note_off_c, 3, 57, 95
4, 69360, Note_on_c, 3, 52, 95
4, 69600, Note_off_c, 3, 52, 95
4, 69600, Note_on_c, 3, 60, 95
4, 69840, Note_off_c, 3, 60, 95
4, 69840, Note_on_c, 3, 57, 95
4, 70080, Note_off_c, 3, 57, 95
4, 70080, Note_on_c, 3, 64, 95
4, 70080, Note_on_c, 3, 45, 95
4, 70320, Note_off_c, 3, 64, 95
4, 70320, Note_off_c, 3, 45, 95
4, 70320, Note_on_c, 3, 60, 95
4, 70560, Note_off_c, 3, 60, 95
4, 70560, Note_on_c, 3, 57, 95
4, 70800, Note_off_c, 3, 57, 95
4, 70800, Note_on_c, 3, 62, 95
4, 71040, Note_off_c, 3, 62, 95
4, 71040, Note_on_c, 3, 57, 95
4, 71280, Note_off_c, 3, 57, 95
4, 71280, Note_on_c, 3, 52, 95
4, 71520, Note_off_c, 3, 52, 95
4, 71520, Note_on_c, 3, 60, 95
4, 71760, Note_off_c, 3, 60, 95
4, 71760, Note_on_c, 3, 57, 95
4, 72000, Note_off_c, 3, 57, 95
4, 72000, Note_on_c, 3, 62, 95
4, 72000, Note_on_c, 3, 43, 95
4, 72240, Note_off_c, 3, 62, 95
4, 72240, Note_off_c, 3, 43, 95
4, 72240, Note_on_c, 3, 55, 95
4, 72480, Note_off_c, 3, 55, 95
4, 72480, Note_on_c, 3, 50, 95
4, 72720, Note_off_c, 3, 50, 95
4, 72720, Note_on_c, 3, 60, 95
4, 72960, Note_off_c, 3, 60, 95
4, 72960, Note_on_c, 3, 55, 95
4, 73200, Note_off_c, 3, 55, 95
4, 73200, Note_on_c, 3, 50, 95
4, 73440, Note_off_c, 3, 50, 95
4, 73440, Note_on_c, 3, 59, 95
4, 73680, Note_off_c, 3, 59, 95
4, 73680, Note_on_c, 3, 55, 95
4, 73920, Note_off_c, 3, 55, 95
4, 73920, Note_on_c, 3, 59, 95
4, 73920, Note_on_c, 3, 40, 95
4, 74160, Note_off_c, 3, 59, 95
4, 74160, Note_off_c, 3, 40, 95
4, 74160, Note_on_c, 3, 55, 95
4, 74400, Note_off_c, 3, 55, 95
4, 74400, Note_on_c, 3, 52, 95
4, 74640, Note_off_c, 3, 52, 95
4, 74640, Note_on_c, 3, 60, 95
4, 74880, Note_off_c, 3, 60, 95
4, 74880, Note_on_c, 3, 55, 95
4, 75120, Note_off_c, 3, 55, 95
4, 75120, Note_on_c, 3, 52, 95
4, 75360, Note_off_c, 3, 52, 95
4, 75360, Note_on_c, 3, 62, 95
4, 75600, Note_off_c, 3, 62, 95
4, 75600, Note_on_c, 3, 52, 95
4, 75840, Note_off_c, 3, 52, 95
4, 75840, Note_on_c, 3, 65, 95
4, 75840, Note_on_c, 3, 50, 95
4, 76080, Note_off_c, 3, 65, 95
4, 76080, Note_off_c, 3, 50, 95
4, 76080, Note_on_c, 3, 62, 95
4, 76320, Note_off_c, 3, 62, 95
4, 76320, Note_on_c, 3, 57, 95
4, 77520, Note_off_c, 3, 57, 95
4, 77520, Note_on_c, 3, 64, 95
4, 77760, Note_off_c, 3, 64, 95
4, 77760, Note_on_c, 3, 64, 95
4, 77760, Note_on_c, 3, 45, 95
4, 78240, Note_off_c, 3, 64, 95
4, 78240, Note_off_c, 3, 45, 95
4, 78240, Note_on_c, 3, 60, 95
4, 78720, Note_off_c, 3, 60, 95
4, 78720, Note_on_c, 3, 62, 95
4, 78720, Note_on_c, 3, 43, 95
4, 79200, Note_off_c, 3, 62, 95
4, 79200, Note_off_c, 3, 43, 95
4, 79200, Note_on_c, 3, 55, 95
4, 79680, Note_off_c, 3, 55, 95
4, 79680, Note_on_c, 3, 60, 95
4, 79680, Note_on_c, 3, 45, 95
4, 80160, Note_off_c, 3, 60, 95
4, 80160, Note_off_c, 3, 45, 95
4, 80160, Note_on_c, 3, 57, 95
4, 80640, Note_off_c, 3, 57, 95
4, 80640, Note_on_c, 3, 59, 95
4, 80640, Note_on_c, 3, 43, 95
4, 81120, Note_off_c, 3, 59, 95
4, 81120, Note_off_c, 3, 43, 95
4, 81120, Note_on_c, 3, 55, 95
4, 81600, Note_off_c, 3, 55, 95
4, 81600, Note_on_c, 3, 64, 95
4, 81600, Note_on_c, 3, 45, 95
4, 81840, Note_off_c, 3, 64, 95
4, 81840, Note_off_c, 3, 45, 95
4, 81840, Note_on_c, 3, 60, 95
4, 82080, Note_off_c, 3, 60, 95
4, 82080, Note_on_c, 3, 57, 95
4, 82320, Note_off_c, 3, 57, 95
4, 82320, Note_on_c, 3, 64, 95
4, 82560, Note_off_c, 3, 64, 95
4, 82560, Note_on_c, 3, 67, 95
4, 82560, Note_on_c, 3, 43, 95
4, 82800, Note_off_c, 3, 67, 95
4, 82800, Note_off_c, 3, 43, 95
4, 82800, Note_on_c, 3, 62, 95
4, 83040, Note_off_c, 3, 62, 95
4, 83040, Note_on_c, 3, 55, 95
4, 83280, Note_off_c, 3, 55, 95
4, 83280, Note_on_c, 3, 67, 95
4, 83520, Note_off_c, 3, 67, 95
4, 83520, Note_on_c, 3, 64, 95
4, 83520, Note_on_c, 3, 45, 95
4, 83760, Note_off_c, 3, 64, 95
4, 83760, Note_off_c, 3, 45, 95
4, 83760, Note_on_c, 3, 60, 95
4, 84000, Note_off_c, 3, 60, 95
4, 84000, Note_on_c, 3, 57, 95
4, 84240, Note_off_c, 3, 57, 95
4, 84240, Note_on_c, 3, 64, 95
4, 84480, Note_off_c, 3, 64, 95
4, 84480, Note_on_c, 3, 67, 95
4, 84480, Note_on_c, 3, 43, 95
4, 84720, Note_off_c, 3, 67, 95
4, 84720, Note_off_c, 3, 43, 95
4, 84720, Note_on_c, 3, 62, 95
4, 84960, Note_off_c, 3, 62, 95
4, 84960, Note_on_c, 3, 55, 95
4, 86400, Note_off_c, 3, 55, 95
4, 86400, Note_on_c, 3, 62, 95
4, 86880, Note_off_c, 3, 62, 95
4, 86880, Note_on_c, 3, 67, 95
4, 86880, Note_on_c, 3, 43, 95
4, 87360, Note_off_c, 3, 67, 95
4, 87360, Note_off_c, 3, 43, 95
4, 87360, Note_on_c, 3, 62, 95
4, 87840, Note_off_c, 3, 62, 95
4, 87840, Note_on_c, 3, 55, 95
4, 88320, Note_off_c, 3, 55, 95
4, 88320, Note_on_c, 3, 64, 95
4, 88320, Note_on_c, 3, 45, 95
4, 88800, Note_off_c, 3, 64, 95
4, 88800, Note_off_c, 3, 45, 95
4, 88800, Note_on_c, 3, 60, 95
4, 89280, Note_off_c, 3, 60, 95
4, 89280, Note_on_c, 3, 57, 95
4, 89760, Note_off_c, 3, 57, 95
4, 89760, Note_on_c, 3, 65, 95
4, 89760, Note_on_c, 3, 50, 95
4, 90480, Note_off_c, 3, 65, 95
4, 90480, Note_off_c, 3, 50, 95
4, 90480, Note_on_c, 3, 62, 95
4, 90720, Note_off_c, 3, 62, 95
4, 90720, Note_on_c, 3, 57, 95
4, 91200, Note_off_c, 3, 57, 95
4, 91200, Note_on_c, 3, 64, 95
4, 91200, Note_on_c, 3, 45, 95
4, 91680, Note_off_c, 3, 64, 95
4, 91680, Note_off_c, 3, 45, 95
4, 91680, Note_on_c, 3, 60, 95
4, 92160, Note_off_c, 3, 60, 95
4, 92160, Note_on_c, 3, 57, 95
4, 92640, Note_off_c, 3, 57, 95
4, 92640, Note_on_c, 3, 65, 95
4, 92640, Note_on_c, 3, 50, 95
4, 93360, Note_off_c, 3, 65, 95
4, 93360, Note_off_c, 3, 50, 95
4, 93360, Note_on_c, 3, 62, 95
4, 93600, Note_off_c, 3, 62, 95
4, 93600, Note_on_c, 3, 57, 95
4, 94080, Note_off_c, 3, 57, 95
4, 94080, Note_on_c, 3, 64, 95
4, 94080, Note_on_c, 3, 45, 95
4, 94560, Note_off_c, 3, 64, 95
4, 94560, Note_off_c, 3, 45, 95
4, 94560, Note_on_c, 3, 60, 95
4, 95040, Note_off_c, 3, 60, 95
4, 95040, Note_on_c, 3, 57, 95
4, 95520, Note_off_c, 3, 57, 95
4, 95520, Note_on_c, 3, 65, 95
4, 95520, Note_on_c, 3, 50, 95
4, 96240, Note_off_c, 3, 65, 95
4, 96240, Note_off_c, 3, 50, 95
4, 96240, Note_on_c, 3, 62, 95
4, 96480, Note_off_c, 3, 62, 95
4, 96480, Note_on_c, 3, 57, 95
4, 96960, Note_off_c, 3, 57, 95
4, 96960, Note_on_c, 3, 60, 95
4, 96960, Note_on_c, 3, 41, 95
4, 97920, Note_off_c, 3, 60, 95
4, 97920, Note_off_c, 3, 41, 95
4, 97920, Note_on_c, 3, 60, 95
4, 98400, Note_off_c, 3, 60, 95
4, 98400, Note_on_c, 3, 62, 95
4, 98400, Note_on_c, 3, 43, 95
4, 99360, Note_off_c, 3, 62, 95
4, 99360, Note_off_c, 3, 43, 95
4, 99360, Note_on_c, 3, 62, 95
4, 99840, Note_off_c, 3, 62, 95
4, 99840, Note_on_c, 3, 65, 95
4, 99840, Note_on_c, 3, 50, 95
4, 100560, Note_off_c, 3, 65, 95
4, 100560, Note_off_c, 3, 50, 95
4, 100560, Note_on_c, 3, 65, 95
4, 100800, Note_off_c, 3, 65, 95
4, 100800, Note_on_c, 3, 62, 95
4, 101040, Note_off_c, 3, 62, 95
4, 101040, Note_on_c, 3, 65, 95
4, 101280, Note_off_c, 3, 65, 95
4, 101280, Note_on_c, 3, 57, 95
4, 102240, Note_off_c, 3, 57, 95
4, 102240, Note_on_c, 3, 65, 95
4, 102480, Note_off_c, 3, 65, 95
4, 102480, Note_on_c, 3, 62, 95
4, 102720, Note_off_c, 3, 62, 95
4, 102720, Note_on_c, 3, 60, 95
4, 102720, Note_on_c, 3, 41, 95
4, 103680, Note_off_c, 3, 60, 95
4, 103680, Note_off_c, 3, 41, 95
4, 103680, Note_on_c, 3, 60, 95
4, 104160, Note_off_c, 3, 60, 95
4, 104160, Note_on_c, 3, 62, 95
4, 104160, Note_on_c, 3, 43, 95
4, 105120, Note_off_c, 3, 62, 95
4, 105120, Note_off_c, 3, 43, 95
4, 105120, Note_on_c, 3, 62, 95
4, 105600, Note_off_c, 3, 62, 95
4, 105600, Note_on_c, 3, 67, 95
4, 105600, Note_on_c, 3, 43, 95
4, 106080, Note_off_c, 3, 67, 95
4, 106080, Note_off_c, 3, 43, 95
4, 106080, Note_on_c, 3, 62, 95
4, 106560, Note_off_c, 3, 62, 95
4, 106560, Note_on_c, 3, 55, 95
4, 107040, Note_off_c, 3, 55, 95
4, 107040, Note_on_c, 3, 64, 95
4, 107040, Note_on_c, 3, 45, 95
4, 107520, Note_off_c, 3, 64, 95
4, 107520, Note_off_c, 3, 45, 95
4, 107520, Note_on_c, 3, 60, 95
4, 108000, Note_off_c, 3, 60, 95
4, 108000, Note_on_c, 3, 57, 95
4, 108480, Note_off_c, 3, 57, 95
4, 108480, Note_on_c, 3, 65, 95
4, 108480, Note_on_c, 3, 50, 95
4, 109200, Note_off_c, 3, 65, 95
4, 109200, Note_off_c, 3, 50, 95
4, 109200, Note_on_c, 3, 62, 95
4, 109440, Note_off_c, 3, 62, 95
4, 109440, Note_on_c, 3, 57, 95
4, 109920, Note_off_c, 3, 57, 95
4, 109920, Note_on_c, 3, 64, 95
4, 109920, Note_on_c, 3, 45, 95
4, 110400, Note_off_c, 3, 64, 95
4, 110400, Note_off_c, 3, 45, 95
4, 110400, Note_on_c, 3, 60, 95
4, 110880, Note_off_c, 3, 60, 95
4, 110880, Note_on_c, 3, 57, 95
4, 111360, Note_off_c, 3, 57, 95
4, 111360, Note_on_c, 3, 65, 95
4, 111360, Note_on_c, 3, 50, 95
4, 112080, Note_off_c, 3, 65, 95
4, 112080, Note_off_c, 3, 50, 95
4, 112080, Note_on_c, 3, 62, 95
4, 112320, Note_off_c, 3, 62, 95
4, 112320, Note_on_c, 3, 57, 95
4, 112800, Note_off_c, 3, 57, 95
4, 112800, Note_on_c, 3, 64, 95
4, 112800, Note_on_c, 3, 45, 95
4, 113280, Note_off_c, 3, 64, 95
4, 113280, Note_off_c, 3, 45, 95
4, 113280, Note_on_c, 3, 60, 95
4, 113760, Note_off_c, 3, 60, 95
4, 113760, Note_on_c, 3, 57, 95
4, 114240, Note_off_c, 3, 57, 95
4, 114240, Note_on_c, 3, 65, 95
4, 114240, Note_on_c, 3, 50, 95
4, 114960, Note_off_c, 3, 65, 95
4, 114960, Note_off_c, 3, 50, 95
4, 114960, Note_on_c, 3, 62, 95
4, 115200, Note_off_c, 3, 62, 95
4, 115200, Note_on_c, 3, 57, 95
4, 115680, Note_off_c, 3, 57, 95
4, 115680, Note_on_c, 3, 60, 95
4, 115680, Note_on_c, 3, 41, 95
4, 116160, Note_off_c, 3, 60, 95
4, 116160, Note_off_c, 3, 41, 95
4, 116160, Note_on_c, 3, 57, 95
4, 116640, Note_off_c, 3, 57, 95
4, 116640, Note_on_c, 3, 53, 95
4, 117120, Note_off_c, 3, 53, 95
4, 117120, Note_on_c, 3, 65, 95
4, 117600, Note_off_c, 3, 65, 95
4, 117600, Note_on_c, 3, 60, 95
4, 118080, Note_off_c, 3, 60, 95
4, 118080, Note_on_c, 3, 64, 95
4, 118560, Note_off_c, 3, 64, 95
4, 118560, Note_on_c, 3, 64, 95
4, 118560, Note_on_c, 3, 45, 95
4, 119040, Note_off_c, 3, 64, 95
4, 119040, Note_off_c, 3, 45, 95
4, 119040, Note_on_c, 3, 62, 95
4, 119520, Note_off_c, 3, 62, 95
4, 119520, Note_on_c, 3, 60, 95
4, 120000, Note_off_c, 3, 60, 95
4, 120000, Note_on_c, 3, 62, 95
4, 120480, Note_off_c, 3, 62, 95
4, 120480, Note_on_c, 3, 59, 95
4, 120480, Note_on_c, 3, 40, 95
4, 122400, Note_off_c, 3, 40, 95
4, 122640, Note_off_c, 3, 59, 95
4, 122640, Note_on_c, 3, 45, 95
4, 124560, Note_off_c, 3, 45, 95
4, 124560, Note_on_c, 3, 40, 95
4, 126480, Note_off_c, 3, 40, 95
4, 126480, Note_on_c, 3, 45, 95
4, 128400, Note_off_c, 3, 45, 95
4, 128400, Note_on_c, 3, 40, 95
4, 130320, Note_off_c, 3, 40, 95
4, 130320, Note_on_c, 3, 41, 95
4, 132240, Note_off_c, 3, 41, 95
4, 132240, Note_on_c, 3, 43, 95
4, 134160, Note_off_c, 3, 43, 95
4, 134160, Note_on_c, 3, 45, 95
4, 136080, Note_off_c, 3, 45, 95
4, 136080, Note_on_c, 3, 40, 95
4, 138000, Note_off_c, 3, 40, 95
4, 138000, Note_on_c, 3, 45, 95
4, 139920, Note_off_c, 3, 45, 95
4, 139920, Note_on_c, 3, 40, 95
4, 141840, Note_off_c, 3, 40, 95
4, 141840, Note_on_c, 3, 41, 95
4, 143760, Note_off_c, 3, 41, 95
4, 143760, Note_on_c, 3, 43, 95
4, 145680, Note_off_c, 3, 43, 95
4, 145680, Note_on_c, 3, 64, 95
4, 145680, Note_on_c, 3, 45, 95
4, 145920, Note_off_c, 3, 64, 95
4, 145920, Note_off_c, 3, 45, 95
4, 145920, Note_on_c, 3, 60, 95
4, 146160, Note_off_c, 3, 60, 95
4, 146160, Note_on_c, 3, 57, 95
4, 146400, Note_off_c, 3, 57, 95
4, 146400, Note_on_c, 3, 64, 95
4, 146640, Note_off_c, 3, 64, 95
4, 146640, Note_on_c, 3, 60, 95
4, 146880, Note_off_c, 3, 60, 95
4, 146880, Note_on_c, 3, 57, 95
4, 147120, Note_off_c, 3, 57, 95
4, 147120, Note_on_c, 3, 64, 95
4, 147360, Note_off_c, 3, 64, 95
4, 147360, Note_on_c, 3, 60, 95
4, 147600, Note_off_c, 3, 60, 95
4, 147600, Note_on_c, 3, 67, 95
4, 147600, Note_on_c, 3, 43, 95
4, 147840, Note_off_c, 3, 67, 95
4, 147840, Note_off_c, 3, 43, 95
4, 147840, Note_on_c, 3, 62, 95
4, 148080, Note_off_c, 3, 62, 95
4, 148080, Note_on_c, 3, 55, 95
4, 148320, Note_off_c, 3, 55, 95
4, 148320, Note_on_c, 3, 67, 95
4, 148560, Note_off_c, 3, 67, 95
4, 148560, Note_on_c, 3, 62, 95
4, 148800, Note_off_c, 3, 62, 95
4, 148800, Note_on_c, 3, 55, 95
4, 149040, Note_off_c, 3, 55, 95
4, 149040, Note_on_c, 3, 67, 95
4, 149280, Note_off_c, 3, 67, 95
4, 149280, Note_on_c, 3, 62, 95
4, 149520, Note_off_c, 3, 62, 95
4, 149520, Note_on_c, 3, 65, 95
4, 149520, Note_on_c, 3, 50, 95
4, 149760, Note_off_c, 3, 65, 95
4, 149760, Note_off_c, 3, 50, 95
4, 149760, Note_on_c, 3, 62, 95
4, 150000, Note_off_c, 3, 62, 95
4, 150000, Note_on_c, 3, 57, 95
4, 150240, Note_off_c, 3, 57, 95
4, 150240, Note_on_c, 3, 65, 95
4, 150480, Note_off_c, 3, 65, 95
4, 150480, Note_on_c, 3, 62, 95
4, 150720, Note_off_c, 3, 62, 95
4, 150720, Note_on_c, 3, 57, 95
4, 150960, Note_off_c, 3, 57, 95
4, 150960, Note_on_c, 3, 65, 95
4, 151200, Note_off_c, 3, 65, 95
4, 151200, Note_on_c, 3, 62, 95
4, 151440, Note_off_c, 3, 62, 95
4, 151440, Note_on_c, 3, 67, 95
4, 151440, Note_on_c, 3, 43, 95
4, 151680, Note_off_c, 3, 67, 95
4, 151680, Note_off_c, 3, 43, 95
4, 151680, Note_on_c, 3, 62, 95
4, 151920, Note_off_c, 3, 62, 95
4, 151920, Note_on_c, 3, 55, 95
4, 152160, Note_off_c, 3, 55, 95
4, 152160, Note_on_c, 3, 67, 95
4, 152400, Note_off_c, 3, 67, 95
4, 152400, Note_on_c, 3, 62, 95
4, 152640, Note_off_c, 3, 62, 95
4, 152640, Note_on_c, 3, 55, 95
4, 152880, Note_off_c, 3, 55, 95
4, 152880, Note_on_c, 3, 67, 95
4, 153120, Note_off_c, 3, 67, 95
4, 153120, Note_on_c, 3, 62, 95
4, 153360, Note_off_c, 3, 62, 95
4, 153360, Note_on_c, 3, 64, 95
4, 153360, Note_on_c, 3, 45, 95
4, 153600, Note_off_c, 3, 64, 95
4, 153600, Note_off_c, 3, 45, 95
4, 153600, Note_on_c, 3, 60, 95
4, 153840, Note_off_c, 3, 60, 95
4, 153840, Note_on_c, 3, 57, 95
4, 154080, Note_off_c, 3, 57, 95
4, 154080, Note_on_c, 3, 64, 95
4, 154320, Note_off_c, 3, 64, 95
4, 154320, Note_on_c, 3, 60, 95
4, 154560, Note_off_c, 3, 60, 95
4, 154560, Note_on_c, 3, 57, 95
4, 154800, Note_off_c, 3, 57, 95
4, 154800, Note_on_c, 3, 64, 95
4, 155040, Note_off_c, 3, 64, 95
4, 155040, Note_on_c, 3, 60, 95
4, 155280, Note_off_c, 3, 60, 95
4, 155280, Note_on_c, 3, 67, 95
4, 155280, Note_on_c, 3, 43, 95
4, 155520, Note_off_c, 3, 67, 95
4, 155520, Note_off_c, 3, 43, 95
4, 155520, Note_on_c, 3, 62, 95
4, 155760, Note_off_c, 3, 62, 95
4, 155760, Note_on_c, 3, 55, 95
4, 156000, Note_off_c, 3, 55, 95
4, 156000, Note_on_c, 3, 67, 95
4, 156240, Note_off_c, 3, 67, 95
4, 156240, Note_on_c, 3, 62, 95
4, 156480, Note_off_c, 3, 62, 95
4, 156480, Note_on_c, 3, 55, 95
4, 156720, Note_off_c, 3, 55, 95
4, 156720, Note_on_c, 3, 67, 95
4, 156960, Note_off_c, 3, 67, 95
4, 156960, Note_on_c, 3, 62, 95
4, 157200, Note_off_c, 3, 62, 95
4, 157200, Note_on_c, 3, 65, 95
4, 157200, Note_on_c, 3, 50, 95
4, 157440, Note_off_c, 3, 65, 95
4, 157440, Note_off_c, 3, 50, 95
4, 157440, Note_on_c, 3, 62, 95
4, 157680, Note_off_c, 3, 62, 95
4, 157680, Note_on_c, 3, 57, 95
4, 157920, Note_off_c, 3, 57, 95
4, 157920, Note_on_c, 3, 65, 95
4, 158160, Note_off_c, 3, 65, 95
4, 158160, Note_on_c, 3, 62, 95
4, 158400, Note_off_c, 3, 62, 95
4, 158400, Note_on_c, 3, 57, 95
4, 158640, Note_off_c, 3, 57, 95
4, 158640, Note_on_c, 3, 65, 95
4, 158880, Note_off_c, 3, 65, 95
4, 158880, Note_on_c, 3, 62, 95
4, 159120, Note_off_c, 3, 62, 95
4, 159120, Note_on_c, 3, 67, 95
4, 159120, Note_on_c, 3, 43, 95
4, 161040, Note_off_c, 3, 43, 95
4, 161280, Note_off_c, 3, 67, 95
4, 161280, Note_on_c, 3, 64, 95
4, 161280, Note_on_c, 3, 45, 95
4, 161520, Note_off_c, 3, 64, 95
4, 161520, Note_off_c, 3, 45, 95
4, 161520, Note_on_c, 3, 60, 95
4, 161760, Note_off_c, 3, 60, 95
4, 161760, Note_on_c, 3, 57, 95
4, 162000, Note_off_c, 3, 57, 95
4, 162000, Note_on_c, 3, 62, 95
4, 162240, Note_off_c, 3, 62, 95
4, 162240, Note_on_c, 3, 57, 95
4, 162480, Note_off_c, 3, 57, 95
4, 162480, Note_on_c, 3, 52, 95
4, 162720, Note_off_c, 3, 52, 95
4, 162720, Note_on_c, 3, 60, 95
4, 162960, Note_off_c, 3, 60, 95
4, 162960, Note_on_c, 3, 57, 95
4, 163200, Note_off_c, 3, 57, 95
4, 163200, Note_on_c, 3, 62, 95
4, 163200, Note_on_c, 3, 43, 95
4, 163440, Note_off_c, 3, 62, 95
4, 163440, Note_off_c, 3, 43, 95
4, 163440, Note_on_c, 3, 55, 95
4, 163680, Note_off_c, 3, 55, 95
4, 163680, Note_on_c, 3, 50, 95
4, 163920, Note_off_c, 3, 50, 95
4, 163920, Note_on_c, 3, 60, 95
4, 164160, Note_off_c, 3, 60, 95
4, 164160, Note_on_c, 3, 55, 95
4, 164400, Note_off_c, 3, 55, 95
4, 164400, Note_on_c, 3, 50, 95
4, 164640, Note_off_c, 3, 50, 95
4, 164640, Note_on_c, 3, 59, 95
4, 164880, Note_off_c, 3, 59, 95
4, 164880, Note_on_c, 3, 55, 95
4, 165120, Note_off_c, 3, 55, 95
4, 165120, Note_on_c, 3, 59, 95
4, 165120, Note_on_c, 3, 40, 95
4, 165360, Note_off_c, 3, 59, 95
4, 165360, Note_off_c, 3, 40, 95
4, 165360, Note_on_c, 3, 55, 95
4, 165600, Note_off_c, 3, 55, 95
4, 165600, Note_on_c, 3, 52, 95
4, 165840, Note_off_c, 3, 52, 95
4, 165840, Note_on_c, 3, 57, 95
4, 166080, Note_off_c, 3, 57, 95
4, 166080, Note_on_c, 3, 55, 95
4, 166320, Note_off_c, 3, 55, 95
4, 166320, Note_on_c, 3, 52, 95
4, 166560, Note_off_c, 3, 52, 95
4, 166560, Note_on_c, 3, 55, 95
4, 166800, Note_off_c, 3, 55, 95
4, 166800, Note_on_c, 3, 52, 95
4, 167040, Note_off_c, 3, 52, 95
4, 167040, Note_on_c, 3, 60, 95
4, 167040, Note_on_c, 3, 45, 95
4, 167280, Note_off_c, 3, 60, 95
4, 167280, Note_off_c, 3, 45, 95
4, 167280, Note_on_c, 3, 57, 95
4, 167520, Note_off_c, 3, 57, 95
4, 167520, Note_on_c, 3, 52, 95
4, 167760, Note_off_c, 3, 52, 95
4, 167760, Note_on_c, 3, 59, 95
4, 168000, Note_off_c, 3, 59, 95
4, 168000, Note_on_c, 3, 57, 95
4, 168240, Note_off_c, 3, 57, 95
4, 168240, Note_on_c, 3, 52, 95
4, 168480, Note_off_c, 3, 52, 95
4, 168480, Note_on_c, 3, 60, 95
4, 168720, Note_off_c, 3, 60, 95
4, 168720, Note_on_c, 3, 57, 95
4, 168960, Note_off_c, 3, 57, 95
4, 168960, Note_on_c, 3, 64, 95
4, 168960, Note_on_c, 3, 45, 95
4, 169200, Note_off_c, 3, 64, 95
4, 169200, Note_off_c, 3, 45, 95
4, 169200, Note_on_c, 3, 60, 95
4, 169440, Note_off_c, 3, 60, 95
4, 169440, Note_on_c, 3, 57, 95
4, 169680, Note_off_c, 3, 57, 95
4, 169680, Note_on_c, 3, 62, 95
4, 169920, Note_off_c, 3, 62, 95
4, 169920, Note_on_c, 3, 57, 95
4, 170160, Note_off_c, 3, 57, 95
4, 170160, Note_on_c, 3, 52, 95
4, 170400, Note_off_c, 3, 52, 95
4, 170400, Note_on_c, 3, 60, 95
4, 170640, Note_off_c, 3, 60, 95
4, 170640, Note_on_c, 3, 57, 95
4, 170880, Note_off_c, 3, 57, 95
4, 170880, Note_on_c, 3, 62, 95
4, 170880, Note_on_c, 3, 43, 95
4, 171120, Note_off_c, 3, 62, 95
4, 171120, Note_off_c, 3, 43, 95
4, 171120, Note_on_c, 3, 55, 95
4, 171360, Note_off_c, 3, 55, 95
4, 171360, Note_on_c, 3, 50, 95
4, 171600, Note_off_c, 3, 50, 95
4, 171600, Note_on_c, 3, 60, 95
4, 171840, Note_off_c, 3, 60, 95
4, 171840, Note_on_c, 3, 55, 95
4, 172080, Note_off_c, 3, 55, 95
4, 172080, Note_on_c, 3, 50, 95
4, 172320, Note_off_c, 3, 50, 95
4, 172320, Note_on_c, 3, 59, 95
4, 172560, Note_off_c, 3, 59, 95
4, 172560, Note_on_c, 3, 55, 95
4, 172800, Note_off_c, 3, 55, 95
4, 172800, Note_on_c, 3, 59, 95
4, 172800, Note_on_c, 3, 40, 95
4, 173040, Note_off_c, 3, 59, 95
4, 173040, Note_off_c, 3, 40, 95
4, 173040, Note_on_c, 3, 55, 95
4, 173280, Note_off_c, 3, 55, 95
4, 173280, Note_on_c, 3, 52, 95
4, 173520, Note_off_c, 3, 52, 95
4, 173520, Note_on_c, 3, 57, 95
4, 173760, Note_off_c, 3, 57, 95
4, 173760, Note_on_c, 3, 55, 95
4, 174000, Note_off_c, 3, 55, 95
4, 174000, Note_on_c, 3, 52, 95
4, 174240, Note_off_c, 3, 52, 95
4, 174240, Note_on_c, 3, 55, 95
4, 174480, Note_off_c, 3, 55, 95
4, 174480, Note_on_c, 3, 52, 95
4, 174720, Note_off_c, 3, 52, 95
4, 174720, Note_on_c, 3, 60, 95
4, 174720, Note_on_c, 3, 45, 95
4, 174960, Note_off_c, 3, 60, 95
4, 174960, Note_off_c, 3, 45, 95
4, 174960, Note_on_c, 3, 57, 95
4, 175200, Note_off_c, 3, 57, 95
4, 175200, Note_on_c, 3, 52, 95
4, 175440, Note_off_c, 3, 52, 95
4, 175440, Note_on_c, 3, 59, 95
4, 175680, Note_off_c, 3, 59, 95
4, 175680, Note_on_c, 3, 57, 95
4, 175920, Note_off_c, 3, 57, 95
4, 175920, Note_on_c, 3, 52, 95
4, 176160, Note_off_c, 3, 52, 95
4, 176160, Note_on_c, 3, 60, 95
4, 176400, Note_off_c, 3, 60, 95
4, 176400, Note_on_c, 3, 57, 95
4, 176640, Note_off_c, 3, 57, 95
4, 176640, Note_on_c, 3, 64, 95
4, 176640, Note_on_c, 3, 45, 95
4, 176880, Note_off_c, 3, 64, 95
4, 176880, Note_off_c, 3, 45, 95
4, 176880, Note_on_c, 3, 60, 95
4, 177120, Note_off_c, 3, 60, 95
4, 177120, Note_on_c, 3, 57, 95
4, 177360, Note_off_c, 3, 57, 95
4, 177360, Note_on_c, 3, 62, 95
4, 177600, Note_off_c, 3, 62, 95
4, 177600, Note_on_c, 3, 57, 95
4, 177840, Note_off_c, 3, 57, 95
4, 177840, Note_on_c, 3, 52, 95
4, 178080, Note_off_c, 3, 52, 95
4, 178080, Note_on_c, 3, 60, 95
4, 178320, Note_off_c, 3, 60, 95
4, 178320, Note_on_c, 3, 57, 95
4, 178560, Note_off_c, 3, 57, 95
4, 178560, Note_on_c, 3, 62, 95
4, 178560, Note_on_c, 3, 43, 95
4, 178800, Note_off_c, 3, 62, 95
4, 178800, Note_off_c, 3, 43, 95
4, 178800, Note_on_c, 3, 55, 95
4, 179040, Note_off_c, 3, 55, 95
4, 179040, Note_on_c, 3, 50, 95
4, 179280, Note_off_c, 3, 50, 95
4, 179280, Note_on_c, 3, 60, 95
4, 179520, Note_off_c, 3, 60, 95
4, 179520, Note_on_c, 3, 55, 95
4, 179760, Note_off_c, 3, 55, 95
4, 179760, Note_on_c, 3, 50, 95
4, 180000, Note_off_c, 3, 50, 95
4, 180000, Note_on_c, 3, 59, 95
4, 180240, Note_off_c, 3, 59, 95
4, 180240, Note_on_c, 3, 55, 95
4, 180480, Note_off_c, 3, 55, 95
4, 180480, Note_on_c, 3, 59, 95
4, 180480, Note_on_c, 3, 40, 95
4, 180720, Note_off_c, 3, 59, 95
4, 180720, Note_off_c, 3, 40, 95
4, 180720, Note_on_c, 3, 55, 95
4, 180960, Note_off_c, 3, 55, 95
4, 180960, Note_on_c, 3, 52, 95
4, 181200, Note_off_c, 3, 52, 95
4, 181200, Note_on_c, 3, 57, 95
4, 181440, Note_off_c, 3, 57, 95
4, 181440, Note_on_c, 3, 55, 95
4, 181680, Note_off_c, 3, 55, 95
4, 181680, Note_on_c, 3, 52, 95
4, 181920, Note_off_c, 3, 52, 95
4, 181920, Note_on_c, 3, 55, 95
4, 182160, Note_off_c, 3, 55, 95
4, 182160, Note_on_c, 3, 52, 95
4, 182400, Note_off_c, 3, 52, 95
4, 182400, Note_on_c, 3, 60, 95
4, 182400, Note_on_c, 3, 45, 95
4, 182640, Note_off_c, 3, 60, 95
4, 182640, Note_off_c, 3, 45, 95
4, 182640, Note_on_c, 3, 57, 95
4, 182880, Note_off_c, 3, 57, 95
4, 182880, Note_on_c, 3, 52, 95
4, 183120, Note_off_c, 3, 52, 95
4, 183120, Note_on_c, 3, 59, 95
4, 183360, Note_off_c, 3, 59, 95
4, 183360, Note_on_c, 3, 57, 95
4, 183600, Note_off_c, 3, 57, 95
4, 183600, Note_on_c, 3, 52, 95
4, 183840, Note_off_c, 3, 52, 95
4, 183840, Note_on_c, 3, 60, 95
4, 184080, Note_off_c, 3, 60, 95
4, 184080, Note_on_c, 3, 57, 95
4, 184320, Note_off_c, 3, 57, 95
4, 184320, Note_on_c, 3, 64, 95
4, 184320, Note_on_c, 3, 45, 95
4, 184560, Note_off_c, 3, 64, 95
4, 184560, Note_off_c, 3, 45, 95
4, 184560, Note_on_c, 3, 60, 95
4, 184800, Note_off_c, 3, 60, 95
4, 184800, Note_on_c, 3, 57, 95
4, 185040, Note_off_c, 3, 57, 95
4, 185040, Note_on_c, 3, 62, 95
4, 185280, Note_off_c, 3, 62, 95
4, 185280, Note_on_c, 3, 57, 95
4, 185520, Note_off_c, 3, 57, 95
4, 185520, Note_on_c, 3, 52, 95
4, 185760, Note_off_c, 3, 52, 95
4, 185760, Note_on_c, 3, 60, 95
4, 186000, Note_off_c, 3, 60, 95
4, 186000, Note_on_c, 3, 57, 95
4, 186240, Note_off_c, 3, 57, 95
4, 186240, Note_on_c, 3, 62, 95
4, 186240, Note_on_c, 3, 43, 95
4, 186480, Note_off_c, 3, 62, 95
4, 186480, Note_off_c, 3, 43, 95
4, 186480, Note_on_c, 3, 55, 95
4, 186720, Note_off_c, 3, 55, 95
4, 186720, Note_on_c, 3, 50, 95
4, 186960, Note_off_c, 3, 50, 95
4, 186960, Note_on_c, 3, 60, 95
4, 187200, Note_off_c, 3, 60, 95
4, 187200, Note_on_c, 3, 55, 95
4, 187440, Note_off_c, 3, 55, 95
4, 187440, Note_on_c, 3, 50, 95
4, 187680, Note_off_c, 3, 50, 95
4, 187680, Note_on_c, 3, 59, 95
4, 187920, Note_off_c, 3, 59, 95
4, 187920, Note_on_c, 3, 55, 95
4, 188160, Note_off_c, 3, 55, 95
4, 188160, Note_on_c, 3, 59, 95
4, 188160, Note_on_c, 3, 40, 95
4, 188400, Note_off_c, 3, 59, 95
4, 188400, Note_off_c, 3, 40, 95
4, 188400, Note_on_c, 3, 55, 95
4, 188640, Note_off_c, 3, 55, 95
4, 188640, Note_on_c, 3, 52, 95
4, 188880, Note_off_c, 3, 52, 95
4, 188880, Note_on_c, 3, 57, 95
4, 189120, Note_off_c, 3, 57, 95
4, 189120, Note_on_c, 3, 55, 95
4, 189360, Note_off_c, 3, 55, 95
4, 189360, Note_on_c, 3, 52, 95
4, 189600, Note_off_c, 3, 52, 95
4, 189600, Note_on_c, 3, 55, 95
4, 189840, Note_off_c, 3, 55, 95
4, 189840, Note_on_c, 3, 52, 95
4, 190080, Note_off_c, 3, 52, 95
4, 190080, Note_on_c, 3, 65, 95
4, 190080, Note_on_c, 3, 50, 95
4, 190320, Note_off_c, 3, 65, 95
4, 190320, Note_off_c, 3, 50, 95
4, 190320, Note_on_c, 3, 62, 95
4, 190560, Note_off_c, 3, 62, 95
4, 190560, Note_on_c, 3, 57, 95
4, 191760, Note_off_c, 3, 57, 95
4, 191760, Note_on_c, 3, 64, 95
4, 192000, Note_off_c, 3, 64, 95
4, 192000, Note_on_c, 3, 64, 95
4, 192000, Note_on_c, 3, 45, 95
4, 192480, Note_off_c, 3, 64, 95
4, 192480, Note_off_c, 3, 45, 95
4, 192480, Note_on_c, 3, 60, 95
4, 192960, Note_off_c, 3, 60, 95
4, 192960, Note_on_c, 3, 62, 95
4, 192960, Note_on_c, 3, 43, 95
4, 193440, Note_off_c, 3, 62, 95
4, 193440, Note_off_c, 3, 43, 95
4, 193440, Note_on_c, 3, 59, 95
4, 193920, Note_off_c, 3, 59, 95
4, 193920, Note_on_c, 3, 60, 95
4, 193920, Note_on_c, 3, 45, 95
4, 194400, Note_off_c, 3, 60, 95
4, 194400, Note_off_c, 3, 45, 95
4, 194400, Note_on_c, 3, 57, 95
4, 194880, Note_off_c, 3, 57, 95
4, 194880, Note_on_c, 3, 59, 95
4, 194880, Note_on_c, 3, 43, 95
4, 195600, Note_off_c, 3, 59, 95
4, 195600, Note_off_c, 3, 43, 95
4, 195840, Note_on_c, 3, 62, 95
4, 196320, Note_off_c, 3, 62, 95
4, 196320, Note_on_c, 3, 67, 95
4, 196320, Note_on_c, 3, 43, 95
4, 196800, Note_off_c, 3, 67, 95
4, 196800, Note_off_c, 3, 43, 95
4, 196800, Note_on_c, 3, 62, 95
4, 197280, Note_off_c, 3, 62, 95
4, 197280, Note_on_c, 3, 55, 95
4, 197760, Note_off_c, 3, 55, 95
4, 197760, Note_on_c, 3, 64, 95
4, 197760, Note_on_c, 3, 45, 95
4, 198240, Note_off_c, 3, 64, 95
4, 198240, Note_off_c, 3, 45, 95
4, 198240, Note_on_c, 3, 60, 95
4, 198720, Note_off_c, 3, 60, 95
4, 198720, Note_on_c, 3, 57, 95
4, 199200, Note_off_c, 3, 57, 95
4, 199200, Note_on_c, 3, 65, 95
4, 199200, Note_on_c, 3, 50, 95
4, 199920, Note_off_c, 3, 65, 95
4, 199920, Note_off_c, 3, 50, 95
4, 199920, Note_on_c, 3, 62, 95
4, 200160, Note_off_c, 3, 62, 95
4, 200160, Note_on_c, 3, 57, 95
4, 200640, Note_off_c, 3, 57, 95
4, 200640, Note_on_c, 3, 64, 95
4, 200640, Note_on_c, 3, 45, 95
4, 201120, Note_off_c, 3, 64, 95
4, 201120, Note_off_c, 3, 45, 95
4, 201120, Note_on_c, 3, 60, 95
4, 201600, Note_off_c, 3, 60, 95
4, 201600, Note_on_c, 3, 57, 95
4, 202080, Note_off_c, 3, 57, 95
4, 202080, Note_on_c, 3, 65, 95
4, 202080, Note_on_c, 3, 50, 95
4, 202800, Note_off_c, 3, 65, 95
4, 202800, Note_off_c, 3, 50, 95
4, 202800, Note_on_c, 3, 62, 95
4, 203040, Note_off_c, 3, 62, 95
4, 203040, Note_on_c, 3, 57, 95
4, 203520, Note_off_c, 3, 57, 95
4, 203520, Note_on_c, 3, 64, 95
4, 203520, Note_on_c, 3, 45, 95
4, 204000, Note_off_c, 3, 64, 95
4, 204000, Note_off_c, 3, 45, 95
4, 204000, Note_on_c, 3, 60, 95
4, 204480, Note_off_c, 3, 60, 95
4, 204480, Note_on_c, 3, 57, 95
4, 204960, Note_off_c, 3, 57, 95
4, 204960, Note_on_c, 3, 65, 95
4, 204960, Note_on_c, 3, 50, 95
4, 205680, Note_off_c, 3, 65, 95
4, 205680, Note_off_c, 3, 50, 95
4, 205680, Note_on_c, 3, 62, 95
4, 205920, Note_off_c, 3, 62, 95
4, 205920, Note_on_c, 3, 57, 95
4, 206400, Note_off_c, 3, 57, 95
4, 206400, Note_on_c, 3, 60, 95
4, 206400, Note_on_c, 3, 41, 95
4, 207360, Note_off_c, 3, 60, 95
4, 207360, Note_off_c, 3, 41, 95
4, 207360, Note_on_c, 3, 60, 95
4, 207840, Note_off_c, 3, 60, 95
4, 207840, Note_on_c, 3, 62, 95
4, 207840, Note_on_c, 3, 43, 95
4, 208800, Note_off_c, 3, 62, 95
4, 208800, Note_off_c, 3, 43, 95
4, 208800, Note_on_c, 3, 62, 95
4, 209280, Note_off_c, 3, 62, 95
4, 209280, Note_on_c, 3, 65, 95
4, 209280, Note_on_c, 3, 50, 95
4, 210000, Note_off_c, 3, 65, 95
4, 210000, Note_off_c, 3, 50, 95
4, 210000, Note_on_c, 3, 65, 95
4, 210240, Note_off_c, 3, 65, 95
4, 210240, Note_on_c, 3, 62, 95
4, 210480, Note_off_c, 3, 62, 95
4, 210480, Note_on_c, 3, 65, 95
4, 210720, Note_off_c, 3, 65, 95
4, 210720, Note_on_c, 3, 57, 95
4, 211680, Note_off_c, 3, 57, 95
4, 211680, Note_on_c, 3, 65, 95
4, 211920, Note_off_c, 3, 65, 95
4, 211920, Note_on_c, 3, 62, 95
4, 212160, Note_off_c, 3, 62, 95
4, 212160, Note_on_c, 3, 60, 95
4, 212160, Note_on_c, 3, 41, 95
4, 213120, Note_off_c, 3, 60, 95
4, 213120, Note_off_c, 3, 41, 95
4, 213120, Note_on_c, 3, 60, 95
4, 213600, Note_off_c, 3, 60, 95
4, 213600, Note_on_c, 3, 62, 95
4, 213600, Note_on_c, 3, 43, 95
4, 214560, Note_off_c, 3, 62, 95
4, 214560, Note_off_c, 3, 43, 95
4, 214560, Note_on_c, 3, 62, 95
4, 215040, Note_off_c, 3, 62, 95
4, 215040, Note_on_c, 3, 67, 95
4, 215040, Note_on_c, 3, 43, 95
4, 215520, Note_off_c, 3, 67, 95
4, 215520, Note_off_c, 3, 43, 95
4, 215520, Note_on_c, 3, 62, 95
4, 216000, Note_off_c, 3, 62, 95
4, 216000, Note_on_c, 3, 55, 95
4, 216480, Note_off_c, 3, 55, 95
4, 216480, Note_on_c, 3, 64, 95
4, 216480, Note_on_c, 3, 45, 95
4, 216960, Note_off_c, 3, 64, 95
4, 216960, Note_off_c, 3, 45, 95
4, 216960, Note_on_c, 3, 60, 95
4, 217440, Note_off_c, 3, 60, 95
4, 217440, Note_on_c, 3, 57, 95
4, 217920, Note_off_c, 3, 57, 95
4, 217920, Note_on_c, 3, 65, 95
4, 217920, Note_on_c, 3, 50, 95
4, 218640, Note_off_c, 3, 65, 95
4, 218640, Note_off_c, 3, 50, 95
4, 218640, Note_on_c, 3, 62, 95
4, 218880, Note_off_c, 3, 62, 95
4, 218880, Note_on_c, 3, 57, 95
4, 219360, Note_off_c, 3, 57, 95
4, 219360, Note_on_c, 3, 64, 95
4, 219360, Note_on_c, 3, 45, 95
4, 219840, Note_off_c, 3, 64, 95
4, 219840, Note_off_c, 3, 45, 95
4, 219840, Note_on_c, 3, 60, 95
4, 220320, Note_off_c, 3, 60, 95
4, 220320, Note_on_c, 3, 57, 95
4, 220800, Note_off_c, 3, 57, 95
4, 220800, Note_on_c, 3, 65, 95
4, 220800, Note_on_c, 3, 50, 95
4, 221520, Note_off_c, 3, 65, 95
4, 221520, Note_off_c, 3, 50, 95
4, 221520, Note_on_c, 3, 62, 95
4, 221760, Note_off_c, 3, 62, 95
4, 221760, Note_on_c, 3, 57, 95
4, 222240, Note_off_c, 3, 57, 95
4, 222240, Note_on_c, 3, 64, 95
4, 222240, Note_on_c, 3, 45, 95
4, 222720, Note_off_c, 3, 64, 95
4, 222720, Note_off_c, 3, 45, 95
4, 222720, Note_on_c, 3, 60, 95
4, 223200, Note_off_c, 3, 60, 95
4, 223200, Note_on_c, 3, 57, 95
4, 223680, Note_off_c, 3, 57, 95
4, 223680, Note_on_c, 3, 65, 95
4, 223680, Note_on_c, 3, 50, 95
4, 224400, Note_off_c, 3, 65, 95
4, 224400, Note_off_c, 3, 50, 95
4, 224400, Note_on_c, 3, 62, 95
4, 224640, Note_off_c, 3, 62, 95
4, 224640, Note_on_c, 3, 57, 95
4, 225120, Note_off_c, 3, 57, 95
4, 225120, Note_on_c, 3, 60, 95
4, 225120, Note_on_c, 3, 41, 95
4, 226080, Note_off_c, 3, 60, 95
4, 226080, Note_off_c, 3, 41, 95
4, 226080, Note_on_c, 3, 60, 95
4, 226560, Note_off_c, 3, 60, 95
4, 226560, Note_on_c, 3, 62, 95
4, 226560, Note_on_c, 3, 43, 95
4, 227520, Note_off_c, 3, 62, 95
4, 227520, Note_off_c, 3, 43, 95
4, 227520, Note_on_c, 3, 62, 95
4, 228000, Note_off_c, 3, 62, 95
4, 228000, Note_on_c, 3, 65, 95
4, 228000, Note_on_c, 3, 50, 95
4, 228720, Note_off_c, 3, 65, 95
4, 228720, Note_off_c, 3, 50, 95
4, 228720, Note_on_c, 3, 65, 95
4, 228960, Note_off_c, 3, 65, 95
4, 228960, Note_on_c, 3, 62, 95
4, 229200, Note_off_c, 3, 62, 95
4, 229200, Note_on_c, 3, 65, 95
4, 229440, Note_off_c, 3, 65, 95
4, 229440, Note_on_c, 3, 57, 95
4, 230400, Note_off_c, 3, 57, 95
4, 230400, Note_on_c, 3, 65, 95
4, 230640, Note_off_c, 3, 65, 95
4, 230640, Note_on_c, 3, 62, 95
4, 230880, Note_off_c, 3, 62, 95
4, 230880, Note_on_c, 3, 60, 95
4, 230880, Note_on_c, 3, 41, 95
4, 231840, Note_off_c, 3, 60, 95
4, 231840, Note_off_c, 3, 41, 95
4, 231840, Note_on_c, 3, 60, 95
4, 232320, Note_off_c, 3, 60, 95
4, 232320, Note_on_c, 3, 62, 95
4, 232320, Note_on_c, 3, 43, 95
4, 233280, Note_off_c, 3, 62, 95
4, 233280, Note_off_c, 3, 43, 95
4, 233280, Note_on_c, 3, 62, 95
4, 233760, Note_off_c, 3, 62, 95
4, 233760, Note_on_c, 3, 64, 95
4, 233760, Note_on_c, 3, 48, 95
4, 234240, Note_off_c, 3, 64, 95
4, 234240, Note_off_c, 3, 48, 95
4, 234240, Note_on_c, 3, 60, 95
4, 234720, Note_off_c, 3, 60, 95
4, 234720, Note_on_c, 3, 55, 95
4, 235200, Note_off_c, 3, 55, 95
4, 235200, Note_on_c, 3, 67, 95
4, 235200, Note_on_c, 3, 43, 95
4, 235680, Note_off_c, 3, 67, 95
4, 235680, Note_off_c, 3, 43, 95
4, 235680, Note_on_c, 3, 62, 95
4, 236160, Note_off_c, 3, 62, 95
4, 236160, Note_on_c, 3, 55, 95
4, 236640, Note_off_c, 3, 55, 95
4, 236640, Note_on_c, 3, 64, 95
4, 236640, Note_on_c, 3, 45, 95
4, 237120, Note_off_c, 3, 64, 95
4, 237120, Note_off_c, 3, 45, 95
4, 237120, Note_on_c, 3, 57, 95
4, 237600, Note_off_c, 3, 57, 95
4, 237600, Note_on_c, 3, 60, 95
4, 238080, Note_off_c, 3, 60, 95
4, 238080, Note_on_c, 3, 59, 95
4, 238320, Note_off_c, 3, 59, 95
4, 238320, Note_on_c, 3, 60, 95
4, 238560, Note_off_c, 3, 60, 95
4, 238560, Note_on_c, 3, 57, 95
4, 239040, Note_off_c, 3, 57, 95
4, 239040, Note_on_c, 3, 45, 95
4, 239520, Note_off_c, 3, 45, 95
4, 239520, Note_on_c, 3, 64, 95
4, 239520, Note_on_c, 3, 48, 95
4, 240000, Note_off_c, 3, 64, 95
4, 240000, Note_off_c, 3, 48, 95
4, 240000, Note_on_c, 3, 60, 95
4, 240480, Note_off_c, 3, 60, 95
4, 240480, Note_on_c, 3, 55, 95
4, 240960, Note_off_c, 3, 55, 95
4, 240960, Note_on_c, 3, 67, 95
4, 240960, Note_on_c, 3, 43, 95
4, 241440, Note_off_c, 3, 67, 95
4, 241440, Note_off_c, 3, 43, 95
4, 241440, Note_on_c, 3, 62, 95
4, 241920, Note_off_c, 3, 62, 95
4, 241920, Note_on_c, 3, 55, 95
4, 242400, Note_off_c, 3, 55, 95
4, 242400, Note_on_c, 3, 64, 95
4, 242400, Note_on_c, 3, 45, 95
4, 242880, Note_off_c, 3, 64, 95
4, 242880, Note_off_c, 3, 45, 95
4, 242880, Note_on_c, 3, 60, 95
4, 243360, Note_off_c, 3, 60, 95
4, 243360, Note_on_c, 3, 57, 95
4, 243840, Note_off_c, 3, 57, 95
4, 243840, Note_on_c, 3, 52, 95
4, 244320, Note_off_c, 3, 52, 95
4, 244320, Note_on_c, 3, 57, 95
4, 244800, Note_off_c, 3, 57, 95
4, 244800, Note_on_c, 3, 60, 95
4, 244800, Note_on_c, 3, 45, 95
4, 245280, Note_off_c, 3, 60, 95
4, 245280, Note_off_c, 3, 45, 95
4, 245280, Note_on_c, 3, 64, 95
4, 245280, Note_on_c, 3, 48, 95
4, 245760, Note_off_c, 3, 64, 95
4, 245760, Note_off_c, 3, 48, 95
4, 245760, Note_on_c, 3, 60, 95
4, 246240, Note_off_c, 3, 60, 95
4, 246240, Note_on_c, 3, 55, 95
4, 246720, Note_off_c, 3, 55, 95
4, 246720, Note_on_c, 3, 67, 95
4, 246720, Note_on_c, 3, 43, 95
4, 247200, Note_off_c, 3, 67, 95
4, 247200, Note_off_c, 3, 43, 95
4, 247200, Note_on_c, 3, 62, 95
4, 247680, Note_off_c, 3, 62, 95
4, 247680, Note_on_c, 3, 55, 95
4, 248160, Note_off_c, 3, 55, 95
4, 248160, Note_on_c, 3, 64, 95
4, 248160, Note_on_c, 3, 45, 95
4, 248640, Note_off_c, 3, 64, 95
4, 248640, Note_off_c, 3, 45, 95
4, 248640, Note_on_c, 3, 60, 95
4, 249120, Note_off_c, 3, 60, 95
4, 249120, Note_on_c, 3, 57, 95
4, 249600, Note_off_c, 3, 57, 95
4, 249600, Note_on_c, 3, 52, 95
4, 250080, Note_off_c, 3, 52, 95
4, 250080, Note_on_c, 3, 57, 95
4, 250560, Note_off_c, 3, 57, 95
4, 250560, Note_on_c, 3, 60, 95
4, 251040, Note_off_c, 3, 60, 95
4, 251040, Note_on_c, 3, 64, 95
4, 251040, Note_on_c, 3, 48, 95
4, 251520, Note_off_c, 3, 64, 95
4, 251520, Note_off_c, 3, 48, 95
4, 251520, Note_on_c, 3, 60, 95
4, 252000, Note_off_c, 3, 60, 95
4, 252000, Note_on_c, 3, 55, 95
4, 252480, Note_off_c, 3, 55, 95
4, 252480, Note_on_c, 3, 67, 95
4, 252480, Note_on_c, 3, 43, 95
4, 252960, Note_off_c, 3, 67, 95
4, 252960, Note_off_c, 3, 43, 95
4, 252960, Note_on_c, 3, 62, 95
4, 253440, Note_off_c, 3, 62, 95
4, 253440, Note_on_c, 3, 55, 95
4, 253920, Note_off_c, 3, 55, 95
4, 253920, Note_on_c, 3, 64, 95
4, 253920, Note_on_c, 3, 45, 95
4, 254400, Note_off_c, 3, 64, 95
4, 254400, Note_off_c, 3, 45, 95
4, 254400, Note_on_c, 3, 57, 95
4, 254880, Note_off_c, 3, 57, 95
4, 254880, Note_on_c, 3, 60, 95
4, 255360, Note_off_c, 3, 60, 95
4, 255360, Note_on_c, 3, 59, 95
4, 255600, Note_off_c, 3, 59, 95
4, 255600, Note_on_c, 3, 60, 95
4, 255840, Note_off_c, 3, 60, 95
4, 255840, Note_on_c, 3, 57, 95
4, 256320, Note_off_c, 3, 57, 95
4, 256320, Note_on_c, 3, 60, 95
4, 256320, Note_on_c, 3, 45, 95
4, 256800, Note_off_c, 3, 60, 95
4, 256800, Note_off_c, 3, 45, 95
4, 256800, Note_on_c, 3, 64, 95
4, 256800, Note_on_c, 3, 48, 95
4, 257280, Note_off_c, 3, 64, 95
4, 257280, Note_off_c, 3, 48, 95
4, 257280, Note_on_c, 3, 60, 95
4, 257760, Note_off_c, 3, 60, 95
4, 257760, Note_on_c, 3, 55, 95
4, 258240, Note_off_c, 3, 55, 95
4, 258240, Note_on_c, 3, 67, 95
4, 258240, Note_on_c, 3, 43, 95
4, 258720, Note_off_c, 3, 67, 95
4, 258720, Note_off_c, 3, 43, 95
4, 258720, Note_on_c, 3, 62, 95
4, 259200, Note_off_c, 3, 62, 95
4, 259200, Note_on_c, 3, 55, 95
4, 259680, Note_off_c, 3, 55, 95
4, 259680, Note_on_c, 3, 64, 95
4, 259680, Note_on_c, 3, 45, 95
4, 260160, Note_off_c, 3, 64, 95
4, 260160, Note_off_c, 3, 45, 95
4, 260160, Note_on_c, 3, 60, 95
4, 260640, Note_off_c, 3, 60, 95
4, 260640, Note_on_c, 3, 57, 95
4, 261120, Note_off_c, 3, 57, 95
4, 261120, Note_on_c, 3, 52, 95
4, 261600, Note_off_c, 3, 52, 95
4, 261600, Note_on_c, 3, 57, 95
4, 262080, Note_off_c, 3, 57, 95
4, 262080, Note_on_c, 3, 60, 95
4, 262560, Note_off_c, 3, 60, 95
4, 262560, Note_on_c, 3, 64, 95
4, 262560, Note_on_c, 3, 48, 95
4, 263040, Note_off_c, 3, 64, 95
4, 263040, Note_off_c, 3, 48, 95
4, 263040, Note_on_c, 3, 60, 95
4, 263520, Note_off_c, 3, 60, 95
4, 263520, Note_on_c, 3, 55, 95
4, 264000, Note_off_c, 3, 55, 95
4, 264000, Note_on_c, 3, 67, 95
4, 264000, Note_on_c, 3, 43, 95
4, 264480, Note_off_c, 3, 67, 95
4, 264480, Note_off_c, 3, 43, 95
4, 264480, Note_on_c, 3, 62, 95
4, 264960, Note_off_c, 3, 62, 95
4, 264960, Note_on_c, 3, 55, 95
4, 265440, Note_off_c, 3, 55, 95
4, 265440, Note_on_c, 3, 64, 95
4, 265440, Note_on_c, 3, 45, 95
4, 265920, Note_off_c, 3, 64, 95
4, 265920, Note_off_c, 3, 45, 95
4, 265920, Note_on_c, 3, 57, 95
4, 266400, Note_off_c, 3, 57, 95
4, 266400, Note_on_c, 3, 60, 95
4, 266880, Note_off_c, 3, 60, 95
4, 266880, Note_on_c, 3, 59, 95
4, 267120, Note_off_c, 3, 59, 95
4, 267120, Note_on_c, 3, 60, 95
4, 267360, Note_off_c, 3, 60, 95
4, 267360, Note_on_c, 3, 57, 95
4, 267840, Note_off_c, 3, 57, 95
4, 267840, Note_on_c, 3, 45, 95
4, 268320, Note_off_c, 3, 45, 95
4, 268320, Note_on_c, 3, 64, 95
4, 268320, Note_on_c, 3, 48, 95
4, 268800, Note_off_c, 3, 64, 95
4, 268800, Note_off_c, 3, 48, 95
4, 268800, Note_on_c, 3, 60, 95
4, 269280, Note_off_c, 3, 60, 95
4, 269280, Note_on_c, 3, 55, 95
4, 269760, Note_off_c, 3, 55, 95
4, 269760, Note_on_c, 3, 67, 95
4, 269760, Note_on_c, 3, 43, 95
4, 270240, Note_off_c, 3, 67, 95
4, 270240, Note_off_c, 3, 43, 95
4, 270240, Note_on_c, 3, 62, 95
4, 270720, Note_off_c, 3, 62, 95
4, 270720, Note_on_c, 3, 55, 95
4, 271200, Note_off_c, 3, 55, 95
4, 271320, Note_on_c, 3, 40, 95
4, 271680, Note_off_c, 3, 40, 95
4, 271680, Note_on_c, 3, 47, 95
4, 272040, Note_off_c, 3, 47, 95
4, 272040, Note_on_c, 3, 52, 95
4, 272280, Note_off_c, 3, 52, 95
4, 272280, Note_on_c, 3, 55, 95
4, 272760, Note_off_c, 3, 55, 95
4, 272760, Note_on_c, 3, 59, 95
4, 273120, Note_off_c, 3, 59, 95
4, 273120, Note_on_c, 3, 64, 95
4, 276480, Note_off_c, 3, 64, 95
4, 276480, End_track
5, 0, Start_track
5, 0, Pitch_bend_c, 4, 8192
5, 0, Control_c, 4, 7, 63
5, 0, Control_c, 4, 10, 63
5, 0, Control_c, 4, 93, 31
5, 0, Control_c, 4, 91, 71
5, 0, Control_c, 4, 95, 0
5, 0, Control_c, 4, 92, 0
5, 0, Control_c, 4, 11, 127
5, 0, Program_c, 4, 50
5, 86400, Note_on_c, 4, 62, 95
5, 86880, Note_off_c, 4, 62, 95
5, 86880, Note_on_c, 4, 67, 95
5, 86880, Note_on_c, 4, 43, 95
5, 87360, Note_off_c, 4, 67, 95
5, 87360, Note_off_c, 4, 43, 95
5, 87360, Note_on_c, 4, 62, 95
5, 87840, Note_off_c, 4, 62, 95
5, 87840, Note_on_c, 4, 55, 95
5, 88320, Note_off_c, 4, 55, 95
5, 88320, Note_on_c, 4, 64, 95
5, 88320, Note_on_c, 4, 45, 95
5, 88800, Note_off_c, 4, 64, 95
5, 88800, Note_off_c, 4, 45, 95
5, 88800, Note_on_c, 4, 60, 95
5, 89280, Note_off_c, 4, 60, 95
5, 89280, Note_on_c, 4, 57, 95
5, 89760, Note_off_c, 4, 57, 95
5, 89760, Note_on_c, 4, 65, 95
5, 89760, Note_on_c, 4, 50, 95
5, 90480, Note_off_c, 4, 65, 95
5, 90480, Note_off_c, 4, 50, 95
5, 90480, Note_on_c, 4, 62, 95
5, 90720, Note_off_c, 4, 62, 95
5, 90720, Note_on_c, 4, 57, 95
5, 91200, Note_off_c, 4, 57, 95
5, 91200, Note_on_c, 4, 64, 95
5, 91200, Note_on_c, 4, 45, 95
5, 91680, Note_off_c, 4, 64, 95
5, 91680, Note_off_c, 4, 45, 95
5, 91680, Note_on_c, 4, 60, 95
5, 92160, Note_off_c, 4, 60, 95
5, 92160, Note_on_c, 4, 57, 95
5, 92640, Note_off_c, 4, 57, 95
5, 92640, Note_on_c, 4, 65, 95
5, 92640, Note_on_c, 4, 50, 95
5, 93360, Note_off_c, 4, 65, 95
5, 93360, Note_off_c, 4, 50, 95
5, 93360, Note_on_c, 4, 62, 95
5, 93600, Note_off_c, 4, 62, 95
5, 93600, Note_on_c, 4, 57, 95
5, 94080, Note_off_c, 4, 57, 95
5, 94080, Note_on_c, 4, 64, 95
5, 94080, Note_on_c, 4, 45, 95
5, 94560, Note_off_c, 4, 64, 95
5, 94560, Note_off_c, 4, 45, 95
5, 94560, Note_on_c, 4, 60, 95
5, 95040, Note_off_c, 4, 60, 95
5, 95040, Note_on_c, 4, 57, 95
5, 95520, Note_off_c, 4, 57, 95
5, 95520, Note_on_c, 4, 65, 95
5, 95520, Note_on_c, 4, 50, 95
5, 96240, Note_off_c, 4, 65, 95
5, 96240, Note_off_c, 4, 50, 95
5, 96240, Note_on_c, 4, 62, 95
5, 96480, Note_off_c, 4, 62, 95
5, 96480, Note_on_c, 4, 57, 95
5, 96960, Note_off_c, 4, 57, 95
5, 96960, Note_on_c, 4, 60, 95
5, 96960, Note_on_c, 4, 41, 95
5, 97920, Note_off_c, 4, 60, 95
5, 97920, Note_off_c, 4, 41, 95
5, 97920, Note_on_c, 4, 60, 95
5, 98400, Note_off_c, 4, 60, 95
5, 98400, Note_on_c, 4, 62, 95
5, 98400, Note_on_c, 4, 43, 95
5, 99360, Note_off_c, 4, 62, 95
5, 99360, Note_off_c, 4, 43, 95
5, 99360, Note_on_c, 4, 62, 95
5, 99840, Note_off_c, 4, 62, 95
5, 99840, Note_on_c, 4, 65, 95
5, 99840, Note_on_c, 4, 50, 95
5, 100560, Note_off_c, 4, 65, 95
5, 100560, Note_off_c, 4, 50, 95
5, 100560, Note_on_c, 4, 65, 95
5, 100800, Note_off_c, 4, 65, 95
5, 100800, Note_on_c, 4, 62, 95
5, 101040, Note_off_c, 4, 62, 95
5, 101040, Note_on_c, 4, 65, 95
5, 101280, Note_off_c, 4, 65, 95
5, 101280, Note_on_c, 4, 57, 95
5, 102240, Note_off_c, 4, 57, 95
5, 102240, Note_on_c, 4, 65, 95
5, 102480, Note_off_c, 4, 65, 95
5, 102480, Note_on_c, 4, 62, 95
5, 102720, Note_off_c, 4, 62, 95
5, 102720, Note_on_c, 4, 60, 95
5, 102720, Note_on_c, 4, 41, 95
5, 103680, Note_off_c, 4, 60, 95
5, 103680, Note_off_c, 4, 41, 95
5, 103680, Note_on_c, 4, 60, 95
5, 104160, Note_off_c, 4, 60, 95
5, 104160, Note_on_c, 4, 62, 95
5, 104160, Note_on_c, 4, 43, 95
5, 105120, Note_off_c, 4, 62, 95
5, 105120, Note_off_c, 4, 43, 95
5, 105120, Note_on_c, 4, 62, 95
5, 105600, Note_off_c, 4, 62, 95
5, 105600, Note_on_c, 4, 67, 95
5, 105600, Note_on_c, 4, 43, 95
5, 106080, Note_off_c, 4, 67, 95
5, 106080, Note_off_c, 4, 43, 95
5, 106080, Note_on_c, 4, 62, 95
5, 106560, Note_off_c, 4, 62, 95
5, 106560, Note_on_c, 4, 55, 95
5, 107040, Note_off_c, 4, 55, 95
5, 107040, Note_on_c, 4, 64, 95
5, 107040, Note_on_c, 4, 45, 95
5, 107520, Note_off_c, 4, 64, 95
5, 107520, Note_off_c, 4, 45, 95
5, 107520, Note_on_c, 4, 60, 95
5, 108000, Note_off_c, 4, 60, 95
5, 108000, Note_on_c, 4, 57, 95
5, 108480, Note_off_c, 4, 57, 95
5, 108480, Note_on_c, 4, 65, 95
5, 108480, Note_on_c, 4, 50, 95
5, 109200, Note_off_c, 4, 65, 95
5, 109200, Note_off_c, 4, 50, 95
5, 109200, Note_on_c, 4, 62, 95
5, 109440, Note_off_c, 4, 62, 95
5, 109440, Note_on_c, 4, 57, 95
5, 109920, Note_off_c, 4, 57, 95
5, 109920, Note_on_c, 4, 64, 95
5, 109920, Note_on_c, 4, 45, 95
5, 110400, Note_off_c, 4, 64, 95
5, 110400, Note_off_c, 4, 45, 95
5, 110400, Note_on_c, 4, 60, 95
5, 110880, Note_off_c, 4, 60, 95
5, 110880, Note_on_c, 4, 57, 95
5, 111360, Note_off_c, 4, 57, 95
5, 111360, Note_on_c, 4, 65, 95
5, 111360, Note_on_c, 4, 50, 95
5, 112080, Note_off_c, 4, 65, 95
5, 112080, Note_off_c, 4, 50, 95
5, 112080, Note_on_c, 4, 62, 95
5, 112320, Note_off_c, 4, 62, 95
5, 112320, Note_on_c, 4, 57, 95
5, 112800, Note_off_c, 4, 57, 95
5, 112800, Note_on_c, 4, 64, 95
5, 112800, Note_on_c, 4, 45, 95
5, 113280, Note_off_c, 4, 64, 95
5, 113280, Note_off_c, 4, 45, 95
5, 113280, Note_on_c, 4, 60, 95
5, 113760, Note_off_c, 4, 60, 95
5, 113760, Note_on_c, 4, 57, 95
5, 114240, Note_off_c, 4, 57, 95
5, 114240, Note_on_c, 4, 65, 95
5, 114240, Note_on_c, 4, 50, 95
5, 114960, Note_off_c, 4, 65, 95
5, 114960, Note_off_c, 4, 50, 95
5, 114960, Note_on_c, 4, 62, 95
5, 115200, Note_off_c, 4, 62, 95
5, 115200, Note_on_c, 4, 57, 95
5, 115680, Note_off_c, 4, 57, 95
5, 115680, Note_on_c, 4, 60, 95
5, 115680, Note_on_c, 4, 41, 95
5, 116160, Note_off_c, 4, 60, 95
5, 116160, Note_off_c, 4, 41, 95
5, 116160, Note_on_c, 4, 57, 95
5, 116640, Note_off_c, 4, 57, 95
5, 116640, Note_on_c, 4, 53, 95
5, 117120, Note_off_c, 4, 53, 95
5, 117120, Note_on_c, 4, 65, 95
5, 117600, Note_off_c, 4, 65, 95
5, 117600, Note_on_c, 4, 60, 95
5, 118080, Note_off_c, 4, 60, 95
5, 118080, Note_on_c, 4, 64, 95
5, 118560, Note_off_c, 4, 64, 95
5, 118560, Note_on_c, 4, 64, 95
5, 118560, Note_on_c, 4, 45, 95
5, 119040, Note_off_c, 4, 64, 95
5, 119040, Note_off_c, 4, 45, 95
5, 119040, Note_on_c, 4, 62, 95
5, 119520, Note_off_c, 4, 62, 95
5, 119520, Note_on_c, 4, 60, 95
5, 120000, Note_off_c, 4, 60, 95
5, 120000, Note_on_c, 4, 62, 95
5, 120480, Note_off_c, 4, 62, 95
5, 120480, Note_on_c, 4, 59, 95
5, 120480, Note_on_c, 4, 40, 95
5, 122880, Note_off_c, 4, 59, 95
5, 122880, Note_off_c, 4, 40, 95
5, 195840, Note_on_c, 4, 62, 95
5, 196320, Note_off_c, 4, 62, 95
5, 196320, Note_on_c, 4, 67, 95
5, 196320, Note_on_c, 4, 43, 95
5, 196800, Note_off_c, 4, 67, 95
5, 196800, Note_off_c, 4, 43, 95
5, 196800, Note_on_c, 4, 62, 95
5, 197280, Note_off_c, 4, 62, 95
5, 197280, Note_on_c, 4, 55, 95
5, 197760, Note_off_c, 4, 55, 95
5, 197760, Note_on_c, 4, 64, 95
5, 197760, Note_on_c, 4, 45, 95
5, 198240, Note_off_c, 4, 64, 95
5, 198240, Note_off_c, 4, 45, 95
5, 198240, Note_on_c, 4, 60, 95
5, 198720, Note_off_c, 4, 60, 95
5, 198720, Note_on_c, 4, 57, 95
5, 199200, Note_off_c, 4, 57, 95
5, 199200, Note_on_c, 4, 65, 95
5, 199200, Note_on_c, 4, 50, 95
5, 199920, Note_off_c, 4, 65, 95
5, 199920, Note_off_c, 4, 50, 95
5, 199920, Note_on_c, 4, 62, 95
5, 200160, Note_off_c, 4, 62, 95
5, 200160, Note_on_c, 4, 57, 95
5, 200640, Note_off_c, 4, 57, 95
5, 200640, Note_on_c, 4, 64, 95
5, 200640, Note_on_c, 4, 45, 95
5, 201120, Note_off_c, 4, 64, 95
5, 201120, Note_off_c, 4, 45, 95
5, 201120, Note_on_c, 4, 60, 95
5, 201600, Note_off_c, 4, 60, 95
5, 201600, Note_on_c, 4, 57, 95
5, 202080, Note_off_c, 4, 57, 95
5, 202080, Note_on_c, 4, 65, 95
5, 202080, Note_on_c, 4, 50, 95
5, 202800, Note_off_c, 4, 65, 95
5, 202800, Note_off_c, 4, 50, 95
5, 202800, Note_on_c, 4, 62, 95
5, 203040, Note_off_c, 4, 62, 95
5, 203040, Note_on_c, 4, 57, 95
5, 203520, Note_off_c, 4, 57, 95
5, 203520, Note_on_c, 4, 64, 95
5, 203520, Note_on_c, 4, 45, 95
5, 204000, Note_off_c, 4, 64, 95
5, 204000, Note_off_c, 4, 45, 95
5, 204000, Note_on_c, 4, 60, 95
5, 204480, Note_off_c, 4, 60, 95
5, 204480, Note_on_c, 4, 57, 95
5, 204960, Note_off_c, 4, 57, 95
5, 204960, Note_on_c, 4, 65, 95
5, 204960, Note_on_c, 4, 50, 95
5, 205680, Note_off_c, 4, 65, 95
5, 205680, Note_off_c, 4, 50, 95
5, 205680, Note_on_c, 4, 62, 95
5, 205920, Note_off_c, 4, 62, 95
5, 205920, Note_on_c, 4, 57, 95
5, 206400, Note_off_c, 4, 57, 95
5, 206400, Note_on_c, 4, 60, 95
5, 206400, Note_on_c, 4, 41, 95
5, 207360, Note_off_c, 4, 60, 95
5, 207360, Note_off_c, 4, 41, 95
5, 207360, Note_on_c, 4, 60, 95
5, 207840, Note_off_c, 4, 60, 95
5, 207840, Note_on_c, 4, 62, 95
5, 207840, Note_on_c, 4, 43, 95
5, 208800, Note_off_c, 4, 62, 95
5, 208800, Note_off_c, 4, 43, 95
5, 208800, Note_on_c, 4, 62, 95
5, 209280, Note_off_c, 4, 62, 95
5, 209280, Note_on_c, 4, 65, 95
5, 209280, Note_on_c, 4, 50, 95
5, 210000, Note_off_c, 4, 65, 95
5, 210000, Note_off_c, 4, 50, 95
5, 210000, Note_on_c, 4, 65, 95
5, 210240, Note_off_c, 4, 65, 95
5, 210240, Note_on_c, 4, 62, 95
5, 210480, Note_off_c, 4, 62, 95
5, 210480, Note_on_c, 4, 65, 95
5, 210720, Note_off_c, 4, 65, 95
5, 210720, Note_on_c, 4, 57, 95
5, 211680, Note_off_c, 4, 57, 95
5, 211680, Note_on_c, 4, 65, 95
5, 211920, Note_off_c, 4, 65, 95
5, 211920, Note_on_c, 4, 62, 95
5, 212160, Note_off_c, 4, 62, 95
5, 212160, Note_on_c, 4, 60, 95
5, 212160, Note_on_c, 4, 41, 95
5, 213120, Note_off_c, 4, 60, 95
5, 213120, Note_off_c, 4, 41, 95
5, 213120, Note_on_c, 4, 60, 95
5, 213600, Note_off_c, 4, 60, 95
5, 213600, Note_on_c, 4, 62, 95
5, 213600, Note_on_c, 4, 43, 95
5, 214560, Note_off_c, 4, 62, 95
5, 214560, Note_off_c, 4, 43, 95
5, 214560, Note_on_c, 4, 62, 95
5, 215040, Note_off_c, 4, 62, 95
5, 215040, Note_on_c, 4, 67, 95
5, 215040, Note_on_c, 4, 43, 95
5, 215520, Note_off_c, 4, 67, 95
5, 215520, Note_off_c, 4, 43, 95
5, 215520, Note_on_c, 4, 62, 95
5, 216000, Note_off_c, 4, 62, 95
5, 216000, Note_on_c, 4, 55, 95
5, 216480, Note_off_c, 4, 55, 95
5, 216480, Note_on_c, 4, 64, 95
5, 216480, Note_on_c, 4, 45, 95
5, 216960, Note_off_c, 4, 64, 95
5, 216960, Note_off_c, 4, 45, 95
5, 216960, Note_on_c, 4, 60, 95
5, 217440, Note_off_c, 4, 60, 95
5, 217440, Note_on_c, 4, 57, 95
5, 217920, Note_off_c, 4, 57, 95
5, 217920, Note_on_c, 4, 65, 95
5, 217920, Note_on_c, 4, 50, 95
5, 218640, Note_off_c, 4, 65, 95
5, 218640, Note_off_c, 4, 50, 95
5, 218640, Note_on_c, 4, 62, 95
5, 218880, Note_off_c, 4, 62, 95
5, 218880, Note_on_c, 4, 57, 95
5, 219360, Note_off_c, 4, 57, 95
5, 219360, Note_on_c, 4, 64, 95
5, 219360, Note_on_c, 4, 45, 95
5, 219840, Note_off_c, 4, 64, 95
5, 219840, Note_off_c, 4, 45, 95
5, 219840, Note_on_c, 4, 60, 95
5, 220320, Note_off_c, 4, 60, 95
5, 220320, Note_on_c, 4, 57, 95
5, 220800, Note_off_c, 4, 57, 95
5, 220800, Note_on_c, 4, 65, 95
5, 220800, Note_on_c, 4, 50, 95
5, 221520, Note_off_c, 4, 65, 95
5, 221520, Note_off_c, 4, 50, 95
5, 221520, Note_on_c, 4, 62, 95
5, 221760, Note_off_c, 4, 62, 95
5, 221760, Note_on_c, 4, 57, 95
5, 222240, Note_off_c, 4, 57, 95
5, 222240, Note_on_c, 4, 64, 95
5, 222240, Note_on_c, 4, 45, 95
5, 222720, Note_off_c, 4, 64, 95
5, 222720, Note_off_c, 4, 45, 95
5, 222720, Note_on_c, 4, 60, 95
5, 223200, Note_off_c, 4, 60, 95
5, 223200, Note_on_c, 4, 57, 95
5, 223680, Note_off_c, 4, 57, 95
5, 223680, Note_on_c, 4, 65, 95
5, 223680, Note_on_c, 4, 50, 95
5, 224400, Note_off_c, 4, 65, 95
5, 224400, Note_off_c, 4, 50, 95
5, 224400, Note_on_c, 4, 62, 95
5, 224640, Note_off_c, 4, 62, 95
5, 224640, Note_on_c, 4, 57, 95
5, 225120, Note_off_c, 4, 57, 95
5, 225120, Note_on_c, 4, 60, 95
5, 225120, Note_on_c, 4, 41, 95
5, 226080, Note_off_c, 4, 60, 95
5, 226080, Note_off_c, 4, 41, 95
5, 226080, Note_on_c, 4, 60, 95
5, 226560, Note_off_c, 4, 60, 95
5, 226560, Note_on_c, 4, 62, 95
5, 226560, Note_on_c, 4, 43, 95
5, 227520, Note_off_c, 4, 62, 95
5, 227520, Note_off_c, 4, 43, 95
5, 227520, Note_on_c, 4, 62, 95
5, 228000, Note_off_c, 4, 62, 95
5, 228000, Note_on_c, 4, 65, 95
5, 228000, Note_on_c, 4, 50, 95
5, 228720, Note_off_c, 4, 65, 95
5, 228720, Note_off_c, 4, 50, 95
5, 228720, Note_on_c, 4, 65, 95
5, 228960, Note_off_c, 4, 65, 95
5, 228960, Note_on_c, 4, 62, 95
5, 229200, Note_off_c, 4, 62, 95
5, 229200, Note_on_c, 4, 65, 95
5, 229440, Note_off_c, 4, 65, 95
5, 229440, Note_on_c, 4, 57, 95
5, 230400, Note_off_c, 4, 57, 95
5, 230400, Note_on_c, 4, 65, 95
5, 230640, Note_off_c, 4, 65, 95
5, 230640, Note_on_c, 4, 62, 95
5, 230880, Note_off_c, 4, 62, 95
5, 230880, Note_on_c, 4, 60, 95
5, 230880, Note_on_c, 4, 41, 95
5, 231840, Note_off_c, 4, 60, 95
5, 231840, Note_off_c, 4, 41, 95
5, 231840, Note_on_c, 4, 60, 95
5, 232320, Note_off_c, 4, 60, 95
5, 232320, Note_on_c, 4, 62, 95
5, 232320, Note_on_c, 4, 43, 95
5, 233280, Note_off_c, 4, 62, 95
5, 233760, Note_off_c, 4, 43, 95
5, 233760, End_track
6, 0, Start_track
6, 0, Pitch_bend_c, 5, 8192
6, 0, Control_c, 5, 7, 87
6, 0, Control_c, 5, 10, 63
6, 0, Control_c, 5, 93, 47
6, 0, Control_c, 5, 91, 87
6, 0, Control_c, 5, 95, 0
6, 0, Control_c, 5, 92, 0
6, 0, Control_c, 5, 11, 127
6, 0, Program_c, 5, 49
6, 244800, Note_on_c, 5, 60, 95
6, 244800, Note_on_c, 5, 45, 95
6, 245280, Note_off_c, 5, 60, 95
6, 245280, Note_off_c, 5, 45, 95
6, 245280, Note_on_c, 5, 64, 95
6, 245280, Note_on_c, 5, 48, 95
6, 245760, Note_off_c, 5, 64, 95
6, 245760, Note_off_c, 5, 48, 95
6, 245760, Note_on_c, 5, 60, 95
6, 246240, Note_off_c, 5, 60, 95
6, 246240, Note_on_c, 5, 55, 95
6, 246720, Note_off_c, 5, 55, 95
6, 246720, Note_on_c, 5, 67, 95
6, 246720, Note_on_c, 5, 43, 95
6, 247200, Note_off_c, 5, 67, 95
6, 247200, Note_off_c, 5, 43, 95
6, 247200, Note_on_c, 5, 62, 95
6, 247680, Note_off_c, 5, 62, 95
6, 247680, Note_on_c, 5, 55, 95
6, 248160, Note_off_c, 5, 55, 95
6, 248160, Note_on_c, 5, 64, 95
6, 248160, Note_on_c, 5, 45, 95
6, 248640, Note_off_c, 5, 64, 95
6, 248640, Note_off_c, 5, 45, 95
6, 248640, Note_on_c, 5, 60, 95
6, 249120, Note_off_c, 5, 60, 95
6, 249120, Note_on_c, 5, 57, 95
6, 249600, Note_off_c, 5, 57, 95
6, 249600, Note_on_c, 5, 52, 95
6, 250080, Note_off_c, 5, 52, 95
6, 250080, Note_on_c, 5, 57, 95
6, 250560, Note_off_c, 5, 57, 95
6, 250560, Note_on_c, 5, 60, 95
6, 251040, Note_off_c, 5, 60, 95
6, 251040, Note_on_c, 5, 64, 95
6, 251040, Note_on_c, 5, 48, 95
6, 251520, Note_off_c, 5, 64, 95
6, 251520, Note_off_c, 5, 48, 95
6, 251520, Note_on_c, 5, 60, 95
6, 252000, Note_off_c, 5, 60, 95
6, 252000, Note_on_c, 5, 55, 95
6, 252480, Note_off_c, 5, 55, 95
6, 252480, Note_on_c, 5, 67, 95
6, 252480, Note_on_c, 5, 43, 95
6, 252960, Note_off_c, 5, 67, 95
6, 252960, Note_off_c, 5, 43, 95
6, 252960, Note_on_c, 5, 62, 95
6, 253440, Note_off_c, 5, 62, 95
6, 253440, Note_on_c, 5, 55, 95
6, 253920, Note_off_c, 5, 55, 95
6, 253920, Note_on_c, 5, 64, 95
6, 253920, Note_on_c, 5, 45, 95
6, 254400, Note_off_c, 5, 64, 95
6, 254400, Note_off_c, 5, 45, 95
6, 254400, Note_on_c, 5, 57, 95
6, 254880, Note_off_c, 5, 57, 95
6, 254880, Note_on_c, 5, 60, 95
6, 255360, Note_off_c, 5, 60, 95
6, 255360, Note_on_c, 5, 59, 95
6, 255600, Note_off_c, 5, 59, 95
6, 255600, Note_on_c, 5, 60, 95
6, 255840, Note_off_c, 5, 60, 95
6, 255840, Note_on_c, 5, 57, 95
6, 256320, Note_off_c, 5, 57, 95
6, 256320, Note_on_c, 5, 60, 95
6, 256320, Note_on_c, 5, 45, 95
6, 256800, Note_off_c, 5, 60, 95
6, 256800, Note_off_c, 5, 45, 95
6, 256800, Note_on_c, 5, 64, 95
6, 256800, Note_on_c, 5, 48, 95
6, 257280, Note_off_c, 5, 64, 95
6, 257280, Note_off_c, 5, 48, 95
6, 257280, Note_on_c, 5, 60, 95
6, 257760, Note_off_c, 5, 60, 95
6, 257760, Note_on_c, 5, 55, 95
6, 258240, Note_off_c, 5, 55, 95
6, 258240, Note_on_c, 5, 67, 95
6, 258240, Note_on_c, 5, 43, 95
6, 258720, Note_off_c, 5, 67, 95
6, 258720, Note_off_c, 5, 43, 95
6, 258720, Note_on_c, 5, 62, 95
6, 259200, Note_off_c, 5, 62, 95
6, 259200, Note_on_c, 5, 55, 95
6, 259680, Note_off_c, 5, 55, 95
6, 259680, Note_on_c, 5, 64, 95
6, 259680, Note_on_c, 5, 45, 95
6, 260160, Note_off_c, 5, 64, 95
6, 260160, Note_off_c, 5, 45, 95
6, 260160, Note_on_c, 5, 60, 95
6, 260640, Note_off_c, 5, 60, 95
6, 260640, Note_on_c, 5, 57, 95
6, 261120, Note_off_c, 5, 57, 95
6, 261120, Note_on_c, 5, 52, 95
6, 261600, Note_off_c, 5, 52, 95
6, 261600, Note_on_c, 5, 57, 95
6, 262080, Note_off_c, 5, 57, 95
6, 262080, Note_on_c, 5, 60, 95
6, 262560, Note_off_c, 5, 60, 95
6, 262560, Note_on_c, 5, 64, 95
6, 262560, Note_on_c, 5, 48, 95
6, 263040, Note_off_c, 5, 64, 95
6, 263040, Note_off_c, 5, 48, 95
6, 263040, Note_on_c, 5, 60, 95
6, 263520, Note_off_c, 5, 60, 95
6, 263520, Note_on_c, 5, 55, 95
6, 264000, Note_off_c, 5, 55, 95
6, 264000, Note_on_c, 5, 67, 95
6, 264000, Note_on_c, 5, 43, 95
6, 264480, Note_off_c, 5, 67, 95
6, 264480, Note_off_c, 5, 43, 95
6, 264480, Note_on_c, 5, 62, 95
6, 264960, Note_off_c, 5, 62, 95
6, 264960, Note_on_c, 5, 55, 95
6, 265440, Note_off_c, 5, 55, 95
6, 265440, Note_on_c, 5, 64, 95
6, 265440, Note_on_c, 5, 45, 95
6, 265920, Note_off_c, 5, 64, 95
6, 265920, Note_off_c, 5, 45, 95
6, 265920, Note_on_c, 5, 57, 95
6, 266400, Note_off_c, 5, 57, 95
6, 266400, Note_on_c, 5, 60, 95
6, 266880, Note_off_c, 5, 60, 95
6, 266880, Note_on_c, 5, 59, 95
6, 267120, Note_off_c, 5, 59, 95
6, 267120, Note_on_c, 5, 60, 95
6, 267360, Note_off_c, 5, 60, 95
6, 267360, Note_on_c, 5, 57, 95
6, 267840, Note_off_c, 5, 57, 95
6, 267840, Note_on_c, 5, 45, 95
6, 268320, Note_off_c, 5, 45, 95
6, 268320, Note_on_c, 5, 64, 95
6, 268320, Note_on_c, 5, 48, 95
6, 268800, Note_off_c, 5, 64, 95
6, 268800, Note_off_c, 5, 48, 95
6, 268800, Note_on_c, 5, 60, 95
6, 269280, Note_off_c, 5, 60, 95
6, 269280, Note_on_c, 5, 55, 95
6, 269760, Note_off_c, 5, 55, 95
6, 269760, Note_on_c, 5, 67, 95
6, 269760, Note_on_c, 5, 43, 95
6, 270240, Note_off_c, 5, 67, 95
6, 270240, Note_off_c, 5, 43, 95
6, 270240, Note_on_c, 5, 62, 95
6, 270720, Note_off_c, 5, 62, 95
6, 270720, Note_on_c, 5, 55, 95
6, 271200, Note_off_c, 5, 55, 95
6, 271320, Note_on_c, 5, 40, 95
6, 272040, Note_off_c, 5, 40, 95
6, 272040, Note_on_c, 5, 52, 95
6, 272280, Note_off_c, 5, 52, 95
6, 272280, Note_on_c, 5, 55, 95
6, 272760, Note_off_c, 5, 55, 95
6, 272760, Note_on_c, 5, 59, 95
6, 273120, Note_off_c, 5, 59, 95
6, 273120, Note_on_c, 5, 64, 95
6, 278760, Note_off_c, 5, 64, 95
6, 278760, End_track
7, 0, Start_track
7, 0, Pitch_bend_c, 6, 8192
7, 0, Control_c, 6, 7, 111
7, 0, Control_c, 6, 10, 63
7, 0, Control_c, 6, 93, 0
7, 0, Control_c, 6, 91, 0
7, 0, Control_c, 6, 95, 0
7, 0, Control_c, 6, 92, 0
7, 0, Control_c, 6, 11, 127
7, 0, Program_c, 6, 85
7, 43200, Note_on_c, 6, 64, 95
7, 44160, Note_off_c, 6, 64, 95
7, 44160, Note_on_c, 6, 62, 95
7, 45120, Note_off_c, 6, 62, 95
7, 45120, Note_on_c, 6, 60, 95
7, 46080, Note_off_c, 6, 60, 95
7, 46080, Note_on_c, 6, 62, 95
7, 48000, Note_off_c, 6, 62, 95
7, 48960, Note_on_c, 6, 59, 95
7, 49920, Note_off_c, 6, 59, 95
7, 49920, Note_on_c, 6, 57, 95
7, 50880, Note_off_c, 6, 57, 95
7, 50880, Note_on_c, 6, 55, 95
7, 51840, Note_off_c, 6, 55, 95
7, 51840, Note_on_c, 6, 57, 95
7, 53760, Note_off_c, 6, 57, 95
7, 54480, Note_on_c, 6, 57, 95
7, 54720, Note_off_c, 6, 57, 95
7, 54720, Note_on_c, 6, 64, 95
7, 55440, Note_off_c, 6, 64, 95
7, 55440, Note_on_c, 6, 62, 95
7, 56160, Note_off_c, 6, 62, 95
7, 56160, Note_on_c, 6, 60, 95
7, 56640, Note_off_c, 6, 60, 95
7, 56640, Note_on_c, 6, 62, 95
7, 57960, Note_off_c, 6, 62, 95
7, 58560, Note_on_c, 6, 59, 95
7, 59280, Note_off_c, 6, 59, 95
7, 59280, Note_on_c, 6, 57, 95
7, 60000, Note_off_c, 6, 57, 95
7, 60000, Note_on_c, 6, 55, 95
7, 60480, Note_off_c, 6, 55, 95
7, 60480, Note_on_c, 6, 57, 95
7, 61920, Note_off_c, 6, 57, 95
7, 61920, Note_on_c, 6, 60, 95
7, 62160, Note_off_c, 6, 60, 95
7, 62160, Note_on_c, 6, 62, 95
7, 62400, Note_off_c, 6, 62, 95
7, 62400, Note_on_c, 6, 64, 95
7, 63120, Note_off_c, 6, 64, 95
7, 63120, Note_on_c, 6, 65, 95
7, 63840, Note_off_c, 6, 65, 95
7, 63840, Note_on_c, 6, 67, 95
7, 64320, Note_off_c, 6, 67, 95
7, 64320, Note_on_c, 6, 62, 95
7, 65760, Note_off_c, 6, 62, 95
7, 66240, Note_on_c, 6, 62, 95
7, 66960, Note_off_c, 6, 62, 95
7, 66960, Note_on_c, 6, 64, 95
7, 67680, Note_off_c, 6, 64, 95
7, 67680, Note_on_c, 6, 65, 95
7, 68160, Note_off_c, 6, 65, 95
7, 68160, Note_on_c, 6, 64, 95
7, 69720, Note_off_c, 6, 64, 95
7, 69840, Note_on_c, 6, 62, 95
7, 70080, Note_off_c, 6, 62, 95
7, 70080, Note_on_c, 6, 64, 95
7, 70800, Note_off_c, 6, 64, 95
7, 70800, Note_on_c, 6, 62, 95
7, 71520, Note_off_c, 6, 62, 95
7, 71640, Note_on_c, 6, 60, 95
7, 72000, Note_off_c, 6, 60, 95
7, 72000, Note_on_c, 6, 62, 95
7, 73440, Note_off_c, 6, 62, 95
7, 73440, Note_on_c, 6, 55, 95
7, 73680, Note_off_c, 6, 55, 95
7, 73680, Note_on_c, 6, 57, 95
7, 73920, Note_off_c, 6, 57, 95
7, 73920, Note_on_c, 6, 59, 95
7, 74640, Note_off_c, 6, 59, 95
7, 74640, Note_on_c, 6, 60, 95
7, 75360, Note_off_c, 6, 60, 95
7, 75360, Note_on_c, 6, 62, 95
7, 75840, Note_off_c, 6, 62, 95
7, 75840, Note_on_c, 6, 65, 95
7, 76080, Note_off_c, 6, 65, 95
7, 76080, Note_on_c, 6, 64, 95
7, 76320, Note_off_c, 6, 64, 95
7, 76320, Note_on_c, 6, 62, 95
7, 77280, Note_off_c, 6, 62, 95
7, 77280, Note_on_c, 6, 64, 95
7, 77640, Note_off_c, 6, 64, 95
7, 77760, Note_on_c, 6, 64, 95
7, 78720, Note_off_c, 6, 64, 95
7, 78720, Note_on_c, 6, 62, 95
7, 79680, Note_off_c, 6, 62, 95
7, 79680, Note_on_c, 6, 60, 95
7, 80640, Note_off_c, 6, 60, 95
7, 80640, Note_on_c, 6, 59, 95
7, 81600, Note_off_c, 6, 59, 95
7, 86400, Note_on_c, 6, 62, 95
7, 86880, Note_off_c, 6, 62, 95
7, 86880, Note_on_c, 6, 67, 95
7, 88320, Note_off_c, 6, 67, 95
7, 88320, Note_on_c, 6, 60, 95
7, 89880, Note_off_c, 6, 60, 95
7, 89880, Note_on_c, 6, 65, 95
7, 90480, Note_off_c, 6, 65, 95
7, 90480, Note_on_c, 6, 64, 95
7, 90720, Note_off_c, 6, 64, 95
7, 90720, Note_on_c, 6, 62, 95
7, 91200, Note_off_c, 6, 62, 95
7, 91200, Note_on_c, 6, 64, 95
7, 92640, Note_off_c, 6, 64, 95
7, 92640, Note_on_c, 6, 65, 95
7, 94080, Note_off_c, 6, 65, 95
7, 94080, Note_on_c, 6, 64, 95
7, 95520, Note_off_c, 6, 64, 95
7, 95520, Note_on_c, 6, 65, 95
7, 96240, Note_off_c, 6, 65, 95
7, 96240, Note_on_c, 6, 65, 95
7, 96480, Note_off_c, 6, 65, 95
7, 96480, Note_on_c, 6, 64, 95
7, 96960, Note_off_c, 6, 64, 95
7, 96960, Note_on_c, 6, 69, 95
7, 98400, Note_off_c, 6, 69, 95
7, 98400, Note_on_c, 6, 67, 95
7, 99840, Note_off_c, 6, 67, 95
7, 99840, Note_on_c, 6, 62, 95
7, 101280, Note_off_c, 6, 62, 95
7, 102720, Note_on_c, 6, 69, 95
7, 104160, Note_off_c, 6, 69, 95
7, 104160, Note_on_c, 6, 67, 95
7, 105120, Note_off_c, 6, 67, 95
7, 105120, Note_on_c, 6, 64, 95
7, 105600, Note_off_c, 6, 64, 95
7, 105600, Note_on_c, 6, 67, 95
7, 107040, Note_off_c, 6, 67, 95
7, 107040, Note_on_c, 6, 60, 95
7, 108480, Note_off_c, 6, 60, 95
7, 108480, Note_on_c, 6, 65, 95
7, 109920, Note_off_c, 6, 65, 95
7, 109920, Note_on_c, 6, 64, 95
7, 111360, Note_off_c, 6, 64, 95
7, 111360, Note_on_c, 6, 65, 95
7, 112800, Note_off_c, 6, 65, 95
7, 112800, Note_on_c, 6, 64, 95
7, 114240, Note_off_c, 6, 64, 95
7, 114240, Note_on_c, 6, 65, 95
7, 115680, Note_off_c, 6, 65, 95
7, 115680, Note_on_c, 6, 69, 95
7, 117120, Note_off_c, 6, 69, 95
7, 118080, Note_on_c, 6, 64, 95
7, 119040, Note_off_c, 6, 64, 95
7, 119040, Note_on_c, 6, 62, 95
7, 119520, Note_off_c, 6, 62, 95
7, 119520, Note_on_c, 6, 60, 95
7, 120000, Note_off_c, 6, 60, 95
7, 120000, Note_on_c, 6, 62, 95
7, 120480, Note_off_c, 6, 62, 95
7, 120480, Note_on_c, 6, 59, 95
7, 122880, Note_off_c, 6, 59, 95
7, 160800, Note_on_c, 6, 64, 95
7, 161160, Note_off_c, 6, 64, 95
7, 161280, Note_on_c, 6, 64, 95
7, 162000, Note_off_c, 6, 64, 95
7, 162000, Note_on_c, 6, 65, 95
7, 162720, Note_off_c, 6, 65, 95
7, 162720, Note_on_c, 6, 67, 95
7, 163200, Note_off_c, 6, 67, 95
7, 163200, Note_on_c, 6, 62, 95
7, 165000, Note_off_c, 6, 62, 95
7, 165120, Note_on_c, 6, 62, 95
7, 165840, Note_off_c, 6, 62, 95
7, 166320, Note_on_c, 6, 64, 95
7, 166560, Note_off_c, 6, 64, 95
7, 166560, Note_on_c, 6, 65, 95
7, 167040, Note_off_c, 6, 65, 95
7, 167040, Note_on_c, 6, 64, 95
7, 168000, Note_off_c, 6, 64, 95
7, 168960, Note_on_c, 6, 64, 111
7, 169680, Note_off_c, 6, 64, 111
7, 169680, Note_on_c, 6, 65, 111
7, 170400, Note_off_c, 6, 65, 111
7, 170400, Note_on_c, 6, 67, 111
7, 170880, Note_off_c, 6, 67, 111
7, 170880, Note_on_c, 6, 67, 127
7, 171360, Note_off_c, 6, 67, 127
7, 171600, Note_on_c, 6, 62, 95
7, 172560, Note_off_c, 6, 62, 95
7, 172560, Note_on_c, 6, 62, 111
7, 172800, Note_off_c, 6, 62, 111
7, 172800, Note_on_c, 6, 62, 111
7, 173520, Note_off_c, 6, 62, 111
7, 173520, Note_on_c, 6, 64, 95
7, 174240, Note_off_c, 6, 64, 95
7, 174240, Note_on_c, 6, 65, 111
7, 174720, Note_off_c, 6, 65, 111
7, 174720, Note_on_c, 6, 64, 111
7, 175680, Note_off_c, 6, 64, 111
7, 176160, Note_on_c, 6, 57, 95
7, 176400, Note_off_c, 6, 57, 95
7, 176400, Note_on_c, 6, 57, 95
7, 176640, Note_off_c, 6, 57, 95
7, 176640, Note_on_c, 6, 64, 111
7, 177360, Note_off_c, 6, 64, 111
7, 177360, Note_on_c, 6, 62, 95
7, 178080, Note_off_c, 6, 62, 95
7, 178080, Note_on_c, 6, 60, 95
7, 178560, Note_off_c, 6, 60, 95
7, 178560, Note_on_c, 6, 62, 95
7, 178800, Note_off_c, 6, 62, 95
7, 178800, Note_on_c, 6, 60, 95
7, 179280, Note_off_c, 6, 60, 95
7, 179280, Note_on_c, 6, 62, 95
7, 180000, Note_off_c, 6, 62, 95
7, 180240, Note_on_c, 6, 59, 95
7, 180480, Note_off_c, 6, 59, 95
7, 180480, Note_on_c, 6, 59, 95
7, 181200, Note_off_c, 6, 59, 95
7, 181200, Note_on_c, 6, 60, 95
7, 181920, Note_off_c, 6, 60, 95
7, 181920, Note_on_c, 6, 62, 95
7, 182400, Note_off_c, 6, 62, 95
7, 182400, Note_on_c, 6, 60, 95
7, 183360, Note_off_c, 6, 60, 95
7, 184320, Note_on_c, 6, 64, 95
7, 185040, Note_off_c, 6, 64, 95
7, 185040, Note_on_c, 6, 65, 95
7, 185760, Note_off_c, 6, 65, 95
7, 185760, Note_on_c, 6, 67, 95
7, 186240, Note_off_c, 6, 67, 95
7, 186240, Note_on_c, 6, 67, 95
7, 186960, Note_off_c, 6, 67, 95
7, 186960, Note_on_c, 6, 62, 95
7, 187680, Note_off_c, 6, 62, 95
7, 187680, Note_on_c, 6, 62, 95
7, 187920, Note_off_c, 6, 62, 95
7, 187920, Note_on_c, 6, 62, 95
7, 188160, Note_off_c, 6, 62, 95
7, 188160, Note_on_c, 6, 62, 95
7, 188880, Note_off_c, 6, 62, 95
7, 188880, Note_on_c, 6, 60, 95
7, 189600, Note_off_c, 6, 60, 95
7, 189600, Note_on_c, 6, 62, 95
7, 190080, Note_off_c, 6, 62, 95
7, 190080, Note_on_c, 6, 65, 95
7, 190320, Note_off_c, 6, 65, 95
7, 190320, Note_on_c, 6, 64, 95
7, 190560, Note_off_c, 6, 64, 95
7, 190560, Note_on_c, 6, 62, 95
7, 191040, Note_off_c, 6, 62, 95
7, 191520, Note_on_c, 6, 57, 95
7, 192000, Note_off_c, 6, 57, 95
7, 192000, Note_on_c, 6, 64, 95
7, 192000, Note_on_c, 6, 60, 95
7, 192960, Note_off_c, 6, 64, 95
7, 192960, Note_off_c, 6, 60, 95
7, 192960, Note_on_c, 6, 62, 95
7, 193920, Note_off_c, 6, 62, 95
7, 193920, Note_on_c, 6, 60, 95
7, 194880, Note_off_c, 6, 60, 95
7, 194880, Note_on_c, 6, 59, 95
7, 195600, Note_off_c, 6, 59, 95
7, 195840, Note_on_c, 6, 67, 95
7, 197760, Note_off_c, 6, 67, 95
7, 197760, Note_on_c, 6, 60, 95
7, 199320, Note_off_c, 6, 60, 95
7, 199320, Note_on_c, 6, 65, 95
7, 199920, Note_off_c, 6, 65, 95
7, 199920, Note_on_c, 6, 64, 95
7, 200160, Note_off_c, 6, 64, 95
7, 200160, Note_on_c, 6, 62, 95
7, 200640, Note_off_c, 6, 62, 95
7, 200640, Note_on_c, 6, 64, 95
7, 202080, Note_off_c, 6, 64, 95
7, 202080, Note_on_c, 6, 65, 95
7, 203520, Note_off_c, 6, 65, 95
7, 203520, Note_on_c, 6, 64, 95
7, 204960, Note_off_c, 6, 64, 95
7, 204960, Note_on_c, 6, 65, 95
7, 205680, Note_off_c, 6, 65, 95
7, 205680, Note_on_c, 6, 65, 95
7, 205920, Note_off_c, 6, 65, 95
7, 205920, Note_on_c, 6, 64, 95
7, 206400, Note_off_c, 6, 64, 95
7, 206400, Note_on_c, 6, 69, 95
7, 207840, Note_off_c, 6, 69, 95
7, 207840, Note_on_c, 6, 67, 95
7, 209280, Note_off_c, 6, 67, 95
7, 209280, Note_on_c, 6, 62, 95
7, 210720, Note_off_c, 6, 62, 95
7, 212160, Note_on_c, 6, 69, 95
7, 213600, Note_off_c, 6, 69, 95
7, 213600, Note_on_c, 6, 67, 95
7, 215040, Note_off_c, 6, 67, 95
7, 215040, Note_on_c, 6, 69, 95
7, 216480, Note_off_c, 6, 69, 95
7, 216480, Note_on_c, 6, 64, 95
7, 217920, Note_off_c, 6, 64, 95
7, 217920, Note_on_c, 6, 65, 95
7, 219360, Note_off_c, 6, 65, 95
7, 219360, Note_on_c, 6, 64, 95
7, 220800, Note_off_c, 6, 64, 95
7, 220800, Note_on_c, 6, 65, 95
7, 222240, Note_off_c, 6, 65, 95
7, 222240, Note_on_c, 6, 64, 95
7, 223680, Note_off_c, 6, 64, 95
7, 223680, Note_on_c, 6, 65, 95
7, 225120, Note_off_c, 6, 65, 95
7, 225120, Note_on_c, 6, 69, 95
7, 226560, Note_off_c, 6, 69, 95
7, 226560, Note_on_c, 6, 71, 95
7, 227520, Note_off_c, 6, 71, 95
7, 227520, Note_on_c, 6, 67, 95
7, 228000, Note_off_c, 6, 67, 95
7, 228000, Note_on_c, 6, 69, 95
7, 229440, Note_off_c, 6, 69, 95
7, 230880, Note_on_c, 6, 60, 95
7, 231840, Note_off_c, 6, 60, 95
7, 231840, Note_on_c, 6, 60, 95
7, 232320, Note_off_c, 6, 60, 95
7, 232320, Note_on_c, 6, 62, 95
7, 233280, Note_off_c, 6, 62, 95
7, 233280, Note_on_c, 6, 62, 95
7, 233760, Note_off_c, 6, 62, 95
7, 233760, Note_on_c, 6, 60, 95
7, 235200, Note_off_c, 6, 60, 95
7, 235200, Note_on_c, 6, 62, 95
7, 236640, Note_off_c, 6, 62, 95
7, 236640, Note_on_c, 6, 64, 95
7, 238080, Note_off_c, 6, 64, 95
7, 239040, Note_on_c, 6, 57, 95
7, 239520, Note_off_c, 6, 57, 95
7, 239520, Note_on_c, 6, 60, 95
7, 240960, Note_off_c, 6, 60, 95
7, 240960, Note_on_c, 6, 62, 95
7, 241920, Note_off_c, 6, 62, 95
7, 241920, Note_on_c, 6, 59, 95
7, 242400, Note_off_c, 6, 59, 95
7, 242400, Note_on_c, 6, 59, 95
7, 242640, Note_off_c, 6, 59, 95
7, 242640, Note_on_c, 6, 55, 95
7, 242880, Note_off_c, 6, 55, 95
7, 242880, Note_on_c, 6, 57, 95
7, 244080, Note_off_c, 6, 57, 95
7, 245280, Note_on_c, 6, 60, 95
7, 246240, Note_off_c, 6, 60, 95
7, 246240, Note_on_c, 6, 60, 95
7, 246720, Note_off_c, 6, 60, 95
7, 246720, Note_on_c, 6, 59, 95
7, 247680, Note_off_c, 6, 59, 95
7, 247680, Note_on_c, 6, 59, 95
7, 248160, Note_off_c, 6, 59, 95
7, 248160, Note_on_c, 6, 57, 95
7, 249120, Note_off_c, 6, 57, 95
7, 249120, Note_on_c, 6, 52, 95
7, 249600, Note_off_c, 6, 52, 95
7, 249600, Note_on_c, 6, 52, 95
7, 250560, Note_off_c, 6, 52, 95
7, 250560, Note_on_c, 6, 60, 95
7, 251040, Note_off_c, 6, 60, 95
7, 251040, Note_on_c, 6, 60, 95
7, 252000, Note_off_c, 6, 60, 95
7, 252000, Note_on_c, 6, 62, 95
7, 252480, Note_off_c, 6, 62, 95
7, 252480, Note_on_c, 6, 62, 95
7, 253440, Note_off_c, 6, 62, 95
7, 253440, Note_on_c, 6, 64, 95
7, 253920, Note_off_c, 6, 64, 95
7, 253920, Note_on_c, 6, 64, 95
7, 256320, Note_off_c, 6, 64, 95
7, 256320, Note_on_c, 6, 64, 95
7, 256800, Note_off_c, 6, 64, 95
7, 256800, Note_on_c, 6, 64, 95
7, 257760, Note_off_c, 6, 64, 95
7, 257760, Note_on_c, 6, 64, 95
7, 258240, Note_off_c, 6, 64, 95
7, 258240, Note_on_c, 6, 62, 95
7, 258720, Note_off_c, 6, 62, 95
7, 258720, Note_on_c, 6, 62, 95
7, 259200, Note_off_c, 6, 62, 95
7, 259200, Note_on_c, 6, 62, 95
7, 259680, Note_off_c, 6, 62, 95
7, 259680, Note_on_c, 6, 60, 95
7, 260640, Note_off_c, 6, 60, 95
7, 260640, Note_on_c, 6, 57, 95
7, 261120, Note_off_c, 6, 57, 95
7, 261120, Note_on_c, 6, 57, 95
7, 262080, Note_off_c, 6, 57, 95
7, 262080, Note_on_c, 6, 64, 95
7, 262560, Note_off_c, 6, 64, 95
7, 262560, Note_on_c, 6, 64, 95
7, 263520, Note_off_c, 6, 64, 95
7, 263520, Note_on_c, 6, 64, 95
7, 264000, Note_off_c, 6, 64, 95
7, 264000, Note_on_c, 6, 67, 127
7, 264960, Note_off_c, 6, 67, 127
7, 264960, Note_on_c, 6, 67, 111
7, 265440, Note_off_c, 6, 67, 111
7, 265440, Note_on_c, 6, 64, 95
7, 267360, Note_off_c, 6, 64, 95
7, 267840, Note_on_c, 6, 57, 95
7, 268080, Note_off_c, 6, 57, 95
7, 268080, Note_on_c, 6, 59, 95
7, 268320, Note_off_c, 6, 59, 95
7, 268320, Note_on_c, 6, 60, 95
7, 269760, Note_off_c, 6, 60, 95
7, 269760, Note_on_c, 6, 62, 95
7, 271920, Note_off_c, 6, 62, 95
7, 271920, Note_on_c, 6, 59, 95
7, 275520, Note_off_c, 6, 59, 95
7, 275520, End_track
8, 0, Start_track
8, 0, Pitch_bend_c, 7, 8192
8, 0, Control_c, 7, 7, 47
8, 0, Control_c, 7, 10, 63
8, 0, Control_c, 7, 93, 0
8, 0, Control_c, 7, 91, 0
8, 0, Control_c, 7, 95, 0
8, 0, Control_c, 7, 92, 0
8, 0, Control_c, 7, 11, 127
8, 0, Program_c, 7, 35
8, 86880, Note_on_c, 7, 43, 95
8, 88320, Note_off_c, 7, 43, 95
8, 88320, Note_on_c, 7, 45, 95
8, 89760, Note_off_c, 7, 45, 95
8, 91200, Note_on_c, 7, 45, 95
8, 92640, Note_off_c, 7, 45, 95
8, 94080, Note_on_c, 7, 45, 95
8, 95520, Note_off_c, 7, 45, 95
8, 96960, Note_on_c, 7, 41, 95
8, 97920, Note_off_c, 7, 41, 95
8, 97920, Note_on_c, 7, 41, 95
8, 98280, Note_off_c, 7, 41, 95
8, 98280, Note_on_c, 7, 41, 95
8, 98400, Note_off_c, 7, 41, 95
8, 98400, Note_on_c, 7, 43, 95
8, 99840, Note_off_c, 7, 43, 95
8, 102720, Note_on_c, 7, 41, 95
8, 103680, Note_off_c, 7, 41, 95
8, 103680, Note_on_c, 7, 41, 95
8, 104040, Note_off_c, 7, 41, 95
8, 104040, Note_on_c, 7, 41, 95
8, 104160, Note_off_c, 7, 41, 95
8, 104160, Note_on_c, 7, 42, 95
8, 105600, Note_off_c, 7, 42, 95
8, 105600, Note_on_c, 7, 43, 95
8, 107040, Note_off_c, 7, 43, 95
8, 107040, Note_on_c, 7, 45, 95
8, 108480, Note_off_c, 7, 45, 95
8, 109920, Note_on_c, 7, 45, 95
8, 111360, Note_off_c, 7, 45, 95
8, 112800, Note_on_c, 7, 45, 95
8, 114240, Note_off_c, 7, 45, 95
8, 115680, Note_on_c, 7, 41, 95
8, 118080, Note_off_c, 7, 41, 95
8, 196320, Note_on_c, 7, 43, 95
8, 197760, Note_off_c, 7, 43, 95
8, 197760, Note_on_c, 7, 45, 95
8, 199200, Note_off_c, 7, 45, 95
8, 200640, Note_on_c, 7, 45, 95
8, 202080, Note_off_c, 7, 45, 95
8, 203520, Note_on_c, 7, 45, 95
8, 204960, Note_off_c, 7, 45, 95
8, 206400, Note_on_c, 7, 41, 95
8, 207360, Note_off_c, 7, 41, 95
8, 207360, Note_on_c, 7, 41, 95
8, 207720, Note_off_c, 7, 41, 95
8, 207720, Note_on_c, 7, 41, 95
8, 207840, Note_off_c, 7, 41, 95
8, 207840, Note_on_c, 7, 43, 95
8, 209280, Note_off_c, 7, 43, 95
8, 212160, Note_on_c, 7, 41, 95
8, 213120, Note_off_c, 7, 41, 95
8, 213120, Note_on_c, 7, 41, 95
8, 213480, Note_off_c, 7, 41, 95
8, 213480, Note_on_c, 7, 41, 95
8, 213600, Note_off_c, 7, 41, 95
8, 213600, Note_on_c, 7, 42, 95
8, 215040, Note_off_c, 7, 42, 95
8, 215040, Note_on_c, 7, 43, 95
8, 216480, Note_off_c, 7, 43, 95
8, 216480, Note_on_c, 7, 45, 95
8, 217920, Note_off_c, 7, 45, 95
8, 219360, Note_on_c, 7, 45, 95
8, 220800, Note_off_c, 7, 45, 95
8, 222240, Note_on_c, 7, 45, 95
8, 223680, Note_off_c, 7, 45, 95
8, 225120, Note_on_c, 7, 41, 95
8, 226080, Note_off_c, 7, 41, 95
8, 226080, Note_on_c, 7, 41, 95
8, 226440, Note_off_c, 7, 41, 95
8, 226440, Note_on_c, 7, 41, 95
8, 226560, Note_off_c, 7, 41, 95
8, 226560, Note_on_c, 7, 42, 95
8, 227520, Note_off_c, 7, 42, 95
8, 230880, Note_on_c, 7, 41, 95
8, 231840, Note_off_c, 7, 41, 95
8, 231840, Note_on_c, 7, 41, 95
8, 232200, Note_off_c, 7, 41, 95
8, 232200, Note_on_c, 7, 41, 95
8, 232320, Note_off_c, 7, 41, 95
8, 232320, Note_on_c, 7, 42, 95
8, 233280, Note_off_c, 7, 42, 95
8, 233280, End_track
9, 0, Start_track
9, 0, Pitch_bend_c, 8, 8192
9, 0, Control_c, 8, 7, 111
9, 0, Control_c, 8, 10, 63
9, 0, Control_c, 8, 93, 0
9, 0, Control_c, 8, 91, 31
9, 0, Control_c, 8, 95, 0
9, 0, Control_c, 8, 92, 0
9, 0, Control_c, 8, 11, 127
9, 0, Program_c, 8, 25
9, 0, Note_on_c, 8, 64, 95
9, 0, Note_on_c, 8, 45, 95
9, 960, Note_off_c, 8, 64, 95
9, 960, Note_off_c, 8, 45, 95
9, 960, Note_on_c, 8, 62, 95
9, 1440, Note_off_c, 8, 62, 95
9, 1440, Note_on_c, 8, 60, 95
9, 1920, Note_off_c, 8, 60, 95
9, 1920, Note_on_c, 8, 59, 95
9, 2880, Note_off_c, 8, 59, 95
9, 2880, Note_on_c, 8, 59, 95
9, 2880, Note_on_c, 8, 43, 95
9, 3840, Note_off_c, 8, 59, 95
9, 3840, Note_off_c, 8, 43, 95
9, 3840, Note_on_c, 8, 60, 95
9, 4320, Note_off_c, 8, 60, 95
9, 4320, Note_on_c, 8, 59, 95
9, 4800, Note_off_c, 8, 59, 95
9, 4800, Note_on_c, 8, 55, 95
9, 5760, Note_off_c, 8, 55, 95
9, 5760, Note_on_c, 8, 59, 95
9, 5760, Note_on_c, 8, 40, 95
9, 6720, Note_off_c, 8, 59, 95
9, 6720, Note_off_c, 8, 40, 95
9, 6720, Note_on_c, 8, 57, 95
9, 7680, Note_off_c, 8, 57, 95
9, 7680, Note_on_c, 8, 55, 95
9, 8640, Note_off_c, 8, 55, 95
9, 8640, Note_on_c, 8, 60, 95
9, 8640, Note_on_c, 8, 45, 95
9, 9600, Note_off_c, 8, 60, 95
9, 9600, Note_off_c, 8, 45, 95
9, 9600, Note_on_c, 8, 62, 95
9, 10080, Note_off_c, 8, 62, 95
9, 10080, Note_on_c, 8, 60, 95
9, 10560, Note_off_c, 8, 60, 95
9, 10560, Note_on_c, 8, 59, 95
9, 11040, Note_off_c, 8, 59, 95
9, 11040, Note_on_c, 8, 60, 95
9, 11520, Note_off_c, 8, 60, 95
9, 11520, Note_on_c, 8, 64, 95
9, 11520, Note_on_c, 8, 45, 95
9, 12480, Note_off_c, 8, 64, 95
9, 12480, Note_off_c, 8, 45, 95
9, 12480, Note_on_c, 8, 62, 95
9, 12960, Note_off_c, 8, 62, 95
9, 12960, Note_on_c, 8, 60, 95
9, 13440, Note_off_c, 8, 60, 95
9, 13440, Note_on_c, 8, 59, 95
9, 14400, Note_off_c, 8, 59, 95
9, 14400, Note_on_c, 8, 59, 95
9, 14400, Note_on_c, 8, 43, 95
9, 15360, Note_off_c, 8, 59, 95
9, 15360, Note_off_c, 8, 43, 95
9, 15360, Note_on_c, 8, 60, 95
9, 15840, Note_off_c, 8, 60, 95
9, 15840, Note_on_c, 8, 59, 95
9, 16320, Note_off_c, 8, 59, 95
9, 16320, Note_on_c, 8, 55, 95
9, 17280, Note_off_c, 8, 55, 95
9, 17280, Note_on_c, 8, 59, 95
9, 17280, Note_on_c, 8, 40, 95
9, 18240, Note_off_c, 8, 59, 95
9, 18240, Note_off_c, 8, 40, 95
9, 18240, Note_on_c, 8, 57, 95
9, 19200, Note_off_c, 8, 57, 95
9, 19200, Note_on_c, 8, 55, 95
9, 20160, Note_off_c, 8, 55, 95
9, 20160, Note_on_c, 8, 57, 95
9, 20160, Note_on_c, 8, 45, 95
9, 23040, Note_off_c, 8, 57, 95
9, 23040, Note_off_c, 8, 45, 95
9, 23040, Note_on_c, 8, 64, 95
9, 23040, Note_on_c, 8, 45, 95
9, 24000, Note_off_c, 8, 64, 95
9, 24000, Note_off_c, 8, 45, 95
9, 24000, Note_on_c, 8, 62, 95
9, 24480, Note_off_c, 8, 62, 95
9, 24480, Note_on_c, 8, 60, 95
9, 24960, Note_off_c, 8, 60, 95
9, 24960, Note_on_c, 8, 59, 95
9, 25920, Note_off_c, 8, 59, 95
9, 25920, Note_on_c, 8, 59, 95
9, 25920, Note_on_c, 8, 43, 95
9, 26880, Note_off_c, 8, 59, 95
9, 26880, Note_off_c, 8, 43, 95
9, 26880, Note_on_c, 8, 60, 95
9, 27360, Note_off_c, 8, 60, 95
9, 27360, Note_on_c, 8, 59, 95
9, 27840, Note_off_c, 8, 59, 95
9, 27840, Note_on_c, 8, 55, 95
9, 28800, Note_off_c, 8, 55, 95
9, 28800, Note_on_c, 8, 59, 95
9, 28800, Note_on_c, 8, 40, 95
9, 29760, Note_off_c, 8, 59, 95
9, 29760, Note_off_c, 8, 40, 95
9, 29760, Note_on_c, 8, 57, 95
9, 30720, Note_off_c, 8, 57, 95
9, 30720, Note_on_c, 8, 55, 95
9, 31680, Note_off_c, 8, 55, 95
9, 31680, Note_on_c, 8, 60, 95
9, 31680, Note_on_c, 8, 45, 95
9, 32640, Note_off_c, 8, 60, 95
9, 32640, Note_off_c, 8, 45, 95
9, 32640, Note_on_c, 8, 62, 95
9, 33120, Note_off_c, 8, 62, 95
9, 33120, Note_on_c, 8, 60, 95
9, 33600, Note_off_c, 8, 60, 95
9, 33600, Note_on_c, 8, 59, 95
9, 34080, Note_off_c, 8, 59, 95
9, 34080, Note_on_c, 8, 60, 95
9, 34560, Note_off_c, 8, 60, 95
9, 34560, Note_on_c, 8, 64, 95
9, 34560, Note_on_c, 8, 45, 95
9, 35520, Note_off_c, 8, 64, 95
9, 35520, Note_off_c, 8, 45, 95
9, 35520, Note_on_c, 8, 62, 95
9, 36000, Note_off_c, 8, 62, 95
9, 36000, Note_on_c, 8, 60, 95
9, 36480, Note_off_c, 8, 60, 95
9, 36480, Note_on_c, 8, 59, 95
9, 37440, Note_off_c, 8, 59, 95
9, 37440, Note_on_c, 8, 59, 95
9, 37440, Note_on_c, 8, 43, 95
9, 38400, Note_off_c, 8, 59, 95
9, 38400, Note_off_c, 8, 43, 95
9, 38400, Note_on_c, 8, 60, 95
9, 38880, Note_off_c, 8, 60, 95
9, 38880, Note_on_c, 8, 59, 95
9, 39360, Note_off_c, 8, 59, 95
9, 39360, Note_on_c, 8, 55, 95
9, 40320, Note_off_c, 8, 55, 95
9, 40320, Note_on_c, 8, 59, 95
9, 40320, Note_on_c, 8, 40, 95
9, 41280, Note_off_c, 8, 59, 95
9, 41280, Note_off_c, 8, 40, 95
9, 41280, Note_on_c, 8, 57, 95
9, 42240, Note_off_c, 8, 57, 95
9, 42240, Note_on_c, 8, 55, 95
9, 43200, Note_off_c, 8, 55, 95
9, 43200, Note_on_c, 8, 64, 95
9, 43200, Note_on_c, 8, 45, 95
9, 44160, Note_off_c, 8, 64, 95
9, 44160, Note_off_c, 8, 45, 95
9, 44160, Note_on_c, 8, 62, 95
9, 45120, Note_off_c, 8, 62, 95
9, 45120, Note_on_c, 8, 60, 95
9, 46080, Note_off_c, 8, 60, 95
9, 46080, Note_on_c, 8, 62, 95
9, 46080, Note_on_c, 8, 43, 95
9, 48480, Note_off_c, 8, 62, 95
9, 48480, Note_off_c, 8, 43, 95
9, 48960, Note_on_c, 8, 59, 95
9, 48960, Note_on_c, 8, 40, 95
9, 49920, Note_off_c, 8, 59, 95
9, 49920, Note_off_c, 8, 40, 95
9, 49920, Note_on_c, 8, 60, 95
9, 50880, Note_off_c, 8, 60, 95
9, 50880, Note_on_c, 8, 59, 95
9, 51840, Note_off_c, 8, 59, 95
9, 51840, Note_on_c, 8, 57, 95
9, 51840, Note_on_c, 8, 45, 95
9, 54240, Note_off_c, 8, 57, 95
9, 54240, Note_off_c, 8, 45, 95
9, 54720, Note_on_c, 8, 64, 95
9, 54720, Note_on_c, 8, 45, 95
9, 54960, Note_off_c, 8, 64, 95
9, 54960, Note_off_c, 8, 45, 95
9, 54960, Note_on_c, 8, 60, 95
9, 55200, Note_off_c, 8, 60, 95
9, 55200, Note_on_c, 8, 57, 95
9, 55440, Note_off_c, 8, 57, 95
9, 55440, Note_on_c, 8, 62, 95
9, 55680, Note_off_c, 8, 62, 95
9, 55680, Note_on_c, 8, 57, 95
9, 55920, Note_off_c, 8, 57, 95
9, 55920, Note_on_c, 8, 52, 95
9, 56160, Note_off_c, 8, 52, 95
9, 56160, Note_on_c, 8, 60, 95
9, 56400, Note_off_c, 8, 60, 95
9, 56400, Note_on_c, 8, 57, 95
9, 56640, Note_off_c, 8, 57, 95
9, 56640, Note_on_c, 8, 62, 95
9, 56640, Note_on_c, 8, 43, 95
9, 56880, Note_off_c, 8, 62, 95
9, 56880, Note_off_c, 8, 43, 95
9, 56880, Note_on_c, 8, 55, 95
9, 57120, Note_off_c, 8, 55, 95
9, 57120, Note_on_c, 8, 50, 95
9, 57360, Note_off_c, 8, 50, 95
9, 57360, Note_on_c, 8, 60, 95
9, 57600, Note_off_c, 8, 60, 95
9, 57600, Note_on_c, 8, 55, 95
9, 57840, Note_off_c, 8, 55, 95
9, 57840, Note_on_c, 8, 50, 95
9, 58080, Note_off_c, 8, 50, 95
9, 58080, Note_on_c, 8, 59, 95
9, 58320, Note_off_c, 8, 59, 95
9, 58320, Note_on_c, 8, 55, 95
9, 58560, Note_off_c, 8, 55, 95
9, 58560, Note_on_c, 8, 59, 95
9, 58560, Note_on_c, 8, 40, 95
9, 58800, Note_off_c, 8, 59, 95
9, 58800, Note_off_c, 8, 40, 95
9, 58800, Note_on_c, 8, 55, 95
9, 59040, Note_off_c, 8, 55, 95
9, 59040, Note_on_c, 8, 52, 95
9, 59280, Note_off_c, 8, 52, 95
9, 59280, Note_on_c, 8, 57, 95
9, 59520, Note_off_c, 8, 57, 95
9, 59520, Note_on_c, 8, 55, 95
9, 59760, Note_off_c, 8, 55, 95
9, 59760, Note_on_c, 8, 52, 95
9, 60000, Note_off_c, 8, 52, 95
9, 60000, Note_on_c, 8, 55, 95
9, 60240, Note_off_c, 8, 55, 95
9, 60240, Note_on_c, 8, 52, 95
9, 60480, Note_off_c, 8, 52, 95
9, 60480, Note_on_c, 8, 60, 95
9, 60480, Note_on_c, 8, 45, 95
9, 60720, Note_off_c, 8, 60, 95
9, 60720, Note_off_c, 8, 45, 95
9, 60720, Note_on_c, 8, 57, 95
9, 60960, Note_off_c, 8, 57, 95
9, 60960, Note_on_c, 8, 52, 95
9, 61200, Note_off_c, 8, 52, 95
9, 61200, Note_on_c, 8, 59, 95
9, 61440, Note_off_c, 8, 59, 95
9, 61440, Note_on_c, 8, 57, 95
9, 61680, Note_off_c, 8, 57, 95
9, 61680, Note_on_c, 8, 52, 95
9, 61920, Note_off_c, 8, 52, 95
9, 61920, Note_on_c, 8, 60, 95
9, 62160, Note_off_c, 8, 60, 95
9, 62160, Note_on_c, 8, 57, 95
9, 62400, Note_off_c, 8, 57, 95
9, 62400, Note_on_c, 8, 64, 95
9, 62400, Note_on_c, 8, 45, 95
9, 62640, Note_off_c, 8, 64, 95
9, 62640, Note_off_c, 8, 45, 95
9, 62640, Note_on_c, 8, 60, 95
9, 62880, Note_off_c, 8, 60, 95
9, 62880, Note_on_c, 8, 57, 95
9, 63120, Note_off_c, 8, 57, 95
9, 63120, Note_on_c, 8, 62, 95
9, 63360, Note_off_c, 8, 62, 95
9, 63360, Note_on_c, 8, 57, 95
9, 63600, Note_off_c, 8, 57, 95
9, 63600, Note_on_c, 8, 52, 95
9, 63840, Note_off_c, 8, 52, 95
9, 63840, Note_on_c, 8, 60, 95
9, 64080, Note_off_c, 8, 60, 95
9, 64080, Note_on_c, 8, 57, 95
9, 64320, Note_off_c, 8, 57, 95
9, 64320, Note_on_c, 8, 62, 95
9, 64320, Note_on_c, 8, 43, 95
9, 64560, Note_off_c, 8, 62, 95
9, 64560, Note_off_c, 8, 43, 95
9, 64560, Note_on_c, 8, 55, 95
9, 64800, Note_off_c, 8, 55, 95
9, 64800, Note_on_c, 8, 50, 95
9, 65040, Note_off_c, 8, 50, 95
9, 65040, Note_on_c, 8, 60, 95
9, 65280, Note_off_c, 8, 60, 95
9, 65280, Note_on_c, 8, 55, 95
9, 65520, Note_off_c, 8, 55, 95
9, 65520, Note_on_c, 8, 50, 95
9, 65760, Note_off_c, 8, 50, 95
9, 65760, Note_on_c, 8, 59, 95
9, 66000, Note_off_c, 8, 59, 95
9, 66000, Note_on_c, 8, 55, 95
9, 66240, Note_off_c, 8, 55, 95
9, 66240, Note_on_c, 8, 59, 95
9, 66240, Note_on_c, 8, 40, 95
9, 66480, Note_off_c, 8, 59, 95
9, 66480, Note_off_c, 8, 40, 95
9, 66480, Note_on_c, 8, 55, 95
9, 66720, Note_off_c, 8, 55, 95
9, 66720, Note_on_c, 8, 52, 95
9, 66960, Note_off_c, 8, 52, 95
9, 66960, Note_on_c, 8, 57, 95
9, 67200, Note_off_c, 8, 57, 95
9, 67200, Note_on_c, 8, 55, 95
9, 67440, Note_off_c, 8, 55, 95
9, 67440, Note_on_c, 8, 52, 95
9, 67680, Note_off_c, 8, 52, 95
9, 67680, Note_on_c, 8, 55, 95
9, 67920, Note_off_c, 8, 55, 95
9, 67920, Note_on_c, 8, 52, 95
9, 68160, Note_off_c, 8, 52, 95
9, 68160, Note_on_c, 8, 60, 95
9, 68160, Note_on_c, 8, 45, 95
9, 68400, Note_off_c, 8, 60, 95
9, 68400, Note_off_c, 8, 45, 95
9, 68400, Note_on_c, 8, 57, 95
9, 68640, Note_off_c, 8, 57, 95
9, 68640, Note_on_c, 8, 52, 95
9, 68880, Note_off_c, 8, 52, 95
9, 68880, Note_on_c, 8, 59, 95
9, 69120, Note_off_c, 8, 59, 95
9, 69120, Note_on_c, 8, 57, 95
9, 69360, Note_off_c, 8, 57, 95
9, 69360, Note_on_c, 8, 52, 95
9, 69600, Note_off_c, 8, 52, 95
9, 69600, Note_on_c, 8, 60, 95
9, 69840, Note_off_c, 8, 60, 95
9, 69840, Note_on_c, 8, 57, 95
9, 70080, Note_off_c, 8, 57, 95
9, 70080, Note_on_c, 8, 64, 95
9, 70080, Note_on_c, 8, 45, 95
9, 70320, Note_off_c, 8, 64, 95
9, 70320, Note_off_c, 8, 45, 95
9, 70320, Note_on_c, 8, 60, 95
9, 70560, Note_off_c, 8, 60, 95
9, 70560, Note_on_c, 8, 57, 95
9, 70800, Note_off_c, 8, 57, 95
9, 70800, Note_on_c, 8, 62, 95
9, 71040, Note_off_c, 8, 62, 95
9, 71040, Note_on_c, 8, 57, 95
9, 71280, Note_off_c, 8, 57, 95
9, 71280, Note_on_c, 8, 52, 95
9, 71520, Note_off_c, 8, 52, 95
9, 71520, Note_on_c, 8, 60, 95
9, 71760, Note_off_c, 8, 60, 95
9, 71760, Note_on_c, 8, 57, 95
9, 72000, Note_off_c, 8, 57, 95
9, 72000, Note_on_c, 8, 62, 95
9, 72000, Note_on_c, 8, 43, 95
9, 72240, Note_off_c, 8, 62, 95
9, 72240, Note_off_c, 8, 43, 95
9, 72240, Note_on_c, 8, 55, 95
9, 72480, Note_off_c, 8, 55, 95
9, 72480, Note_on_c, 8, 50, 95
9, 72720, Note_off_c, 8, 50, 95
9, 72720, Note_on_c, 8, 60, 95
9, 72960, Note_off_c, 8, 60, 95
9, 72960, Note_on_c, 8, 55, 95
9, 73200, Note_off_c, 8, 55, 95
9, 73200, Note_on_c, 8, 50, 95
9, 73440, Note_off_c, 8, 50, 95
9, 73440, Note_on_c, 8, 59, 95
9, 73680, Note_off_c, 8, 59, 95
9, 73680, Note_on_c, 8, 55, 95
9, 73920, Note_off_c, 8, 55, 95
9, 73920, Note_on_c, 8, 59, 95
9, 73920, Note_on_c, 8, 40, 95
9, 74160, Note_off_c, 8, 59, 95
9, 74160, Note_off_c, 8, 40, 95
9, 74160, Note_on_c, 8, 55, 95
9, 74400, Note_off_c, 8, 55, 95
9, 74400, Note_on_c, 8, 52, 95
9, 74640, Note_off_c, 8, 52, 95
9, 74640, Note_on_c, 8, 60, 95
9, 74880, Note_off_c, 8, 60, 95
9, 74880, Note_on_c, 8, 55, 95
9, 75120, Note_off_c, 8, 55, 95
9, 75120, Note_on_c, 8, 52, 95
9, 75360, Note_off_c, 8, 52, 95
9, 75360, Note_on_c, 8, 62, 95
9, 75600, Note_off_c, 8, 62, 95
9, 75600, Note_on_c, 8, 52, 95
9, 75840, Note_off_c, 8, 52, 95
9, 75840, Note_on_c, 8, 65, 95
9, 75840, Note_on_c, 8, 50, 95
9, 76080, Note_off_c, 8, 65, 95
9, 76080, Note_off_c, 8, 50, 95
9, 76080, Note_on_c, 8, 62, 95
9, 76320, Note_off_c, 8, 62, 95
9, 76320, Note_on_c, 8, 57, 95
9, 77520, Note_off_c, 8, 57, 95
9, 77520, Note_on_c, 8, 64, 95
9, 77760, Note_off_c, 8, 64, 95
9, 77760, Note_on_c, 8, 64, 95
9, 77760, Note_on_c, 8, 45, 95
9, 78240, Note_off_c, 8, 64, 95
9, 78240, Note_off_c, 8, 45, 95
9, 78240, Note_on_c, 8, 60, 95
9, 78720, Note_off_c, 8, 60, 95
9, 78720, Note_on_c, 8, 62, 95
9, 78720, Note_on_c, 8, 43, 95
9, 79200, Note_off_c, 8, 62, 95
9, 79200, Note_off_c, 8, 43, 95
9, 79200, Note_on_c, 8, 55, 95
9, 79680, Note_off_c, 8, 55, 95
9, 79680, Note_on_c, 8, 60, 95
9, 79680, Note_on_c, 8, 45, 95
9, 80160, Note_off_c, 8, 60, 95
9, 80160, Note_off_c, 8, 45, 95
9, 80160, Note_on_c, 8, 57, 95
9, 80640, Note_off_c, 8, 57, 95
9, 80640, Note_on_c, 8, 59, 95
9, 80640, Note_on_c, 8, 43, 95
9, 81120, Note_off_c, 8, 59, 95
9, 81120, Note_off_c, 8, 43, 95
9, 81120, Note_on_c, 8, 55, 95
9, 81600, Note_off_c, 8, 55, 95
9, 81600, Note_on_c, 8, 64, 95
9, 81600, Note_on_c, 8, 45, 95
9, 81840, Note_off_c, 8, 64, 95
9, 81840, Note_off_c, 8, 45, 95
9, 81840, Note_on_c, 8, 60, 95
9, 82080, Note_off_c, 8, 60, 95
9, 82080, Note_on_c, 8, 57, 95
9, 82320, Note_off_c, 8, 57, 95
9, 82320, Note_on_c, 8, 64, 95
9, 82560, Note_off_c, 8, 64, 95
9, 82560, Note_on_c, 8, 67, 95
9, 82560, Note_on_c, 8, 43, 95
9, 82800, Note_off_c, 8, 67, 95
9, 82800, Note_off_c, 8, 43, 95
9, 82800, Note_on_c, 8, 62, 95
9, 83040, Note_off_c, 8, 62, 95
9, 83040, Note_on_c, 8, 55, 95
9, 83280, Note_off_c, 8, 55, 95
9, 83280, Note_on_c, 8, 67, 95
9, 83520, Note_off_c, 8, 67, 95
9, 83520, Note_on_c, 8, 64, 95
9, 83520, Note_on_c, 8, 45, 95
9, 83760, Note_off_c, 8, 64, 95
9, 83760, Note_off_c, 8, 45, 95
9, 83760, Note_on_c, 8, 60, 95
9, 84000, Note_off_c, 8, 60, 95
9, 84000, Note_on_c, 8, 57, 95
9, 84240, Note_off_c, 8, 57, 95
9, 84240, Note_on_c, 8, 64, 95
9, 84480, Note_off_c, 8, 64, 95
9, 84480, Note_on_c, 8, 67, 95
9, 84480, Note_on_c, 8, 43, 95
9, 84720, Note_off_c, 8, 67, 95
9, 84720, Note_off_c, 8, 43, 95
9, 84720, Note_on_c, 8, 62, 95
9, 84960, Note_off_c, 8, 62, 95
9, 84960, Note_on_c, 8, 55, 95
9, 86400, Note_off_c, 8, 55, 95
9, 86400, Note_on_c, 8, 62, 95
9, 86880, Note_off_c, 8, 62, 95
9, 86880, Note_on_c, 8, 67, 95
9, 86880, Note_on_c, 8, 43, 95
9, 87360, Note_off_c, 8, 67, 95
9, 87360, Note_off_c, 8, 43, 95
9, 87360, Note_on_c, 8, 62, 95
9, 87840, Note_off_c, 8, 62, 95
9, 87840, Note_on_c, 8, 55, 95
9, 88320, Note_off_c, 8, 55, 95
9, 88320, Note_on_c, 8, 64, 95
9, 88320, Note_on_c, 8, 45, 95
9, 88800, Note_off_c, 8, 64, 95
9, 88800, Note_off_c, 8, 45, 95
9, 88800, Note_on_c, 8, 60, 95
9, 89280, Note_off_c, 8, 60, 95
9, 89280, Note_on_c, 8, 57, 95
9, 89760, Note_off_c, 8, 57, 95
9, 89760, Note_on_c, 8, 65, 95
9, 89760, Note_on_c, 8, 50, 95
9, 90480, Note_off_c, 8, 65, 95
9, 90480, Note_off_c, 8, 50, 95
9, 90480, Note_on_c, 8, 62, 95
9, 90720, Note_off_c, 8, 62, 95
9, 90720, Note_on_c, 8, 57, 95
9, 91200, Note_off_c, 8, 57, 95
9, 91200, Note_on_c, 8, 64, 95
9, 91200, Note_on_c, 8, 45, 95
9, 91680, Note_off_c, 8, 64, 95
9, 91680, Note_off_c, 8, 45, 95
9, 91680, Note_on_c, 8, 60, 95
9, 92160, Note_off_c, 8, 60, 95
9, 92160, Note_on_c, 8, 57, 95
9, 92640, Note_off_c, 8, 57, 95
9, 92640, Note_on_c, 8, 65, 95
9, 92640, Note_on_c, 8, 50, 95
9, 93360, Note_off_c, 8, 65, 95
9, 93360, Note_off_c, 8, 50, 95
9, 93360, Note_on_c, 8, 62, 95
9, 93600, Note_off_c, 8, 62, 95
9, 93600, Note_on_c, 8, 57, 95
9, 94080, Note_off_c, 8, 57, 95
9, 94080, Note_on_c, 8, 64, 95
9, 94080, Note_on_c, 8, 45, 95
9, 94560, Note_off_c, 8, 64, 95
9, 94560, Note_off_c, 8, 45, 95
9, 94560, Note_on_c, 8, 60, 95
9, 95040, Note_off_c, 8, 60, 95
9, 95040, Note_on_c, 8, 57, 95
9, 95520, Note_off_c, 8, 57, 95
9, 95520, Note_on_c, 8, 65, 95
9, 95520, Note_on_c, 8, 50, 95
9, 96240, Note_off_c, 8, 65, 95
9, 96240, Note_off_c, 8, 50, 95
9, 96240, Note_on_c, 8, 62, 95
9, 96480, Note_off_c, 8, 62, 95
9, 96480, Note_on_c, 8, 57, 95
9, 96960, Note_off_c, 8, 57, 95
9, 96960, Note_on_c, 8, 60, 95
9, 96960, Note_on_c, 8, 41, 95
9, 97920, Note_off_c, 8, 60, 95
9, 97920, Note_off_c, 8, 41, 95
9, 97920, Note_on_c, 8, 60, 95
9, 98400, Note_off_c, 8, 60, 95
9, 98400, Note_on_c, 8, 62, 95
9, 98400, Note_on_c, 8, 43, 95
9, 99360, Note_off_c, 8, 62, 95
9, 99360, Note_off_c, 8, 43, 95
9, 99360, Note_on_c, 8, 62, 95
9, 99840, Note_off_c, 8, 62, 95
9, 99840, Note_on_c, 8, 65, 95
9, 99840, Note_on_c, 8, 50, 95
9, 100560, Note_off_c, 8, 65, 95
9, 100560, Note_off_c, 8, 50, 95
9, 100560, Note_on_c, 8, 65, 95
9, 100800, Note_off_c, 8, 65, 95
9, 100800, Note_on_c, 8, 62, 95
9, 101040, Note_off_c, 8, 62, 95
9, 101040, Note_on_c, 8, 65, 95
9, 101280, Note_off_c, 8, 65, 95
9, 101280, Note_on_c, 8, 57, 95
9, 102240, Note_off_c, 8, 57, 95
9, 102240, Note_on_c, 8, 65, 95
9, 102480, Note_off_c, 8, 65, 95
9, 102480, Note_on_c, 8, 62, 95
9, 102720, Note_off_c, 8, 62, 95
9, 102720, Note_on_c, 8, 60, 95
9, 102720, Note_on_c, 8, 41, 95
9, 103680, Note_off_c, 8, 60, 95
9, 103680, Note_off_c, 8, 41, 95
9, 103680, Note_on_c, 8, 60, 95
9, 104160, Note_off_c, 8, 60, 95
9, 104160, Note_on_c, 8, 62, 95
9, 104160, Note_on_c, 8, 43, 95
9, 105120, Note_off_c, 8, 62, 95
9, 105120, Note_off_c, 8, 43, 95
9, 105120, Note_on_c, 8, 62, 95
9, 105600, Note_off_c, 8, 62, 95
9, 105600, Note_on_c, 8, 67, 95
9, 105600, Note_on_c, 8, 43, 95
9, 106080, Note_off_c, 8, 67, 95
9, 106080, Note_off_c, 8, 43, 95
9, 106080, Note_on_c, 8, 62, 95
9, 106560, Note_off_c, 8, 62, 95
9, 106560, Note_on_c, 8, 55, 95
9, 107040, Note_off_c, 8, 55, 95
9, 107040, Note_on_c, 8, 64, 95
9, 107040, Note_on_c, 8, 45, 95
9, 107520, Note_off_c, 8, 64, 95
9, 107520, Note_off_c, 8, 45, 95
9, 107520, Note_on_c, 8, 60, 95
9, 108000, Note_off_c, 8, 60, 95
9, 108000, Note_on_c, 8, 57, 95
9, 108480, Note_off_c, 8, 57, 95
9, 108480, Note_on_c, 8, 65, 95
9, 108480, Note_on_c, 8, 50, 95
9, 109200, Note_off_c, 8, 65, 95
9, 109200, Note_off_c, 8, 50, 95
9, 109200, Note_on_c, 8, 62, 95
9, 109440, Note_off_c, 8, 62, 95
9, 109440, Note_on_c, 8, 57, 95
9, 109920, Note_off_c, 8, 57, 95
9, 109920, Note_on_c, 8, 64, 95
9, 109920, Note_on_c, 8, 45, 95
9, 110400, Note_off_c, 8, 64, 95
9, 110400, Note_off_c, 8, 45, 95
9, 110400, Note_on_c, 8, 60, 95
9, 110880, Note_off_c, 8, 60, 95
9, 110880, Note_on_c, 8, 57, 95
9, 111360, Note_off_c, 8, 57, 95
9, 111360, Note_on_c, 8, 65, 95
9, 111360, Note_on_c, 8, 50, 95
9, 112080, Note_off_c, 8, 65, 95
9, 112080, Note_off_c, 8, 50, 95
9, 112080, Note_on_c, 8, 62, 95
9, 112320, Note_off_c, 8, 62, 95
9, 112320, Note_on_c, 8, 57, 95
9, 112800, Note_off_c, 8, 57, 95
9, 112800, Note_on_c, 8, 64, 95
9, 112800, Note_on_c, 8, 45, 95
9, 113280, Note_off_c, 8, 64, 95
9, 113280, Note_off_c, 8, 45, 95
9, 113280, Note_on_c, 8, 60, 95
9, 113760, Note_off_c, 8, 60, 95
9, 113760, Note_on_c, 8, 57, 95
9, 114240, Note_off_c, 8, 57, 95
9, 114240, Note_on_c, 8, 65, 95
9, 114240, Note_on_c, 8, 50, 95
9, 114960, Note_off_c, 8, 65, 95
9, 114960, Note_off_c, 8, 50, 95
9, 114960, Note_on_c, 8, 62, 95
9, 115200, Note_off_c, 8, 62, 95
9, 115200, Note_on_c, 8, 57, 95
9, 115680, Note_off_c, 8, 57, 95
9, 115680, Note_on_c, 8, 60, 95
9, 115680, Note_on_c, 8, 41, 95
9, 116160, Note_off_c, 8, 60, 95
9, 116160, Note_off_c, 8, 41, 95
9, 116160, Note_on_c, 8, 57, 95
9, 116640, Note_off_c, 8, 57, 95
9, 116640, Note_on_c, 8, 53, 95
9, 117120, Note_off_c, 8, 53, 95
9, 117120, Note_on_c, 8, 65, 95
9, 117600, Note_off_c, 8, 65, 95
9, 117600, Note_on_c, 8, 60, 95
9, 118080, Note_off_c, 8, 60, 95
9, 118080, Note_on_c, 8, 64, 95
9, 118560, Note_off_c, 8, 64, 95
9, 118560, Note_on_c, 8, 64, 95
9, 118560, Note_on_c, 8, 45, 95
9, 119040, Note_off_c, 8, 64, 95
9, 119040, Note_off_c, 8, 45, 95
9, 119040, Note_on_c, 8, 62, 95
9, 119520, Note_off_c, 8, 62, 95
9, 119520, Note_on_c, 8, 60, 95
9, 120000, Note_off_c, 8, 60, 95
9, 120000, Note_on_c, 8, 62, 95
9, 120480, Note_off_c, 8, 62, 95
9, 120480, Note_on_c, 8, 59, 95
9, 120480, Note_on_c, 8, 40, 95
9, 122400, Note_off_c, 8, 40, 95
9, 122640, Note_off_c, 8, 59, 95
9, 122640, Note_on_c, 8, 69, 95
9, 122640, Note_on_c, 8, 57, 95
9, 123120, Note_off_c, 8, 69, 95
9, 123120, Note_off_c, 8, 57, 95
9, 123120, Note_on_c, 8, 64, 95
9, 123600, Note_off_c, 8, 64, 95
9, 123600, Note_on_c, 8, 60, 95
9, 124080, Note_off_c, 8, 60, 95
9, 124080, Note_on_c, 8, 69, 95
9, 124560, Note_off_c, 8, 69, 95
9, 124560, Note_on_c, 8, 64, 95
9, 124560, Note_on_c, 8, 57, 95
9, 125040, Note_off_c, 8, 64, 95
9, 125040, Note_off_c, 8, 57, 95
9, 125040, Note_on_c, 8, 60, 95
9, 125520, Note_off_c, 8, 60, 95
9, 125520, Note_on_c, 8, 69, 95
9, 126000, Note_off_c, 8, 69, 95
9, 126000, Note_on_c, 8, 64, 95
9, 126480, Note_off_c, 8, 64, 95
9, 126480, Note_on_c, 8, 65, 95
9, 126480, Note_on_c, 8, 53, 95
9, 126960, Note_off_c, 8, 65, 95
9, 126960, Note_off_c, 8, 53, 95
9, 126960, Note_on_c, 8, 60, 95
9, 127440, Note_off_c, 8, 60, 95
9, 127440, Note_on_c, 8, 57, 95
9, 127920, Note_off_c, 8, 57, 95
9, 127920, Note_on_c, 8, 65, 95
9, 128400, Note_off_c, 8, 65, 95
9, 128400, Note_on_c, 8, 60, 95
9, 128400, Note_on_c, 8, 45, 95
9, 128880, Note_off_c, 8, 60, 95
9, 128880, Note_off_c, 8, 45, 95
9, 128880, Note_on_c, 8, 69, 95
9, 128880, Note_on_c, 8, 57, 95
9, 129360, Note_off_c, 8, 69, 95
9, 129360, Note_off_c, 8, 57, 95
9, 129360, Note_on_c, 8, 64, 95
9, 129840, Note_off_c, 8, 64, 95
9, 129840, Note_on_c, 8, 60, 95
9, 130320, Note_off_c, 8, 60, 95
9, 130320, Note_on_c, 8, 65, 95
9, 130320, Note_on_c, 8, 53, 95
9, 130800, Note_off_c, 8, 65, 95
9, 130800, Note_off_c, 8, 53, 95
9, 130800, Note_on_c, 8, 60, 95
9, 131280, Note_off_c, 8, 60, 95
9, 131280, Note_on_c, 8, 57, 95
9, 131760, Note_off_c, 8, 57, 95
9, 131760, Note_on_c, 8, 65, 95
9, 132240, Note_off_c, 8, 65, 95
9, 132240, Note_on_c, 8, 67, 95
9, 132240, Note_on_c, 8, 60, 95
9, 132240, Note_on_c, 8, 55, 95
9, 132720, Note_off_c, 8, 67, 95
9, 132720, Note_off_c, 8, 60, 95
9, 132720, Note_off_c, 8, 55, 95
9, 132720, Note_on_c, 8, 62, 95
9, 133200, Note_off_c, 8, 62, 95
9, 133200, Note_on_c, 8, 60, 95
9, 133680, Note_off_c, 8, 60, 95
9, 133680, Note_on_c, 8, 65, 95
9, 134160, Note_off_c, 8, 65, 95
9, 134160, Note_on_c, 8, 69, 95
9, 134160, Note_on_c, 8, 57, 95
9, 134640, Note_off_c, 8, 69, 95
9, 134640, Note_off_c, 8, 57, 95
9, 134640, Note_on_c, 8, 64, 95
9, 135120, Note_off_c, 8, 64, 95
9, 135120, Note_on_c, 8, 60, 95
9, 135600, Note_off_c, 8, 60, 95
9, 135600, Note_on_c, 8, 69, 95
9, 136080, Note_off_c, 8, 69, 95
9, 136080, Note_on_c, 8, 64, 95
9, 136080, Note_on_c, 8, 57, 95
9, 136560, Note_off_c, 8, 64, 95
9, 136560, Note_off_c, 8, 57, 95
9, 136560, Note_on_c, 8, 60, 95
9, 137040, Note_off_c, 8, 60, 95
9, 137040, Note_on_c, 8, 69, 95
9, 137520, Note_off_c, 8, 69, 95
9, 137520, Note_on_c, 8, 64, 95
9, 138000, Note_off_c, 8, 64, 95
9, 138000, Note_on_c, 8, 65, 95
9, 138000, Note_on_c, 8, 53, 95
9, 138480, Note_off_c, 8, 65, 95
9, 138480, Note_off_c, 8, 53, 95
9, 138480, Note_on_c, 8, 60, 95
9, 138960, Note_off_c, 8, 60, 95
9, 138960, Note_on_c, 8, 57, 95
9, 139440, Note_off_c, 8, 57, 95
9, 139440, Note_on_c, 8, 65, 95
9, 139920, Note_off_c, 8, 65, 95
9, 139920, Note_on_c, 8, 60, 95
9, 139920, Note_on_c, 8, 45, 95
9, 140400, Note_off_c, 8, 60, 95
9, 140400, Note_off_c, 8, 45, 95
9, 140400, Note_on_c, 8, 69, 95
9, 140400, Note_on_c, 8, 57, 95
9, 140880, Note_off_c, 8, 69, 95
9, 140880, Note_off_c, 8, 57, 95
9, 140880, Note_on_c, 8, 64, 95
9, 141360, Note_off_c, 8, 64, 95
9, 141360, Note_on_c, 8, 60, 95
9, 141360, Note_on_c, 8, 60, 95
9, 141840, Note_off_c, 8, 60, 95
9, 141840, Note_off_c, 8, 60, 95
9, 141840, Note_on_c, 8, 65, 95
9, 141840, Note_on_c, 8, 53, 95
9, 141840, Note_on_c, 8, 53, 95
9, 142320, Note_off_c, 8, 65, 95
9, 142320, Note_off_c, 8, 53, 95
9, 142320, Note_off_c, 8, 53, 95
9, 142320, Note_on_c, 8, 65, 95
9, 142320, Note_on_c, 8, 60, 95
9, 142800, Note_off_c, 8, 65, 95
9, 142800, Note_off_c, 8, 60, 95
9, 142800, Note_on_c, 8, 60, 95
9, 142800, Note_on_c, 8, 57, 95
9, 143280, Note_off_c, 8, 60, 95
9, 143280, Note_off_c, 8, 57, 95
9, 143280, Note_on_c, 8, 65, 95
9, 143280, Note_on_c, 8, 57, 95
9, 143760, Note_off_c, 8, 65, 95
9, 143760, Note_off_c, 8, 57, 95
9, 143760, Note_on_c, 8, 67, 95
9, 143760, Note_on_c, 8, 55, 95
9, 143760, Note_on_c, 8, 60, 95
9, 143760, Note_on_c, 8, 55, 95
9, 144240, Note_off_c, 8, 67, 95
9, 144240, Note_off_c, 8, 55, 95
9, 144240, Note_off_c, 8, 60, 95
9, 144240, Note_off_c, 8, 55, 95
9, 144240, Note_on_c, 8, 67, 95
9, 144240, Note_on_c, 8, 62, 95
9, 144720, Note_off_c, 8, 67, 95
9, 144720, Note_off_c, 8, 62, 95
9, 144720, Note_on_c, 8, 59, 95
9, 144720, Note_on_c, 8, 62, 95
9, 145200, Note_off_c, 8, 59, 95
9, 145200, Note_off_c, 8, 62, 95
9, 145200, Note_on_c, 8, 59, 95
9, 145680, Note_off_c, 8, 59, 95
9, 145680, Note_on_c, 8, 76, 95
9, 145680, Note_on_c, 8, 57, 95
9, 145920, Note_off_c, 8, 76, 95
9, 145920, Note_off_c, 8, 57, 95
9, 145920, Note_on_c, 8, 60, 95
9, 146160, Note_off_c, 8, 60, 95
9, 146160, Note_on_c, 8, 57, 95
9, 146400, Note_off_c, 8, 57, 95
9, 146400, Note_on_c, 8, 64, 95
9, 146640, Note_off_c, 8, 64, 95
9, 146640, Note_on_c, 8, 60, 95
9, 146880, Note_off_c, 8, 60, 95
9, 146880, Note_on_c, 8, 57, 95
9, 147120, Note_off_c, 8, 57, 95
9, 147120, Note_on_c, 8, 64, 95
9, 147360, Note_off_c, 8, 64, 95
9, 147360, Note_on_c, 8, 60, 95
9, 147600, Note_off_c, 8, 60, 95
9, 147600, Note_on_c, 8, 67, 95
9, 147600, Note_on_c, 8, 43, 95
9, 147840, Note_off_c, 8, 67, 95
9, 147840, Note_off_c, 8, 43, 95
9, 147840, Note_on_c, 8, 62, 95
9, 148080, Note_off_c, 8, 62, 95
9, 148080, Note_on_c, 8, 55, 95
9, 148320, Note_off_c, 8, 55, 95
9, 148320, Note_on_c, 8, 67, 95
9, 148560, Note_off_c, 8, 67, 95
9, 148560, Note_on_c, 8, 62, 95
9, 148800, Note_off_c, 8, 62, 95
9, 148800, Note_on_c, 8, 55, 95
9, 149040, Note_off_c, 8, 55, 95
9, 149040, Note_on_c, 8, 67, 95
9, 149280, Note_off_c, 8, 67, 95
9, 149280, Note_on_c, 8, 62, 95
9, 149520, Note_off_c, 8, 62, 95
9, 149520, Note_on_c, 8, 65, 95
9, 149520, Note_on_c, 8, 50, 95
9, 149760, Note_off_c, 8, 65, 95
9, 149760, Note_off_c, 8, 50, 95
9, 149760, Note_on_c, 8, 62, 95
9, 150000, Note_off_c, 8, 62, 95
9, 150000, Note_on_c, 8, 57, 95
9, 150240, Note_off_c, 8, 57, 95
9, 150240, Note_on_c, 8, 65, 95
9, 150480, Note_off_c, 8, 65, 95
9, 150480, Note_on_c, 8, 62, 95
9, 150720, Note_off_c, 8, 62, 95
9, 150720, Note_on_c, 8, 57, 95
9, 150960, Note_off_c, 8, 57, 95
9, 150960, Note_on_c, 8, 65, 95
9, 151200, Note_off_c, 8, 65, 95
9, 151200, Note_on_c, 8, 62, 95
9, 151440, Note_off_c, 8, 62, 95
9, 151440, Note_on_c, 8, 67, 95
9, 151440, Note_on_c, 8, 43, 95
9, 151680, Note_off_c, 8, 67, 95
9, 151680, Note_off_c, 8, 43, 95
9, 151680, Note_on_c, 8, 62, 95
9, 151920, Note_off_c, 8, 62, 95
9, 151920, Note_on_c, 8, 55, 95
9, 152160, Note_off_c, 8, 55, 95
9, 152160, Note_on_c, 8, 67, 95
9, 152400, Note_off_c, 8, 67, 95
9, 152400, Note_on_c, 8, 62, 95
9, 152640, Note_off_c, 8, 62, 95
9, 152640, Note_on_c, 8, 55, 95
9, 152880, Note_off_c, 8, 55, 95
9, 152880, Note_on_c, 8, 67, 95
9, 153120, Note_off_c, 8, 67, 95
9, 153120, Note_on_c, 8, 62, 95
9, 153360, Note_off_c, 8, 62, 95
9, 153360, Note_on_c, 8, 64, 95
9, 153360, Note_on_c, 8, 45, 95
9, 153600, Note_off_c, 8, 64, 95
9, 153600, Note_off_c, 8, 45, 95
9, 153600, Note_on_c, 8, 60, 95
9, 153840, Note_off_c, 8, 60, 95
9, 153840, Note_on_c, 8, 57, 95
9, 154080, Note_off_c, 8, 57, 95
9, 154080, Note_on_c, 8, 64, 95
9, 154320, Note_off_c, 8, 64, 95
9, 154320, Note_on_c, 8, 60, 95
9, 154560, Note_off_c, 8, 60, 95
9, 154560, Note_on_c, 8, 57, 95
9, 154800, Note_off_c, 8, 57, 95
9, 154800, Note_on_c, 8, 64, 95
9, 155040, Note_off_c, 8, 64, 95
9, 155040, Note_on_c, 8, 60, 95
9, 155280, Note_off_c, 8, 60, 95
9, 155280, Note_on_c, 8, 67, 95
9, 155280, Note_on_c, 8, 43, 95
9, 155520, Note_off_c, 8, 67, 95
9, 155520, Note_off_c, 8, 43, 95
9, 155520, Note_on_c, 8, 62, 95
9, 155760, Note_off_c, 8, 62, 95
9, 155760, Note_on_c, 8, 55, 95
9, 156000, Note_off_c, 8, 55, 95
9, 156000, Note_on_c, 8, 67, 95
9, 156240, Note_off_c, 8, 67, 95
9, 156240, Note_on_c, 8, 62, 95
9, 156480, Note_off_c, 8, 62, 95
9, 156480, Note_on_c, 8, 55, 95
9, 156720, Note_off_c, 8, 55, 95
9, 156720, Note_on_c, 8, 67, 95
9, 156960, Note_off_c, 8, 67, 95
9, 156960, Note_on_c, 8, 62, 95
9, 157200, Note_off_c, 8, 62, 95
9, 157200, Note_on_c, 8, 65, 95
9, 157200, Note_on_c, 8, 50, 95
9, 157440, Note_off_c, 8, 65, 95
9, 157440, Note_off_c, 8, 50, 95
9, 157440, Note_on_c, 8, 62, 95
9, 157680, Note_off_c, 8, 62, 95
9, 157680, Note_on_c, 8, 57, 95
9, 157920, Note_off_c, 8, 57, 95
9, 157920, Note_on_c, 8, 65, 95
9, 158160, Note_off_c, 8, 65, 95
9, 158160, Note_on_c, 8, 62, 95
9, 158400, Note_off_c, 8, 62, 95
9, 158400, Note_on_c, 8, 57, 95
9, 158640, Note_off_c, 8, 57, 95
9, 158640, Note_on_c, 8, 65, 95
9, 158880, Note_off_c, 8, 65, 95
9, 158880, Note_on_c, 8, 62, 95
9, 159120, Note_off_c, 8, 62, 95
9, 159120, Note_on_c, 8, 67, 95
9, 159120, Note_on_c, 8, 43, 95
9, 161040, Note_off_c, 8, 43, 95
9, 161280, Note_off_c, 8, 67, 95
9, 161280, Note_on_c, 8, 64, 95
9, 161280, Note_on_c, 8, 45, 95
9, 161520, Note_off_c, 8, 64, 95
9, 161520, Note_off_c, 8, 45, 95
9, 161520, Note_on_c, 8, 60, 95
9, 161760, Note_off_c, 8, 60, 95
9, 161760, Note_on_c, 8, 57, 95
9, 162000, Note_off_c, 8, 57, 95
9, 162000, Note_on_c, 8, 62, 95
9, 162240, Note_off_c, 8, 62, 95
9, 162240, Note_on_c, 8, 57, 95
9, 162480, Note_off_c, 8, 57, 95
9, 162480, Note_on_c, 8, 52, 95
9, 162720, Note_off_c, 8, 52, 95
9, 162720, Note_on_c, 8, 60, 95
9, 162960, Note_off_c, 8, 60, 95
9, 162960, Note_on_c, 8, 57, 95
9, 163200, Note_off_c, 8, 57, 95
9, 163200, Note_on_c, 8, 62, 95
9, 163200, Note_on_c, 8, 43, 95
9, 163440, Note_off_c, 8, 62, 95
9, 163440, Note_off_c, 8, 43, 95
9, 163440, Note_on_c, 8, 55, 95
9, 163680, Note_off_c, 8, 55, 95
9, 163680, Note_on_c, 8, 50, 95
9, 163920, Note_off_c, 8, 50, 95
9, 163920, Note_on_c, 8, 60, 95
9, 164160, Note_off_c, 8, 60, 95
9, 164160, Note_on_c, 8, 55, 95
9, 164400, Note_off_c, 8, 55, 95
9, 164400, Note_on_c, 8, 50, 95
9, 164640, Note_off_c, 8, 50, 95
9, 164640, Note_on_c, 8, 59, 95
9, 164880, Note_off_c, 8, 59, 95
9, 164880, Note_on_c, 8, 55, 95
9, 165120, Note_off_c, 8, 55, 95
9, 165120, Note_on_c, 8, 59, 95
9, 165120, Note_on_c, 8, 40, 95
9, 165360, Note_off_c, 8, 59, 95
9, 165360, Note_off_c, 8, 40, 95
9, 165360, Note_on_c, 8, 55, 95
9, 165600, Note_off_c, 8, 55, 95
9, 165600, Note_on_c, 8, 52, 95
9, 165840, Note_off_c, 8, 52, 95
9, 165840, Note_on_c, 8, 57, 95
9, 166080, Note_off_c, 8, 57, 95
9, 166080, Note_on_c, 8, 55, 95
9, 166320, Note_off_c, 8, 55, 95
9, 166320, Note_on_c, 8, 52, 95
9, 166560, Note_off_c, 8, 52, 95
9, 166560, Note_on_c, 8, 55, 95
9, 166800, Note_off_c, 8, 55, 95
9, 166800, Note_on_c, 8, 52, 95
9, 167040, Note_off_c, 8, 52, 95
9, 167040, Note_on_c, 8, 60, 95
9, 167040, Note_on_c, 8, 45, 95
9, 167280, Note_off_c, 8, 60, 95
9, 167280, Note_off_c, 8, 45, 95
9, 167280, Note_on_c, 8, 57, 95
9, 167520, Note_off_c, 8, 57, 95
9, 167520, Note_on_c, 8, 52, 95
9, 167760, Note_off_c, 8, 52, 95
9, 167760, Note_on_c, 8, 59, 95
9, 168000, Note_off_c, 8, 59, 95
9, 168000, Note_on_c, 8, 57, 95
9, 168240, Note_off_c, 8, 57, 95
9, 168240, Note_on_c, 8, 52, 95
9, 168480, Note_off_c, 8, 52, 95
9, 168480, Note_on_c, 8, 60, 95
9, 168720, Note_off_c, 8, 60, 95
9, 168720, Note_on_c, 8, 57, 95
9, 168960, Note_off_c, 8, 57, 95
9, 168960, Note_on_c, 8, 64, 95
9, 168960, Note_on_c, 8, 45, 95
9, 169200, Note_off_c, 8, 64, 95
9, 169200, Note_off_c, 8, 45, 95
9, 169200, Note_on_c, 8, 60, 95
9, 169440, Note_off_c, 8, 60, 95
9, 169440, Note_on_c, 8, 57, 95
9, 169680, Note_off_c, 8, 57, 95
9, 169680, Note_on_c, 8, 62, 95
9, 169920, Note_off_c, 8, 62, 95
9, 169920, Note_on_c, 8, 57, 95
9, 170160, Note_off_c, 8, 57, 95
9, 170160, Note_on_c, 8, 52, 95
9, 170400, Note_off_c, 8, 52, 95
9, 170400, Note_on_c, 8, 60, 95
9, 170640, Note_off_c, 8, 60, 95
9, 170640, Note_on_c, 8, 57, 95
9, 170880, Note_off_c, 8, 57, 95
9, 170880, Note_on_c, 8, 62, 95
9, 170880, Note_on_c, 8, 43, 95
9, 171120, Note_off_c, 8, 62, 95
9, 171120, Note_off_c, 8, 43, 95
9, 171120, Note_on_c, 8, 55, 95
9, 171360, Note_off_c, 8, 55, 95
9, 171360, Note_on_c, 8, 50, 95
9, 171600, Note_off_c, 8, 50, 95
9, 171600, Note_on_c, 8, 60, 95
9, 171840, Note_off_c, 8, 60, 95
9, 171840, Note_on_c, 8, 55, 95
9, 172080, Note_off_c, 8, 55, 95
9, 172080, Note_on_c, 8, 50, 95
9, 172320, Note_off_c, 8, 50, 95
9, 172320, Note_on_c, 8, 59, 95
9, 172560, Note_off_c, 8, 59, 95
9, 172560, Note_on_c, 8, 55, 95
9, 172800, Note_off_c, 8, 55, 95
9, 172800, Note_on_c, 8, 59, 95
9, 172800, Note_on_c, 8, 40, 95
9, 173040, Note_off_c, 8, 59, 95
9, 173040, Note_off_c, 8, 40, 95
9, 173040, Note_on_c, 8, 55, 95
9, 173280, Note_off_c, 8, 55, 95
9, 173280, Note_on_c, 8, 52, 95
9, 173520, Note_off_c, 8, 52, 95
9, 173520, Note_on_c, 8, 57, 95
9, 173760, Note_off_c, 8, 57, 95
9, 173760, Note_on_c, 8, 55, 95
9, 174000, Note_off_c, 8, 55, 95
9, 174000, Note_on_c, 8, 52, 95
9, 174240, Note_off_c, 8, 52, 95
9, 174240, Note_on_c, 8, 55, 95
9, 174480, Note_off_c, 8, 55, 95
9, 174480, Note_on_c, 8, 52, 95
9, 174720, Note_off_c, 8, 52, 95
9, 174720, Note_on_c, 8, 60, 95
9, 174720, Note_on_c, 8, 45, 95
9, 174960, Note_off_c, 8, 60, 95
9, 174960, Note_off_c, 8, 45, 95
9, 174960, Note_on_c, 8, 57, 95
9, 175200, Note_off_c, 8, 57, 95
9, 175200, Note_on_c, 8, 52, 95
9, 175440, Note_off_c, 8, 52, 95
9, 175440, Note_on_c, 8, 59, 95
9, 175680, Note_off_c, 8, 59, 95
9, 175680, Note_on_c, 8, 57, 95
9, 175920, Note_off_c, 8, 57, 95
9, 175920, Note_on_c, 8, 52, 95
9, 176160, Note_off_c, 8, 52, 95
9, 176160, Note_on_c, 8, 60, 95
9, 176400, Note_off_c, 8, 60, 95
9, 176400, Note_on_c, 8, 57, 95
9, 176640, Note_off_c, 8, 57, 95
9, 176640, Note_on_c, 8, 64, 95
9, 176640, Note_on_c, 8, 45, 95
9, 176880, Note_off_c, 8, 64, 95
9, 176880, Note_off_c, 8, 45, 95
9, 176880, Note_on_c, 8, 60, 95
9, 177120, Note_off_c, 8, 60, 95
9, 177120, Note_on_c, 8, 57, 95
9, 177360, Note_off_c, 8, 57, 95
9, 177360, Note_on_c, 8, 62, 95
9, 177600, Note_off_c, 8, 62, 95
9, 177600, Note_on_c, 8, 57, 95
9, 177840, Note_off_c, 8, 57, 95
9, 177840, Note_on_c, 8, 52, 95
9, 178080, Note_off_c, 8, 52, 95
9, 178080, Note_on_c, 8, 60, 95
9, 178320, Note_off_c, 8, 60, 95
9, 178320, Note_on_c, 8, 57, 95
9, 178560, Note_off_c, 8, 57, 95
9, 178560, Note_on_c, 8, 62, 95
9, 178560, Note_on_c, 8, 43, 95
9, 178800, Note_off_c, 8, 62, 95
9, 178800, Note_off_c, 8, 43, 95
9, 178800, Note_on_c, 8, 55, 95
9, 179040, Note_off_c, 8, 55, 95
9, 179040, Note_on_c, 8, 50, 95
9, 179280, Note_off_c, 8, 50, 95
9, 179280, Note_on_c, 8, 60, 95
9, 179520, Note_off_c, 8, 60, 95
9, 179520, Note_on_c, 8, 55, 95
9, 179760, Note_off_c, 8, 55, 95
9, 179760, Note_on_c, 8, 50, 95
9, 180000, Note_off_c, 8, 50, 95
9, 180000, Note_on_c, 8, 59, 95
9, 180240, Note_off_c, 8, 59, 95
9, 180240, Note_on_c, 8, 55, 95
9, 180480, Note_off_c, 8, 55, 95
9, 180480, Note_on_c, 8, 59, 95
9, 180480, Note_on_c, 8, 40, 95
9, 180720, Note_off_c, 8, 59, 95
9, 180720, Note_off_c, 8, 40, 95
9, 180720, Note_on_c, 8, 55, 95
9, 180960, Note_off_c, 8, 55, 95
9, 180960, Note_on_c, 8, 52, 95
9, 181200, Note_off_c, 8, 52, 95
9, 181200, Note_on_c, 8, 57, 95
9, 181440, Note_off_c, 8, 57, 95
9, 181440, Note_on_c, 8, 55, 95
9, 181680, Note_off_c, 8, 55, 95
9, 181680, Note_on_c, 8, 52, 95
9, 181920, Note_off_c, 8, 52, 95
9, 181920, Note_on_c, 8, 55, 95
9, 182160, Note_off_c, 8, 55, 95
9, 182160, Note_on_c, 8, 52, 95
9, 182400, Note_off_c, 8, 52, 95
9, 182400, Note_on_c, 8, 60, 95
9, 182400, Note_on_c, 8, 45, 95
9, 182640, Note_off_c, 8, 60, 95
9, 182640, Note_off_c, 8, 45, 95
9, 182640, Note_on_c, 8, 57, 95
9, 182880, Note_off_c, 8, 57, 95
9, 182880, Note_on_c, 8, 52, 95
9, 183120, Note_off_c, 8, 52, 95
9, 183120, Note_on_c, 8, 59, 95
9, 183360, Note_off_c, 8, 59, 95
9, 183360, Note_on_c, 8, 57, 95
9, 183600, Note_off_c, 8, 57, 95
9, 183600, Note_on_c, 8, 52, 95
9, 183840, Note_off_c, 8, 52, 95
9, 183840, Note_on_c, 8, 60, 95
9, 184080, Note_off_c, 8, 60, 95
9, 184080, Note_on_c, 8, 57, 95
9, 184320, Note_off_c, 8, 57, 95
9, 184320, Note_on_c, 8, 64, 95
9, 184320, Note_on_c, 8, 45, 95
9, 184560, Note_off_c, 8, 64, 95
9, 184560, Note_off_c, 8, 45, 95
9, 184560, Note_on_c, 8, 60, 95
9, 184800, Note_off_c, 8, 60, 95
9, 184800, Note_on_c, 8, 57, 95
9, 185040, Note_off_c, 8, 57, 95
9, 185040, Note_on_c, 8, 62, 95
9, 185280, Note_off_c, 8, 62, 95
9, 185280, Note_on_c, 8, 57, 95
9, 185520, Note_off_c, 8, 57, 95
9, 185520, Note_on_c, 8, 52, 95
9, 185760, Note_off_c, 8, 52, 95
9, 185760, Note_on_c, 8, 60, 95
9, 186000, Note_off_c, 8, 60, 95
9, 186000, Note_on_c, 8, 57, 95
9, 186240, Note_off_c, 8, 57, 95
9, 186240, Note_on_c, 8, 62, 95
9, 186240, Note_on_c, 8, 43, 95
9, 186480, Note_off_c, 8, 62, 95
9, 186480, Note_off_c, 8, 43, 95
9, 186480, Note_on_c, 8, 55, 95
9, 186720, Note_off_c, 8, 55, 95
9, 186720, Note_on_c, 8, 50, 95
9, 186960, Note_off_c, 8, 50, 95
9, 186960, Note_on_c, 8, 60, 95
9, 187200, Note_off_c, 8, 60, 95
9, 187200, Note_on_c, 8, 55, 95
9, 187440, Note_off_c, 8, 55, 95
9, 187440, Note_on_c, 8, 50, 95
9, 187680, Note_off_c, 8, 50, 95
9, 187680, Note_on_c, 8, 59, 95
9, 187920, Note_off_c, 8, 59, 95
9, 187920, Note_on_c, 8, 55, 95
9, 188160, Note_off_c, 8, 55, 95
9, 188160, Note_on_c, 8, 59, 95
9, 188160, Note_on_c, 8, 40, 95
9, 188400, Note_off_c, 8, 59, 95
9, 188400, Note_off_c, 8, 40, 95
9, 188400, Note_on_c, 8, 55, 95
9, 188640, Note_off_c, 8, 55, 95
9, 188640, Note_on_c, 8, 52, 95
9, 188880, Note_off_c, 8, 52, 95
9, 188880, Note_on_c, 8, 57, 95
9, 189120, Note_off_c, 8, 57, 95
9, 189120, Note_on_c, 8, 55, 95
9, 189360, Note_off_c, 8, 55, 95
9, 189360, Note_on_c, 8, 52, 95
9, 189600, Note_off_c, 8, 52, 95
9, 189600, Note_on_c, 8, 55, 95
9, 189840, Note_off_c, 8, 55, 95
9, 189840, Note_on_c, 8, 52, 95
9, 190080, Note_off_c, 8, 52, 95
9, 190080, Note_on_c, 8, 65, 95
9, 190080, Note_on_c, 8, 50, 95
9, 190320, Note_off_c, 8, 65, 95
9, 190320, Note_off_c, 8, 50, 95
9, 190320, Note_on_c, 8, 62, 95
9, 190560, Note_off_c, 8, 62, 95
9, 190560, Note_on_c, 8, 57, 95
9, 191760, Note_off_c, 8, 57, 95
9, 191760, Note_on_c, 8, 64, 95
9, 192000, Note_off_c, 8, 64, 95
9, 192000, Note_on_c, 8, 64, 95
9, 192000, Note_on_c, 8, 45, 95
9, 192480, Note_off_c, 8, 64, 95
9, 192480, Note_off_c, 8, 45, 95
9, 192480, Note_on_c, 8, 60, 95
9, 192960, Note_off_c, 8, 60, 95
9, 192960, Note_on_c, 8, 62, 95
9, 192960, Note_on_c, 8, 43, 95
9, 193440, Note_off_c, 8, 62, 95
9, 193440, Note_off_c, 8, 43, 95
9, 193440, Note_on_c, 8, 59, 95
9, 193920, Note_off_c, 8, 59, 95
9, 193920, Note_on_c, 8, 60, 95
9, 193920, Note_on_c, 8, 45, 95
9, 194400, Note_off_c, 8, 60, 95
9, 194400, Note_off_c, 8, 45, 95
9, 194400, Note_on_c, 8, 57, 95
9, 194880, Note_off_c, 8, 57, 95
9, 194880, Note_on_c, 8, 59, 95
9, 194880, Note_on_c, 8, 43, 95
9, 195600, Note_off_c, 8, 59, 95
9, 195600, Note_off_c, 8, 43, 95
9, 195840, Note_on_c, 8, 62, 95
9, 196320, Note_off_c, 8, 62, 95
9, 196320, Note_on_c, 8, 67, 95
9, 196320, Note_on_c, 8, 43, 95
9, 196800, Note_off_c, 8, 67, 95
9, 196800, Note_off_c, 8, 43, 95
9, 196800, Note_on_c, 8, 62, 95
9, 197280, Note_off_c, 8, 62, 95
9, 197280, Note_on_c, 8, 55, 95
9, 197760, Note_off_c, 8, 55, 95
9, 197760, Note_on_c, 8, 64, 95
9, 197760, Note_on_c, 8, 45, 95
9, 198240, Note_off_c, 8, 64, 95
9, 198240, Note_off_c, 8, 45, 95
9, 198240, Note_on_c, 8, 60, 95
9, 198720, Note_off_c, 8, 60, 95
9, 198720, Note_on_c, 8, 57, 95
9, 199200, Note_off_c, 8, 57, 95
9, 199200, Note_on_c, 8, 65, 95
9, 199200, Note_on_c, 8, 50, 95
9, 199920, Note_off_c, 8, 65, 95
9, 199920, Note_off_c, 8, 50, 95
9, 199920, Note_on_c, 8, 62, 95
9, 200160, Note_off_c, 8, 62, 95
9, 200160, Note_on_c, 8, 57, 95
9, 200640, Note_off_c, 8, 57, 95
9, 200640, Note_on_c, 8, 64, 95
9, 200640, Note_on_c, 8, 45, 95
9, 201120, Note_off_c, 8, 64, 95
9, 201120, Note_off_c, 8, 45, 95
9, 201120, Note_on_c, 8, 60, 95
9, 201600, Note_off_c, 8, 60, 95
9, 201600, Note_on_c, 8, 57, 95
9, 202080, Note_off_c, 8, 57, 95
9, 202080, Note_on_c, 8, 65, 95
9, 202080, Note_on_c, 8, 50, 95
9, 202800, Note_off_c, 8, 65, 95
9, 202800, Note_off_c, 8, 50, 95
9, 202800, Note_on_c, 8, 62, 95
9, 203040, Note_off_c, 8, 62, 95
9, 203040, Note_on_c, 8, 57, 95
9, 203520, Note_off_c, 8, 57, 95
9, 203520, Note_on_c, 8, 64, 95
9, 203520, Note_on_c, 8, 45, 95
9, 204000, Note_off_c, 8, 64, 95
9, 204000, Note_off_c, 8, 45, 95
9, 204000, Note_on_c, 8, 60, 95
9, 204480, Note_off_c, 8, 60, 95
9, 204480, Note_on_c, 8, 57, 95
9, 204960, Note_off_c, 8, 57, 95
9, 204960, Note_on_c, 8, 65, 95
9, 204960, Note_on_c, 8, 50, 95
9, 205680, Note_off_c, 8, 65, 95
9, 205680, Note_off_c, 8, 50, 95
9, 205680, Note_on_c, 8, 62, 95
9, 205920, Note_off_c, 8, 62, 95
9, 205920, Note_on_c, 8, 57, 95
9, 206400, Note_off_c, 8, 57, 95
9, 206400, Note_on_c, 8, 60, 95
9, 206400, Note_on_c, 8, 41, 95
9, 207360, Note_off_c, 8, 60, 95
9, 207360, Note_off_c, 8, 41, 95
9, 207360, Note_on_c, 8, 60, 95
9, 207840, Note_off_c, 8, 60, 95
9, 207840, Note_on_c, 8, 62, 95
9, 207840, Note_on_c, 8, 43, 95
9, 208800, Note_off_c, 8, 62, 95
9, 208800, Note_off_c, 8, 43, 95
9, 208800, Note_on_c, 8, 62, 95
9, 209280, Note_off_c, 8, 62, 95
9, 209280, Note_on_c, 8, 65, 95
9, 209280, Note_on_c, 8, 50, 95
9, 210000, Note_off_c, 8, 65, 95
9, 210000, Note_off_c, 8, 50, 95
9, 210000, Note_on_c, 8, 65, 95
9, 210240, Note_off_c, 8, 65, 95
9, 210240, Note_on_c, 8, 62, 95
9, 210480, Note_off_c, 8, 62, 95
9, 210480, Note_on_c, 8, 65, 95
9, 210720, Note_off_c, 8, 65, 95
9, 210720, Note_on_c, 8, 57, 95
9, 211680, Note_off_c, 8, 57, 95
9, 211680, Note_on_c, 8, 65, 95
9, 211920, Note_off_c, 8, 65, 95
9, 211920, Note_on_c, 8, 62, 95
9, 212160, Note_off_c, 8, 62, 95
9, 212160, Note_on_c, 8, 60, 95
9, 212160, Note_on_c, 8, 41, 95
9, 213120, Note_off_c, 8, 60, 95
9, 213120, Note_off_c, 8, 41, 95
9, 213120, Note_on_c, 8, 60, 95
9, 213600, Note_off_c, 8, 60, 95
9, 213600, Note_on_c, 8, 62, 95
9, 213600, Note_on_c, 8, 43, 95
9, 214560, Note_off_c, 8, 62, 95
9, 214560, Note_off_c, 8, 43, 95
9, 214560, Note_on_c, 8, 62, 95
9, 215040, Note_off_c, 8, 62, 95
9, 215040, Note_on_c, 8, 67, 95
9, 215040, Note_on_c, 8, 43, 95
9, 215520, Note_off_c, 8, 67, 95
9, 215520, Note_off_c, 8, 43, 95
9, 215520, Note_on_c, 8, 62, 95
9, 216000, Note_off_c, 8, 62, 95
9, 216000, Note_on_c, 8, 55, 95
9, 216480, Note_off_c, 8, 55, 95
9, 216480, Note_on_c, 8, 64, 95
9, 216480, Note_on_c, 8, 45, 95
9, 216960, Note_off_c, 8, 64, 95
9, 216960, Note_off_c, 8, 45, 95
9, 216960, Note_on_c, 8, 60, 95
9, 217440, Note_off_c, 8, 60, 95
9, 217440, Note_on_c, 8, 57, 95
9, 217920, Note_off_c, 8, 57, 95
9, 217920, Note_on_c, 8, 65, 95
9, 217920, Note_on_c, 8, 50, 95
9, 218640, Note_off_c, 8, 65, 95
9, 218640, Note_off_c, 8, 50, 95
9, 218640, Note_on_c, 8, 62, 95
9, 218880, Note_off_c, 8, 62, 95
9, 218880, Note_on_c, 8, 57, 95
9, 219360, Note_off_c, 8, 57, 95
9, 219360, Note_on_c, 8, 64, 95
9, 219360, Note_on_c, 8, 45, 95
9, 219840, Note_off_c, 8, 64, 95
9, 219840, Note_off_c, 8, 45, 95
9, 219840, Note_on_c, 8, 60, 95
9, 220320, Note_off_c, 8, 60, 95
9, 220320, Note_on_c, 8, 57, 95
9, 220800, Note_off_c, 8, 57, 95
9, 220800, Note_on_c, 8, 65, 95
9, 220800, Note_on_c, 8, 50, 95
9, 221520, Note_off_c, 8, 65, 95
9, 221520, Note_off_c, 8, 50, 95
9, 221520, Note_on_c, 8, 62, 95
9, 221760, Note_off_c, 8, 62, 95
9, 221760, Note_on_c, 8, 57, 95
9, 222240, Note_off_c, 8, 57, 95
9, 222240, Note_on_c, 8, 64, 95
9, 222240, Note_on_c, 8, 45, 95
9, 222720, Note_off_c, 8, 64, 95
9, 222720, Note_off_c, 8, 45, 95
9, 222720, Note_on_c, 8, 60, 95
9, 223200, Note_off_c, 8, 60, 95
9, 223200, Note_on_c, 8, 57, 95
9, 223680, Note_off_c, 8, 57, 95
9, 223680, Note_on_c, 8, 65, 95
9, 223680, Note_on_c, 8, 50, 95
9, 224400, Note_off_c, 8, 65, 95
9, 224400, Note_off_c, 8, 50, 95
9, 224400, Note_on_c, 8, 62, 95
9, 224640, Note_off_c, 8, 62, 95
9, 224640, Note_on_c, 8, 57, 95
9, 225120, Note_off_c, 8, 57, 95
9, 225120, Note_on_c, 8, 60, 95
9, 225120, Note_on_c, 8, 41, 95
9, 226080, Note_off_c, 8, 60, 95
9, 226080, Note_off_c, 8, 41, 95
9, 226080, Note_on_c, 8, 60, 95
9, 226560, Note_off_c, 8, 60, 95
9, 226560, Note_on_c, 8, 62, 95
9, 226560, Note_on_c, 8, 43, 95
9, 227520, Note_off_c, 8, 62, 95
9, 227520, Note_off_c, 8, 43, 95
9, 227520, Note_on_c, 8, 62, 95
9, 228000, Note_off_c, 8, 62, 95
9, 228000, Note_on_c, 8, 65, 95
9, 228000, Note_on_c, 8, 50, 95
9, 228720, Note_off_c, 8, 65, 95
9, 228720, Note_off_c, 8, 50, 95
9, 228720, Note_on_c, 8, 65, 95
9, 228960, Note_off_c, 8, 65, 95
9, 228960, Note_on_c, 8, 62, 95
9, 229200, Note_off_c, 8, 62, 95
9, 229200, Note_on_c, 8, 65, 95
9, 229440, Note_off_c, 8, 65, 95
9, 229440, Note_on_c, 8, 57, 95
9, 230400, Note_off_c, 8, 57, 95
9, 230400, Note_on_c, 8, 65, 95
9, 230640, Note_off_c, 8, 65, 95
9, 230640, Note_on_c, 8, 62, 95
9, 230880, Note_off_c, 8, 62, 95
9, 230880, Note_on_c, 8, 60, 95
9, 230880, Note_on_c, 8, 41, 95
9, 231840, Note_off_c, 8, 60, 95
9, 231840, Note_off_c, 8, 41, 95
9, 231840, Note_on_c, 8, 60, 95
9, 232320, Note_off_c, 8, 60, 95
9, 232320, Note_on_c, 8, 62, 95
9, 232320, Note_on_c, 8, 43, 95
9, 233280, Note_off_c, 8, 62, 95
9, 233280, Note_off_c, 8, 43, 95
9, 233280, Note_on_c, 8, 62, 95
9, 233760, Note_off_c, 8, 62, 95
9, 233760, Note_on_c, 8, 64, 95
9, 233760, Note_on_c, 8, 48, 95
9, 234240, Note_off_c, 8, 64, 95
9, 234240, Note_off_c, 8, 48, 95
9, 234240, Note_on_c, 8, 60, 95
9, 234720, Note_off_c, 8, 60, 95
9, 234720, Note_on_c, 8, 55, 95
9, 235200, Note_off_c, 8, 55, 95
9, 235200, Note_on_c, 8, 67, 95
9, 235200, Note_on_c, 8, 43, 95
9, 235680, Note_off_c, 8, 67, 95
9, 235680, Note_off_c, 8, 43, 95
9, 235680, Note_on_c, 8, 62, 95
9, 236160, Note_off_c, 8, 62, 95
9, 236160, Note_on_c, 8, 55, 95
9, 236640, Note_off_c, 8, 55, 95
9, 236640, Note_on_c, 8, 64, 95
9, 236640, Note_on_c, 8, 45, 95
9, 237120, Note_off_c, 8, 64, 95
9, 237120, Note_off_c, 8, 45, 95
9, 237120, Note_on_c, 8, 57, 95
9, 237600, Note_off_c, 8, 57, 95
9, 237600, Note_on_c, 8, 60, 95
9, 238080, Note_off_c, 8, 60, 95
9, 238080, Note_on_c, 8, 59, 95
9, 238320, Note_off_c, 8, 59, 95
9, 238320, Note_on_c, 8, 60, 95
9, 238560, Note_off_c, 8, 60, 95
9, 238560, Note_on_c, 8, 57, 95
9, 239040, Note_off_c, 8, 57, 95
9, 239040, Note_on_c, 8, 45, 95
9, 239520, Note_off_c, 8, 45, 95
9, 239520, Note_on_c, 8, 64, 95
9, 239520, Note_on_c, 8, 48, 95
9, 240000, Note_off_c, 8, 64, 95
9, 240000, Note_off_c, 8, 48, 95
9, 240000, Note_on_c, 8, 60, 95
9, 240480, Note_off_c, 8, 60, 95
9, 240480, Note_on_c, 8, 55, 95
9, 240960, Note_off_c, 8, 55, 95
9, 240960, Note_on_c, 8, 67, 95
9, 240960, Note_on_c, 8, 43, 95
9, 241440, Note_off_c, 8, 67, 95
9, 241440, Note_off_c, 8, 43, 95
9, 241440, Note_on_c, 8, 62, 95
9, 241920, Note_off_c, 8, 62, 95
9, 241920, Note_on_c, 8, 55, 95
9, 242400, Note_off_c, 8, 55, 95
9, 242400, Note_on_c, 8, 64, 95
9, 242400, Note_on_c, 8, 45, 95
9, 242880, Note_off_c, 8, 64, 95
9, 242880, Note_off_c, 8, 45, 95
9, 242880, Note_on_c, 8, 60, 95
9, 243360, Note_off_c, 8, 60, 95
9, 243360, Note_on_c, 8, 57, 95
9, 243840, Note_off_c, 8, 57, 95
9, 243840, Note_on_c, 8, 52, 95
9, 244320, Note_off_c, 8, 52, 95
9, 244320, Note_on_c, 8, 57, 95
9, 244800, Note_off_c, 8, 57, 95
9, 244800, Note_on_c, 8, 60, 95
9, 244800, Note_on_c, 8, 45, 95
9, 245280, Note_off_c, 8, 60, 95
9, 245280, Note_off_c, 8, 45, 95
9, 245280, Note_on_c, 8, 64, 95
9, 245280, Note_on_c, 8, 48, 95
9, 245760, Note_off_c, 8, 64, 95
9, 245760, Note_off_c, 8, 48, 95
9, 245760, Note_on_c, 8, 60, 95
9, 246240, Note_off_c, 8, 60, 95
9, 246240, Note_on_c, 8, 55, 95
9, 246720, Note_off_c, 8, 55, 95
9, 246720, Note_on_c, 8, 67, 95
9, 246720, Note_on_c, 8, 43, 95
9, 247200, Note_off_c, 8, 67, 95
9, 247200, Note_off_c, 8, 43, 95
9, 247200, Note_on_c, 8, 62, 95
9, 247680, Note_off_c, 8, 62, 95
9, 247680, Note_on_c, 8, 55, 95
9, 248160, Note_off_c, 8, 55, 95
9, 248160, Note_on_c, 8, 64, 95
9, 248160, Note_on_c, 8, 45, 95
9, 248640, Note_off_c, 8, 64, 95
9, 248640, Note_off_c, 8, 45, 95
9, 248640, Note_on_c, 8, 60, 95
9, 249120, Note_off_c, 8, 60, 95
9, 249120, Note_on_c, 8, 57, 95
9, 249600, Note_off_c, 8, 57, 95
9, 249600, Note_on_c, 8, 52, 95
9, 250080, Note_off_c, 8, 52, 95
9, 250080, Note_on_c, 8, 57, 95
9, 250560, Note_off_c, 8, 57, 95
9, 250560, Note_on_c, 8, 60, 95
9, 251040, Note_off_c, 8, 60, 95
9, 251040, Note_on_c, 8, 64, 95
9, 251040, Note_on_c, 8, 48, 95
9, 251520, Note_off_c, 8, 64, 95
9, 251520, Note_off_c, 8, 48, 95
9, 251520, Note_on_c, 8, 60, 95
9, 252000, Note_off_c, 8, 60, 95
9, 252000, Note_on_c, 8, 55, 95
9, 252480, Note_off_c, 8, 55, 95
9, 252480, Note_on_c, 8, 67, 95
9, 252480, Note_on_c, 8, 43, 95
9, 252960, Note_off_c, 8, 67, 95
9, 252960, Note_off_c, 8, 43, 95
9, 252960, Note_on_c, 8, 62, 95
9, 253440, Note_off_c, 8, 62, 95
9, 253440, Note_on_c, 8, 55, 95
9, 253920, Note_off_c, 8, 55, 95
9, 253920, Note_on_c, 8, 64, 95
9, 253920, Note_on_c, 8, 45, 95
9, 254400, Note_off_c, 8, 64, 95
9, 254400, Note_off_c, 8, 45, 95
9, 254400, Note_on_c, 8, 57, 95
9, 254880, Note_off_c, 8, 57, 95
9, 254880, Note_on_c, 8, 60, 95
9, 255360, Note_off_c, 8, 60, 95
9, 255360, Note_on_c, 8, 59, 95
9, 255600, Note_off_c, 8, 59, 95
9, 255600, Note_on_c, 8, 60, 95
9, 255840, Note_off_c, 8, 60, 95
9, 255840, Note_on_c, 8, 57, 95
9, 256320, Note_off_c, 8, 57, 95
9, 256320, Note_on_c, 8, 60, 95
9, 256320, Note_on_c, 8, 45, 95
9, 256800, Note_off_c, 8, 60, 95
9, 256800, Note_off_c, 8, 45, 95
9, 256800, Note_on_c, 8, 64, 95
9, 256800, Note_on_c, 8, 48, 95
9, 257280, Note_off_c, 8, 64, 95
9, 257280, Note_off_c, 8, 48, 95
9, 257280, Note_on_c, 8, 60, 95
9, 257760, Note_off_c, 8, 60, 95
9, 257760, Note_on_c, 8, 55, 95
9, 258240, Note_off_c, 8, 55, 95
9, 258240, Note_on_c, 8, 67, 95
9, 258240, Note_on_c, 8, 43, 95
9, 258720, Note_off_c, 8, 67, 95
9, 258720, Note_off_c, 8, 43, 95
9, 258720, Note_on_c, 8, 62, 95
9, 259200, Note_off_c, 8, 62, 95
9, 259200, Note_on_c, 8, 55, 95
9, 259680, Note_off_c, 8, 55, 95
9, 259680, Note_on_c, 8, 64, 95
9, 259680, Note_on_c, 8, 45, 95
9, 260160, Note_off_c, 8, 64, 95
9, 260160, Note_off_c, 8, 45, 95
9, 260160, Note_on_c, 8, 60, 95
9, 260640, Note_off_c, 8, 60, 95
9, 260640, Note_on_c, 8, 57, 95
9, 261120, Note_off_c, 8, 57, 95
9, 261120, Note_on_c, 8, 52, 95
9, 261600, Note_off_c, 8, 52, 95
9, 261600, Note_on_c, 8, 57, 95
9, 262080, Note_off_c, 8, 57, 95
9, 262080, Note_on_c, 8, 60, 95
9, 262560, Note_off_c, 8, 60, 95
9, 262560, Note_on_c, 8, 64, 95
9, 262560, Note_on_c, 8, 48, 95
9, 263040, Note_off_c, 8, 64, 95
9, 263040, Note_off_c, 8, 48, 95
9, 263040, Note_on_c, 8, 60, 95
9, 263520, Note_off_c, 8, 60, 95
9, 263520, Note_on_c, 8, 55, 95
9, 264000, Note_off_c, 8, 55, 95
9, 264000, Note_on_c, 8, 67, 95
9, 264000, Note_on_c, 8, 43, 95
9, 264480, Note_off_c, 8, 67, 95
9, 264480, Note_off_c, 8, 43, 95
9, 264480, Note_on_c, 8, 62, 95
9, 264960, Note_off_c, 8, 62, 95
9, 264960, Note_on_c, 8, 55, 95
9, 265440, Note_off_c, 8, 55, 95
9, 265440, Note_on_c, 8, 64, 95
9, 265440, Note_on_c, 8, 45, 95
9, 265920, Note_off_c, 8, 64, 95
9, 265920, Note_off_c, 8, 45, 95
9, 265920, Note_on_c, 8, 57, 95
9, 266400, Note_off_c, 8, 57, 95
9, 266400, Note_on_c, 8, 60, 95
9, 266880, Note_off_c, 8, 60, 95
9, 266880, Note_on_c, 8, 59, 95
9, 267120, Note_off_c, 8, 59, 95
9, 267120, Note_on_c, 8, 60, 95
9, 267360, Note_off_c, 8, 60, 95
9, 267360, Note_on_c, 8, 57, 95
9, 267840, Note_off_c, 8, 57, 95
9, 267840, Note_on_c, 8, 45, 95
9, 268320, Note_off_c, 8, 45, 95
9, 268320, Note_on_c, 8, 64, 95
9, 268320, Note_on_c, 8, 48, 95
9, 268800, Note_off_c, 8, 64, 95
9, 268800, Note_off_c, 8, 48, 95
9, 268800, Note_on_c, 8, 60, 95
9, 269280, Note_off_c, 8, 60, 95
9, 269280, Note_on_c, 8, 55, 95
9, 269760, Note_off_c, 8, 55, 95
9, 269760, Note_on_c, 8, 67, 95
9, 269760, Note_on_c, 8, 43, 95
9, 270240, Note_off_c, 8, 67, 95
9, 270240, Note_off_c, 8, 43, 95
9, 270240, Note_on_c, 8, 62, 95
9, 270720, Note_off_c, 8, 62, 95
9, 270720, Note_on_c, 8, 55, 95
9, 271200, Note_off_c, 8, 55, 95
9, 271320, Note_on_c, 8, 40, 95
9, 271680, Note_off_c, 8, 40, 95
9, 271680, Note_on_c, 8, 47, 95
9, 272040, Note_off_c, 8, 47, 95
9, 272040, Note_on_c, 8, 52, 95
9, 272280, Note_off_c, 8, 52, 95
9, 272280, Note_on_c, 8, 55, 95
9, 272760, Note_off_c, 8, 55, 95
9, 272760, Note_on_c, 8, 59, 95
9, 273120, Note_off_c, 8, 59, 95
9, 273120, Note_on_c, 8, 64, 95
9, 276480, Note_off_c, 8, 64, 95
9, 276480, End_track
10, 0, Start_track
10, 0, Pitch_bend_c, 10, 8192
10, 0, Control_c, 10, 7, 79
10, 0, Control_c, 10, 10, 63
10, 0, Control_c, 10, 93, 15
10, 0, Control_c, 10, 91, 79
10, 0, Control_c, 10, 95, 0
10, 0, Control_c, 10, 92, 0
10, 0, Control_c, 10, 11, 127
10, 0, Program_c, 10, 25
10, 23040, Note_on_c, 10, 72, 127
10, 24000, Note_off_c, 10, 72, 127
10, 24000, Note_on_c, 10, 74, 127
10, 24480, Note_off_c, 10, 74, 127
10, 24480, Note_on_c, 10, 72, 127
10, 24960, Note_off_c, 10, 72, 127
10, 24960, Note_on_c, 10, 71, 127
10, 25920, Note_off_c, 10, 71, 127
10, 25920, Note_on_c, 10, 71, 127
10, 26880, Note_off_c, 10, 71, 127
10, 26880, Note_on_c, 10, 69, 127
10, 27840, Note_off_c, 10, 69, 127
10, 27840, Note_on_c, 10, 67, 127
10, 28800, Note_off_c, 10, 67, 127
10, 28800, Note_on_c, 10, 67, 127
10, 29760, Note_off_c, 10, 67, 127
10, 29760, Note_on_c, 10, 69, 127
10, 30240, Note_off_c, 10, 69, 127
10, 30240, Note_on_c, 10, 71, 127
10, 30720, Note_off_c, 10, 71, 127
10, 30720, Note_on_c, 10, 72, 127
10, 31680, Note_off_c, 10, 72, 127
10, 31680, Note_on_c, 10, 71, 127
10, 32640, Note_off_c, 10, 71, 127
10, 32640, Note_on_c, 10, 72, 127
10, 33600, Note_off_c, 10, 72, 127
10, 33600, Note_on_c, 10, 74, 127
10, 34560, Note_off_c, 10, 74, 127
10, 34560, Note_on_c, 10, 72, 127
10, 35520, Note_off_c, 10, 72, 127
10, 35520, Note_on_c, 10, 74, 127
10, 36000, Note_off_c, 10, 74, 127
10, 36000, Note_on_c, 10, 72, 127
10, 36480, Note_off_c, 10, 72, 127
10, 36480, Note_on_c, 10, 71, 127
10, 37440, Note_off_c, 10, 71, 127
10, 37440, Note_on_c, 10, 71, 127
10, 38400, Note_off_c, 10, 71, 127
10, 38400, Note_on_c, 10, 69, 127
10, 39360, Note_off_c, 10, 69, 127
10, 39360, Note_on_c, 10, 67, 127
10, 40320, Note_off_c, 10, 67, 127
10, 40320, Note_on_c, 10, 67, 127
10, 41280, Note_off_c, 10, 67, 127
10, 41280, Note_on_c, 10, 69, 127
10, 41760, Note_off_c, 10, 69, 127
10, 41760, Note_on_c, 10, 71, 127
10, 42240, Note_off_c, 10, 71, 127
10, 42240, Note_on_c, 10, 72, 127
10, 43200, Note_off_c, 10, 72, 127
10, 54720, Note_on_c, 10, 64, 127
10, 55440, Note_off_c, 10, 64, 127
10, 55440, Note_on_c, 10, 62, 127
10, 56160, Note_off_c, 10, 62, 127
10, 56160, Note_on_c, 10, 60, 127
10, 56640, Note_off_c, 10, 60, 127
10, 56640, Note_on_c, 10, 62, 127
10, 57360, Note_off_c, 10, 62, 127
10, 57360, Note_on_c, 10, 60, 127
10, 58080, Note_off_c, 10, 60, 127
10, 58080, Note_on_c, 10, 59, 127
10, 58560, Note_off_c, 10, 59, 127
10, 58560, Note_on_c, 10, 59, 127
10, 59280, Note_off_c, 10, 59, 127
10, 59280, Note_on_c, 10, 57, 127
10, 60000, Note_off_c, 10, 57, 127
10, 60000, Note_on_c, 10, 55, 127
10, 60480, Note_off_c, 10, 55, 127
10, 60480, Note_on_c, 10, 57, 127
10, 61200, Note_off_c, 10, 57, 127
10, 61200, Note_on_c, 10, 59, 127
10, 61920, Note_off_c, 10, 59, 127
10, 61920, Note_on_c, 10, 60, 127
10, 62400, Note_off_c, 10, 60, 127
10, 62400, Note_on_c, 10, 76, 127
10, 63120, Note_off_c, 10, 76, 127
10, 63120, Note_on_c, 10, 77, 127
10, 63840, Note_off_c, 10, 77, 127
10, 63840, Note_on_c, 10, 79, 127
10, 64320, Note_off_c, 10, 79, 127
10, 64320, Note_on_c, 10, 72, 127
10, 64440, Note_off_c, 10, 72, 127
10, 64440, Note_on_c, 10, 74, 127
10, 65040, Note_off_c, 10, 74, 127
10, 65040, Note_on_c, 10, 72, 127
10, 65760, Note_off_c, 10, 72, 127
10, 65760, Note_on_c, 10, 71, 127
10, 66240, Note_off_c, 10, 71, 127
10, 66240, Note_on_c, 10, 74, 127
10, 66960, Note_off_c, 10, 74, 127
10, 66960, Note_on_c, 10, 76, 127
10, 67440, Note_off_c, 10, 76, 127
10, 67440, Note_on_c, 10, 71, 127
10, 67680, Note_off_c, 10, 71, 127
10, 67680, Note_on_c, 10, 72, 127
10, 67920, Note_off_c, 10, 72, 127
10, 67920, Note_on_c, 10, 74, 127
10, 68160, Note_off_c, 10, 74, 127
10, 68160, Note_on_c, 10, 76, 127
10, 68400, Note_off_c, 10, 76, 127
10, 68400, Note_on_c, 10, 76, 127
10, 68520, Note_off_c, 10, 76, 127
10, 68520, Note_on_c, 10, 77, 127
10, 68640, Note_off_c, 10, 77, 127
10, 68640, Note_on_c, 10, 76, 127
10, 68760, Note_off_c, 10, 76, 127
10, 68880, Note_on_c, 10, 74, 127
10, 69120, Note_off_c, 10, 74, 127
10, 69120, Note_on_c, 10, 76, 127
10, 70080, Note_off_c, 10, 76, 127
10, 70080, Note_on_c, 10, 76, 127
10, 70800, Note_off_c, 10, 76, 127
10, 70800, Note_on_c, 10, 74, 127
10, 71520, Note_off_c, 10, 74, 127
10, 71520, Note_on_c, 10, 72, 127
10, 72000, Note_off_c, 10, 72, 127
10, 72000, Note_on_c, 10, 72, 127
10, 72120, Note_off_c, 10, 72, 127
10, 72120, Note_on_c, 10, 74, 127
10, 72720, Note_off_c, 10, 74, 127
10, 72720, Note_on_c, 10, 72, 127
10, 73440, Note_off_c, 10, 72, 127
10, 73440, Note_on_c, 10, 71, 127
10, 73920, Note_off_c, 10, 71, 127
10, 73920, Note_on_c, 10, 71, 127
10, 74640, Note_off_c, 10, 71, 127
10, 74640, Note_on_c, 10, 72, 127
10, 75360, Note_off_c, 10, 72, 127
10, 75360, Note_on_c, 10, 74, 127
10, 75840, Note_off_c, 10, 74, 127
10, 75840, Note_on_c, 10, 77, 127
10, 76080, Note_off_c, 10, 77, 127
10, 76080, Note_on_c, 10, 74, 127
10, 76320, Note_off_c, 10, 74, 127
10, 76320, Note_on_c, 10, 69, 127
10, 76800, Note_off_c, 10, 69, 127
10, 81600, Note_on_c, 10, 69, 127
10, 82320, Note_off_c, 10, 69, 127
10, 82320, Note_on_c, 10, 69, 127
10, 82560, Note_off_c, 10, 69, 127
10, 82560, Note_on_c, 10, 67, 127
10, 83280, Note_off_c, 10, 67, 127
10, 83280, Note_on_c, 10, 67, 127
10, 83520, Note_off_c, 10, 67, 127
10, 83520, Note_on_c, 10, 64, 127
10, 84000, Note_off_c, 10, 64, 127
10, 84000, Note_on_c, 10, 60, 127
10, 84480, Note_off_c, 10, 60, 127
10, 84480, Note_on_c, 10, 67, 127
10, 84480, Note_on_c, 10, 62, 127
10, 86400, Note_off_c, 10, 67, 127
10, 86400, Note_off_c, 10, 62, 127
10, 86880, Note_on_c, 10, 74, 127
10, 87360, Note_off_c, 10, 74, 127
10, 87600, Note_on_c, 10, 76, 127
10, 87840, Note_off_c, 10, 76, 127
10, 87840, Note_on_c, 10, 74, 127
10, 88320, Note_off_c, 10, 74, 127
10, 88320, Note_on_c, 10, 76, 95
10, 89160, Note_off_c, 10, 76, 95
10, 89280, Note_on_c, 10, 74, 127
10, 89760, Note_off_c, 10, 74, 127
10, 89760, Note_on_c, 10, 77, 127
10, 90240, Note_off_c, 10, 77, 127
10, 90480, Note_on_c, 10, 76, 127
10, 90720, Note_off_c, 10, 76, 127
10, 90720, Note_on_c, 10, 74, 127
10, 91200, Note_off_c, 10, 74, 127
10, 91200, Note_on_c, 10, 76, 127
10, 92040, Note_off_c, 10, 76, 127
10, 92160, Note_on_c, 10, 74, 127
10, 92640, Note_off_c, 10, 74, 127
10, 92640, Note_on_c, 10, 77, 127
10, 93120, Note_off_c, 10, 77, 127
10, 93360, Note_on_c, 10, 76, 127
10, 93600, Note_off_c, 10, 76, 127
10, 93600, Note_on_c, 10, 74, 127
10, 94080, Note_off_c, 10, 74, 127
10, 94080, Note_on_c, 10, 76, 127
10, 94920, Note_off_c, 10, 76, 127
10, 95040, Note_on_c, 10, 74, 127
10, 95520, Note_off_c, 10, 74, 127
10, 95520, Note_on_c, 10, 77, 127
10, 96480, Note_off_c, 10, 77, 127
10, 96960, Note_on_c, 10, 81, 127
10, 97920, Note_off_c, 10, 81, 127
10, 97920, Note_on_c, 10, 81, 127
10, 98400, Note_off_c, 10, 81, 127
10, 98400, Note_on_c, 10, 79, 127
10, 99360, Note_off_c, 10, 79, 127
10, 99360, Note_on_c, 10, 79, 127
10, 99840, Note_off_c, 10, 79, 127
10, 99840, Note_on_c, 10, 74, 127
10, 100200, Note_off_c, 10, 74, 127
10, 100320, Note_on_c, 10, 72, 127
10, 100560, Note_off_c, 10, 72, 127
10, 100560, Note_on_c, 10, 74, 127
10, 100800, Note_off_c, 10, 74, 127
10, 100800, Note_on_c, 10, 76, 127
10, 101040, Note_off_c, 10, 76, 127
10, 101040, Note_on_c, 10, 77, 127
10, 101280, Note_off_c, 10, 77, 127
10, 101280, Note_on_c, 10, 79, 127
10, 101520, Note_off_c, 10, 79, 127
10, 101520, Note_on_c, 10, 81, 127
10, 101760, Note_off_c, 10, 81, 127
10, 101760, Note_on_c, 10, 79, 127
10, 102000, Note_off_c, 10, 79, 127
10, 102000, Note_on_c, 10, 77, 127
10, 102240, Note_off_c, 10, 77, 127
10, 102240, Note_on_c, 10, 76, 127
10, 102480, Note_off_c, 10, 76, 127
10, 102480, Note_on_c, 10, 74, 127
10, 102720, Note_off_c, 10, 74, 127
10, 102720, Note_on_c, 10, 72, 127
10, 103680, Note_off_c, 10, 72, 127
10, 103680, Note_on_c, 10, 72, 127
10, 104160, Note_off_c, 10, 72, 127
10, 104160, Note_on_c, 10, 74, 127
10, 105120, Note_off_c, 10, 74, 127
10, 105120, Note_on_c, 10, 74, 127
10, 105600, Note_off_c, 10, 74, 127
10, 105600, Note_on_c, 10, 74, 127
10, 106080, Note_off_c, 10, 74, 127
10, 106320, Note_on_c, 10, 76, 127
10, 106560, Note_off_c, 10, 76, 127
10, 106560, Note_on_c, 10, 74, 127
10, 107040, Note_off_c, 10, 74, 127
10, 107040, Note_on_c, 10, 76, 127
10, 107880, Note_off_c, 10, 76, 127
10, 108000, Note_on_c, 10, 74, 127
10, 108480, Note_off_c, 10, 74, 127
10, 108480, Note_on_c, 10, 77, 127
10, 108960, Note_off_c, 10, 77, 127
10, 109200, Note_on_c, 10, 76, 127
10, 109440, Note_off_c, 10, 76, 127
10, 109440, Note_on_c, 10, 74, 127
10, 109920, Note_off_c, 10, 74, 127
10, 109920, Note_on_c, 10, 76, 127
10, 110760, Note_off_c, 10, 76, 127
10, 110880, Note_on_c, 10, 74, 127
10, 111360, Note_off_c, 10, 74, 127
10, 111360, Note_on_c, 10, 77, 127
10, 111840, Note_off_c, 10, 77, 127
10, 112080, Note_on_c, 10, 76, 127
10, 112320, Note_off_c, 10, 76, 127
10, 112320, Note_on_c, 10, 74, 127
10, 112800, Note_off_c, 10, 74, 127
10, 112800, Note_on_c, 10, 76, 127
10, 113640, Note_off_c, 10, 76, 127
10, 113760, Note_on_c, 10, 74, 127
10, 114240, Note_off_c, 10, 74, 127
10, 114240, Note_on_c, 10, 77, 127
10, 115200, Note_off_c, 10, 77, 127
10, 115680, Note_on_c, 10, 79, 127
10, 115800, Note_off_c, 10, 79, 127
10, 115800, Note_on_c, 10, 81, 127
10, 116760, Note_off_c, 10, 81, 127
10, 122640, Note_on_c, 10, 60, 95
10, 122640, Note_on_c, 10, 57, 95
10, 122640, Note_on_c, 10, 45, 95
10, 122880, Note_off_c, 10, 60, 95
10, 122880, Note_off_c, 10, 57, 95
10, 122880, Note_off_c, 10, 45, 95
10, 122880, Note_on_c, 10, 59, 95
10, 123120, Note_off_c, 10, 59, 95
10, 123120, Note_on_c, 10, 57, 95
10, 124080, Note_off_c, 10, 57, 95
10, 124080, Note_on_c, 10, 55, 95
10, 124560, Note_off_c, 10, 55, 95
10, 124560, Note_on_c, 10, 57, 95
10, 125520, Note_off_c, 10, 57, 95
10, 125520, Note_on_c, 10, 52, 95
10, 126480, Note_off_c, 10, 52, 95
10, 126480, Note_on_c, 10, 53, 95
10, 127440, Note_off_c, 10, 53, 95
10, 127440, Note_on_c, 10, 50, 95
10, 128400, Note_off_c, 10, 50, 95
10, 128400, Note_on_c, 10, 52, 95
10, 128640, Note_off_c, 10, 52, 95
10, 128640, Note_on_c, 10, 50, 95
10, 128880, Note_off_c, 10, 50, 95
10, 128880, Note_on_c, 10, 48, 95
10, 129120, Note_off_c, 10, 48, 95
10, 129120, Note_on_c, 10, 47, 95
10, 129360, Note_off_c, 10, 47, 95
10, 129360, Note_on_c, 10, 45, 95
10, 130320, Note_off_c, 10, 45, 95
10, 130320, Note_on_c, 10, 57, 95
10, 130320, Note_on_c, 10, 53, 95
10, 131760, Note_off_c, 10, 57, 95
10, 131760, Note_off_c, 10, 53, 95
10, 131760, Note_on_c, 10, 57, 95
10, 131760, Note_on_c, 10, 53, 95
10, 132120, Note_off_c, 10, 57, 95
10, 132120, Note_off_c, 10, 53, 95
10, 132120, Note_on_c, 10, 53, 95
10, 132120, Note_on_c, 10, 49, 95
10, 132240, Note_off_c, 10, 53, 95
10, 132240, Note_off_c, 10, 49, 95
10, 132240, Note_on_c, 10, 59, 95
10, 132240, Note_on_c, 10, 55, 95
10, 133200, Note_off_c, 10, 59, 95
10, 133200, Note_off_c, 10, 55, 95
10, 133200, Note_on_c, 10, 52, 95
10, 134160, Note_off_c, 10, 52, 95
10, 134160, Note_on_c, 10, 72, 95
10, 134160, Note_on_c, 10, 69, 95
10, 134160, Note_on_c, 10, 45, 95
10, 134400, Note_off_c, 10, 72, 95
10, 134400, Note_off_c, 10, 69, 95
10, 134400, Note_off_c, 10, 45, 95
10, 134400, Note_on_c, 10, 71, 95
10, 134640, Note_off_c, 10, 71, 95
10, 134640, Note_on_c, 10, 69, 95
10, 135600, Note_off_c, 10, 69, 95
10, 135600, Note_on_c, 10, 67, 95
10, 136080, Note_off_c, 10, 67, 95
10, 136080, Note_on_c, 10, 69, 95
10, 137040, Note_off_c, 10, 69, 95
10, 137040, Note_on_c, 10, 64, 95
10, 138000, Note_off_c, 10, 64, 95
10, 138000, Note_on_c, 10, 65, 95
10, 138960, Note_off_c, 10, 65, 95
10, 138960, Note_on_c, 10, 62, 95
10, 139920, Note_off_c, 10, 62, 95
10, 139920, Note_on_c, 10, 64, 95
10, 140160, Note_off_c, 10, 64, 95
10, 140160, Note_on_c, 10, 62, 95
10, 140400, Note_off_c, 10, 62, 95
10, 140400, Note_on_c, 10, 60, 95
10, 140640, Note_off_c, 10, 60, 95
10, 140640, Note_on_c, 10, 59, 95
10, 140880, Note_off_c, 10, 59, 95
10, 140880, Note_on_c, 10, 57, 95
10, 141840, Note_off_c, 10, 57, 95
10, 141840, Note_on_c, 10, 69, 95
10, 141840, Note_on_c, 10, 65, 95
10, 143280, Note_off_c, 10, 69, 95
10, 143280, Note_off_c, 10, 65, 95
10, 143280, Note_on_c, 10, 69, 95
10, 143280, Note_on_c, 10, 65, 95
10, 143640, Note_off_c, 10, 69, 95
10, 143640, Note_off_c, 10, 65, 95
10, 143640, Note_on_c, 10, 65, 95
10, 143640, Note_on_c, 10, 61, 95
10, 143760, Note_off_c, 10, 65, 95
10, 143760, Note_off_c, 10, 61, 95
10, 143760, Note_on_c, 10, 71, 95
10, 143760, Note_on_c, 10, 67, 95
10, 145680, Note_off_c, 10, 71, 95
10, 145680, Note_off_c, 10, 67, 95
10, 145680, Note_on_c, 10, 69, 127
10, 146400, Note_off_c, 10, 69, 127
10, 146400, Note_on_c, 10, 71, 127
10, 147120, Note_off_c, 10, 71, 127
10, 147120, Note_on_c, 10, 72, 127
10, 147600, Note_off_c, 10, 72, 127
10, 147600, Note_on_c, 10, 76, 127
10, 148320, Note_off_c, 10, 76, 127
10, 148320, Note_on_c, 10, 71, 127
10, 149040, Note_off_c, 10, 71, 127
10, 149040, Note_on_c, 10, 67, 127
10, 149520, Note_off_c, 10, 67, 127
10, 149520, Note_on_c, 10, 65, 127
10, 150240, Note_off_c, 10, 65, 127
10, 150240, Note_on_c, 10, 67, 127
10, 150960, Note_off_c, 10, 67, 127
10, 150960, Note_on_c, 10, 69, 127
10, 151440, Note_off_c, 10, 69, 127
10, 151440, Note_on_c, 10, 67, 127
10, 151560, Note_off_c, 10, 67, 127
10, 151560, Note_on_c, 10, 69, 127
10, 151680, Note_off_c, 10, 69, 127
10, 151680, Note_on_c, 10, 67, 127
10, 152160, Note_off_c, 10, 67, 127
10, 152160, Note_on_c, 10, 76, 127
10, 152640, Note_off_c, 10, 76, 127
10, 152640, Note_on_c, 10, 74, 127
10, 152880, Note_off_c, 10, 74, 127
10, 152880, Note_on_c, 10, 72, 127
10, 153120, Note_off_c, 10, 72, 127
10, 153120, Note_on_c, 10, 71, 127
10, 153360, Note_off_c, 10, 71, 127
10, 153360, Note_on_c, 10, 72, 127
10, 154080, Note_off_c, 10, 72, 127
10, 154080, Note_on_c, 10, 74, 127
10, 154800, Note_off_c, 10, 74, 127
10, 154800, Note_on_c, 10, 76, 127
10, 155280, Note_off_c, 10, 76, 127
10, 155280, Note_on_c, 10, 74, 127
10, 156000, Note_off_c, 10, 74, 127
10, 156000, Note_on_c, 10, 79, 127
10, 156480, Note_off_c, 10, 79, 127
10, 156480, Note_on_c, 10, 77, 127
10, 156720, Note_off_c, 10, 77, 127
10, 156720, Note_on_c, 10, 76, 127
10, 156840, Note_off_c, 10, 76, 127
10, 156840, Note_on_c, 10, 77, 127
10, 156960, Note_off_c, 10, 77, 127
10, 156960, Note_on_c, 10, 74, 127
10, 157200, Note_off_c, 10, 74, 127
10, 157200, Note_on_c, 10, 74, 127
10, 157920, Note_off_c, 10, 74, 127
10, 157920, Note_on_c, 10, 77, 127
10, 158640, Note_off_c, 10, 77, 127
10, 158640, Note_on_c, 10, 81, 127
10, 159120, Note_off_c, 10, 81, 127
10, 159120, Note_on_c, 10, 79, 127
10, 161280, Note_off_c, 10, 79, 127
10, 161280, Note_on_c, 10, 64, 127
10, 162000, Note_off_c, 10, 64, 127
10, 162000, Note_on_c, 10, 62, 127
10, 162720, Note_off_c, 10, 62, 127
10, 162720, Note_on_c, 10, 60, 127
10, 163200, Note_off_c, 10, 60, 127
10, 163200, Note_on_c, 10, 62, 127
10, 163920, Note_off_c, 10, 62, 127
10, 163920, Note_on_c, 10, 60, 127
10, 164640, Note_off_c, 10, 60, 127
10, 164640, Note_on_c, 10, 59, 127
10, 165120, Note_off_c, 10, 59, 127
10, 165120, Note_on_c, 10, 59, 127
10, 165840, Note_off_c, 10, 59, 127
10, 165840, Note_on_c, 10, 57, 127
10, 166560, Note_off_c, 10, 57, 127
10, 166560, Note_on_c, 10, 55, 127
10, 167040, Note_off_c, 10, 55, 127
10, 167040, Note_on_c, 10, 57, 127
10, 167760, Note_off_c, 10, 57, 127
10, 167760, Note_on_c, 10, 59, 127
10, 168480, Note_off_c, 10, 59, 127
10, 168480, Note_on_c, 10, 60, 127
10, 168960, Note_off_c, 10, 60, 127
10, 168960, Note_on_c, 10, 64, 127
10, 169680, Note_off_c, 10, 64, 127
10, 169680, Note_on_c, 10, 62, 127
10, 170400, Note_off_c, 10, 62, 127
10, 170400, Note_on_c, 10, 60, 127
10, 170880, Note_off_c, 10, 60, 127
10, 170880, Note_on_c, 10, 62, 127
10, 171600, Note_off_c, 10, 62, 127
10, 171600, Note_on_c, 10, 60, 127
10, 172320, Note_off_c, 10, 60, 127
10, 172320, Note_on_c, 10, 59, 127
10, 172800, Note_off_c, 10, 59, 127
10, 172800, Note_on_c, 10, 59, 127
10, 173520, Note_off_c, 10, 59, 127
10, 173520, Note_on_c, 10, 57, 127
10, 174240, Note_off_c, 10, 57, 127
10, 174240, Note_on_c, 10, 55, 127
10, 174720, Note_off_c, 10, 55, 127
10, 174720, Note_on_c, 10, 57, 127
10, 175440, Note_off_c, 10, 57, 127
10, 175440, Note_on_c, 10, 59, 127
10, 176160, Note_off_c, 10, 59, 127
10, 176160, Note_on_c, 10, 60, 127
10, 176640, Note_off_c, 10, 60, 127
10, 176640, Note_on_c, 10, 76, 127
10, 177360, Note_off_c, 10, 76, 127
10, 177360, Note_on_c, 10, 77, 127
10, 178080, Note_off_c, 10, 77, 127
10, 178080, Note_on_c, 10, 79, 127
10, 178440, Note_off_c, 10, 79, 127
10, 178440, Note_on_c, 10, 72, 127
10, 178560, Note_off_c, 10, 72, 127
10, 178560, Note_on_c, 10, 74, 127
10, 179280, Note_off_c, 10, 74, 127
10, 179280, Note_on_c, 10, 72, 127
10, 180000, Note_off_c, 10, 72, 127
10, 180000, Note_on_c, 10, 71, 127
10, 180480, Note_off_c, 10, 71, 127
10, 180480, Note_on_c, 10, 74, 127
10, 181200, Note_off_c, 10, 74, 127
10, 181200, Note_on_c, 10, 76, 127
10, 181680, Note_off_c, 10, 76, 127
10, 181680, Note_on_c, 10, 71, 127
10, 181920, Note_off_c, 10, 71, 127
10, 181920, Note_on_c, 10, 72, 127
10, 182160, Note_off_c, 10, 72, 127
10, 182160, Note_on_c, 10, 74, 127
10, 182400, Note_off_c, 10, 74, 127
10, 182400, Note_on_c, 10, 76, 127
10, 182640, Note_off_c, 10, 76, 127
10, 182640, Note_on_c, 10, 76, 127
10, 182760, Note_off_c, 10, 76, 127
10, 182760, Note_on_c, 10, 77, 127
10, 182880, Note_off_c, 10, 77, 127
10, 182880, Note_on_c, 10, 76, 127
10, 183000, Note_off_c, 10, 76, 127
10, 183120, Note_on_c, 10, 74, 127
10, 183360, Note_off_c, 10, 74, 127
10, 183360, Note_on_c, 10, 76, 127
10, 184320, Note_off_c, 10, 76, 127
10, 184320, Note_on_c, 10, 76, 127
10, 185040, Note_off_c, 10, 76, 127
10, 185040, Note_on_c, 10, 74, 127
10, 185760, Note_off_c, 10, 74, 127
10, 185760, Note_on_c, 10, 72, 127
10, 186240, Note_off_c, 10, 72, 127
10, 186240, Note_on_c, 10, 74, 127
10, 186960, Note_off_c, 10, 74, 127
10, 186960, Note_on_c, 10, 72, 127
10, 187680, Note_off_c, 10, 72, 127
10, 187680, Note_on_c, 10, 71, 127
10, 188160, Note_off_c, 10, 71, 127
10, 188160, Note_on_c, 10, 71, 127
10, 188880, Note_off_c, 10, 71, 127
10, 188880, Note_on_c, 10, 72, 127
10, 189600, Note_off_c, 10, 72, 127
10, 189600, Note_on_c, 10, 74, 127
10, 189960, Note_off_c, 10, 74, 127
10, 190080, Note_on_c, 10, 77, 127
10, 190320, Note_off_c, 10, 77, 127
10, 190320, Note_on_c, 10, 74, 127
10, 190560, Note_off_c, 10, 74, 127
10, 190560, Note_on_c, 10, 69, 127
10, 191040, Note_off_c, 10, 69, 127
10, 196320, Note_on_c, 10, 74, 127
10, 196800, Note_off_c, 10, 74, 127
10, 197040, Note_on_c, 10, 76, 127
10, 197280, Note_off_c, 10, 76, 127
10, 197280, Note_on_c, 10, 74, 127
10, 197760, Note_off_c, 10, 74, 127
10, 197760, Note_on_c, 10, 76, 95
10, 198600, Note_off_c, 10, 76, 95
10, 198720, Note_on_c, 10, 74, 127
10, 199200, Note_off_c, 10, 74, 127
10, 199200, Note_on_c, 10, 77, 127
10, 199680, Note_off_c, 10, 77, 127
10, 199920, Note_on_c, 10, 76, 127
10, 200160, Note_off_c, 10, 76, 127
10, 200160, Note_on_c, 10, 74, 127
10, 200640, Note_off_c, 10, 74, 127
10, 200640, Note_on_c, 10, 76, 127
10, 201480, Note_off_c, 10, 76, 127
10, 201600, Note_on_c, 10, 74, 127
10, 202080, Note_off_c, 10, 74, 127
10, 202080, Note_on_c, 10, 77, 127
10, 202560, Note_off_c, 10, 77, 127
10, 202800, Note_on_c, 10, 76, 127
10, 203040, Note_off_c, 10, 76, 127
10, 203040, Note_on_c, 10, 74, 127
10, 203520, Note_off_c, 10, 74, 127
10, 203520, Note_on_c, 10, 76, 127
10, 204360, Note_off_c, 10, 76, 127
10, 204480, Note_on_c, 10, 74, 127
10, 204960, Note_off_c, 10, 74, 127
10, 204960, Note_on_c, 10, 77, 127
10, 205920, Note_off_c, 10, 77, 127
10, 206400, Note_on_c, 10, 81, 127
10, 207360, Note_off_c, 10, 81, 127
10, 207360, Note_on_c, 10, 81, 127
10, 207840, Note_off_c, 10, 81, 127
10, 207840, Note_on_c, 10, 79, 127
10, 208800, Note_off_c, 10, 79, 127
10, 208800, Note_on_c, 10, 79, 127
10, 209280, Note_off_c, 10, 79, 127
10, 209280, Note_on_c, 10, 77, 127
10, 209760, Note_off_c, 10, 77, 127
10, 209760, Note_on_c, 10, 72, 95
10, 210000, Note_off_c, 10, 72, 95
10, 210000, Note_on_c, 10, 74, 95
10, 210240, Note_off_c, 10, 74, 95
10, 210240, Note_on_c, 10, 76, 95
10, 210480, Note_off_c, 10, 76, 95
10, 210480, Note_on_c, 10, 77, 95
10, 210720, Note_off_c, 10, 77, 95
10, 210720, Note_on_c, 10, 79, 95
10, 210960, Note_off_c, 10, 79, 95
10, 210960, Note_on_c, 10, 81, 95
10, 211200, Note_off_c, 10, 81, 95
10, 211200, Note_on_c, 10, 79, 95
10, 211440, Note_off_c, 10, 79, 95
10, 211440, Note_on_c, 10, 77, 95
10, 211680, Note_off_c, 10, 77, 95
10, 211680, Note_on_c, 10, 76, 95
10, 211920, Note_off_c, 10, 76, 95
10, 211920, Note_on_c, 10, 74, 95
10, 212160, Note_off_c, 10, 74, 95
10, 212160, Note_on_c, 10, 72, 127
10, 213120, Note_off_c, 10, 72, 127
10, 213120, Note_on_c, 10, 72, 127
10, 213600, Note_off_c, 10, 72, 127
10, 213600, Note_on_c, 10, 74, 127
10, 214560, Note_off_c, 10, 74, 127
10, 214560, Note_on_c, 10, 74, 127
10, 215040, Note_off_c, 10, 74, 127
10, 215040, Note_on_c, 10, 74, 127
10, 215520, Note_off_c, 10, 74, 127
10, 215760, Note_on_c, 10, 76, 127
10, 216000, Note_off_c, 10, 76, 127
10, 216000, Note_on_c, 10, 74, 127
10, 216480, Note_off_c, 10, 74, 127
10, 216480, Note_on_c, 10, 76, 127
10, 217320, Note_off_c, 10, 76, 127
10, 217440, Note_on_c, 10, 74, 127
10, 217920, Note_off_c, 10, 74, 127
10, 217920, Note_on_c, 10, 77, 127
10, 218400, Note_off_c, 10, 77, 127
10, 218640, Note_on_c, 10, 76, 127
10, 218880, Note_off_c, 10, 76, 127
10, 218880, Note_on_c, 10, 74, 127
10, 219360, Note_off_c, 10, 74, 127
10, 219360, Note_on_c, 10, 76, 127
10, 220200, Note_off_c, 10, 76, 127
10, 220320, Note_on_c, 10, 74, 127
10, 220800, Note_off_c, 10, 74, 127
10, 220800, Note_on_c, 10, 77, 127
10, 221280, Note_off_c, 10, 77, 127
10, 221520, Note_on_c, 10, 76, 127
10, 221760, Note_off_c, 10, 76, 127
10, 221760, Note_on_c, 10, 74, 127
10, 222240, Note_off_c, 10, 74, 127
10, 222240, Note_on_c, 10, 76, 127
10, 223080, Note_off_c, 10, 76, 127
10, 223200, Note_on_c, 10, 74, 127
10, 223680, Note_off_c, 10, 74, 127
10, 223680, Note_on_c, 10, 77, 127
10, 224640, Note_off_c, 10, 77, 127
10, 225120, Note_on_c, 10, 81, 127
10, 226080, Note_off_c, 10, 81, 127
10, 226080, Note_on_c, 10, 81, 127
10, 226560, Note_off_c, 10, 81, 127
10, 226560, Note_on_c, 10, 79, 127
10, 227520, Note_off_c, 10, 79, 127
10, 227520, Note_on_c, 10, 79, 127
10, 228000, Note_off_c, 10, 79, 127
10, 228000, Note_on_c, 10, 74, 127
10, 228480, Note_off_c, 10, 74, 127
10, 228480, Note_on_c, 10, 72, 127
10, 228720, Note_off_c, 10, 72, 127
10, 228720, Note_on_c, 10, 74, 127
10, 228960, Note_off_c, 10, 74, 127
10, 228960, Note_on_c, 10, 76, 127
10, 229200, Note_off_c, 10, 76, 127
10, 229200, Note_on_c, 10, 77, 127
10, 229440, Note_off_c, 10, 77, 127
10, 229440, Note_on_c, 10, 79, 127
10, 229680, Note_off_c, 10, 79, 127
10, 229680, Note_on_c, 10, 81, 127
10, 229920, Note_off_c, 10, 81, 127
10, 229920, Note_on_c, 10, 79, 127
10, 230160, Note_off_c, 10, 79, 127
10, 230160, Note_on_c, 10, 77, 127
10, 230400, Note_off_c, 10, 77, 127
10, 230400, Note_on_c, 10, 76, 127
10, 230640, Note_off_c, 10, 76, 127
10, 230640, Note_on_c, 10, 74, 127
10, 230880, Note_off_c, 10, 74, 127
10, 230880, Note_on_c, 10, 72, 127
10, 231840, Note_off_c, 10, 72, 127
10, 231840, Note_on_c, 10, 72, 127
10, 232320, Note_off_c, 10, 72, 127
10, 232320, Note_on_c, 10, 74, 127
10, 233280, Note_off_c, 10, 74, 127
10, 233280, End_track
0, 0, End_of_file
